%FSLAX45Y45*%
G04 Gerber Fmt 4.5, Leading zero omitted, Abs format (unit mm)*
G04 Created by KiCad (PCBNEW (6.0.0)) date 2022-07-08 19:14:19*
%MOMM*%
%LPD*%
G01*
G04 APERTURE LIST*
%TA.AperFunction,Profile*%
%ADD10C,0.100000*%
%TD*%
%ADD11C,0.200000*%
%ADD12C,0.020000*%
%ADD13C,0.040000*%
%ADD14C,0.050000*%
%ADD15C,0.060000*%
%ADD16C,0.090000*%
%ADD17C,0.100000*%
%ADD18C,0.110000*%
%ADD19C,0.150000*%
%ADD20C,0.170000*%
%ADD21C,0.270000*%
G04 APERTURE END LIST*
D10*
X11000000Y-5900000D02*
X16000000Y-5900000D01*
X0Y-10000000D02*
X16000000Y-10000000D01*
X16000000Y-5900000D02*
X16000000Y-10000000D01*
X0Y0D02*
X0Y-10000000D01*
X16000000Y-3800000D02*
X16000000Y0D01*
X11000000Y-3800000D02*
X11000000Y-5900000D01*
X16000000Y0D02*
X0Y0D01*
X16000000Y-3800000D02*
X11000000Y-3800000D01*
D11*
D12*
X1107600Y-6484780D02*
X1127600Y-6504780D01*
X1127600Y-6484780D02*
X1107600Y-6504780D01*
X1260000Y-8930800D02*
X1280000Y-8950800D01*
X1280000Y-8930800D02*
X1260000Y-8950800D01*
X1831500Y-8918100D02*
X1851500Y-8938100D01*
X1851500Y-8918100D02*
X1831500Y-8938100D01*
X1836580Y-4816000D02*
X1856580Y-4836000D01*
X1856580Y-4816000D02*
X1836580Y-4836000D01*
X1887380Y-6370480D02*
X1907380Y-6390480D01*
X1907380Y-6370480D02*
X1887380Y-6390480D01*
X2027080Y-5517040D02*
X2047080Y-5537040D01*
X2047080Y-5517040D02*
X2027080Y-5537040D01*
X2237900Y-8740300D02*
X2257900Y-8760300D01*
X2257900Y-8740300D02*
X2237900Y-8760300D01*
X2844960Y-5453540D02*
X2864960Y-5473540D01*
X2864960Y-5453540D02*
X2844960Y-5473540D01*
X2964340Y-5557680D02*
X2984340Y-5577680D01*
X2984340Y-5557680D02*
X2964340Y-5577680D01*
X3129440Y-5237640D02*
X3149440Y-5257640D01*
X3149440Y-5237640D02*
X3129440Y-5257640D01*
X3177700Y-5476400D02*
X3197700Y-5496400D01*
X3197700Y-5476400D02*
X3177700Y-5496400D01*
X3177700Y-5552600D02*
X3197700Y-5572600D01*
X3197700Y-5552600D02*
X3177700Y-5572600D01*
X3177700Y-5641500D02*
X3197700Y-5661500D01*
X3197700Y-5641500D02*
X3177700Y-5661500D01*
X3191575Y-5284535D02*
X3211575Y-5304535D01*
X3211575Y-5284535D02*
X3191575Y-5304535D01*
X3241414Y-5232774D02*
X3261414Y-5252774D01*
X3261414Y-5232774D02*
X3241414Y-5252774D01*
X3266600Y-5476400D02*
X3286600Y-5496400D01*
X3286600Y-5476400D02*
X3266600Y-5496400D01*
X3266600Y-5552600D02*
X3286600Y-5572600D01*
X3286600Y-5552600D02*
X3266600Y-5572600D01*
X3266600Y-5641500D02*
X3286600Y-5661500D01*
X3286600Y-5641500D02*
X3266600Y-5661500D01*
X3274220Y-4442620D02*
X3294220Y-4462620D01*
X3294220Y-4442620D02*
X3274220Y-4462620D01*
X3294540Y-5275740D02*
X3314540Y-5295740D01*
X3314540Y-5275740D02*
X3294540Y-5295740D01*
X3355500Y-5476400D02*
X3375500Y-5496400D01*
X3375500Y-5476400D02*
X3355500Y-5496400D01*
X3355500Y-5552600D02*
X3375500Y-5572600D01*
X3375500Y-5552600D02*
X3355500Y-5572600D01*
X3355500Y-5641500D02*
X3375500Y-5661500D01*
X3375500Y-5641500D02*
X3355500Y-5661500D01*
X3363120Y-4346100D02*
X3383120Y-4366100D01*
X3383120Y-4346100D02*
X3363120Y-4366100D01*
X3425490Y-4408470D02*
X3445490Y-4428470D01*
X3445490Y-4408470D02*
X3425490Y-4428470D01*
X3579020Y-3185320D02*
X3599020Y-3205320D01*
X3599020Y-3185320D02*
X3579020Y-3205320D01*
X3647600Y-3721260D02*
X3667600Y-3741260D01*
X3667600Y-3721260D02*
X3647600Y-3741260D01*
X3843180Y-3556160D02*
X3863180Y-3576160D01*
X3863180Y-3556160D02*
X3843180Y-3576160D01*
X3863500Y-8422800D02*
X3883500Y-8442800D01*
X3883500Y-8422800D02*
X3863500Y-8442800D01*
X3919380Y-3507900D02*
X3939380Y-3527900D01*
X3939380Y-3507900D02*
X3919380Y-3527900D01*
X4244500Y-3038000D02*
X4264500Y-3058000D01*
X4264500Y-3038000D02*
X4244500Y-3058000D01*
X4252120Y-2512220D02*
X4272120Y-2532220D01*
X4272120Y-2512220D02*
X4252120Y-2532220D01*
X4268927Y-2444995D02*
X4288927Y-2464995D01*
X4288927Y-2444995D02*
X4268927Y-2464995D01*
X4272440Y-2380140D02*
X4292440Y-2400140D01*
X4292440Y-2380140D02*
X4272440Y-2400140D01*
X4272999Y-4376116D02*
X4292999Y-4396116D01*
X4292999Y-4376116D02*
X4272999Y-4396116D01*
X4281701Y-4451139D02*
X4301701Y-4471139D01*
X4301701Y-4451139D02*
X4281701Y-4471139D01*
X4285140Y-5293520D02*
X4305140Y-5313520D01*
X4305140Y-5293520D02*
X4285140Y-5313520D01*
X4300843Y-4536600D02*
X4320843Y-4556600D01*
X4320843Y-4536600D02*
X4300843Y-4556600D01*
X4305460Y-5738020D02*
X4325460Y-5758020D01*
X4325460Y-5738020D02*
X4305460Y-5758020D01*
X4305460Y-5918360D02*
X4325460Y-5938360D01*
X4325460Y-5918360D02*
X4305460Y-5938360D01*
X4351180Y-3003806D02*
X4371180Y-3023806D01*
X4371180Y-3003806D02*
X4351180Y-3023806D01*
X4369995Y-2927705D02*
X4389995Y-2947705D01*
X4389995Y-2927705D02*
X4369995Y-2947705D01*
X4460400Y-4104800D02*
X4480400Y-4124800D01*
X4480400Y-4104800D02*
X4460400Y-4124800D01*
X4460400Y-4435000D02*
X4480400Y-4455000D01*
X4480400Y-4435000D02*
X4460400Y-4455000D01*
X4518820Y-2877980D02*
X4538820Y-2897980D01*
X4538820Y-2877980D02*
X4518820Y-2897980D01*
X4572862Y-2831085D02*
X4592862Y-2851085D01*
X4592862Y-2831085D02*
X4572862Y-2851085D01*
X4612800Y-4435000D02*
X4632800Y-4455000D01*
X4632800Y-4435000D02*
X4612800Y-4455000D01*
X4615340Y-3393645D02*
X4635340Y-3413645D01*
X4635340Y-3393645D02*
X4615340Y-3413645D01*
X4633584Y-2808035D02*
X4653584Y-2828035D01*
X4653584Y-2808035D02*
X4633584Y-2828035D01*
X4638200Y-4104800D02*
X4658200Y-4124800D01*
X4658200Y-4104800D02*
X4638200Y-4124800D01*
X4669810Y-3346750D02*
X4689810Y-3366750D01*
X4689810Y-3346750D02*
X4669810Y-3366750D01*
X4680479Y-2707800D02*
X4700479Y-2727800D01*
X4700479Y-2707800D02*
X4680479Y-2727800D01*
X4701700Y-2846325D02*
X4721700Y-2866325D01*
X4721700Y-2846325D02*
X4701700Y-2866325D01*
X4765200Y-4104800D02*
X4785200Y-4124800D01*
X4785200Y-4104800D02*
X4765200Y-4124800D01*
X4765200Y-4435000D02*
X4785200Y-4455000D01*
X4785200Y-4435000D02*
X4765200Y-4455000D01*
X4790600Y-2968957D02*
X4810600Y-2988957D01*
X4810600Y-2968957D02*
X4790600Y-2988957D01*
X4841400Y-8549800D02*
X4861400Y-8569800D01*
X4861400Y-8549800D02*
X4841400Y-8569800D01*
X4870590Y-2660402D02*
X4890590Y-2680402D01*
X4890590Y-2660402D02*
X4870590Y-2680402D01*
X4893375Y-4103894D02*
X4913375Y-4123894D01*
X4913375Y-4103894D02*
X4893375Y-4123894D01*
X4917740Y-2560919D02*
X4937740Y-2580919D01*
X4937740Y-2560919D02*
X4917740Y-2580919D01*
X4970831Y-2598333D02*
X4990831Y-2618333D01*
X4990831Y-2598333D02*
X4970831Y-2618333D01*
X5006500Y-2809400D02*
X5026500Y-2829400D01*
X5026500Y-2809400D02*
X5006500Y-2829400D01*
X5052220Y-3528220D02*
X5072220Y-3548220D01*
X5072220Y-3528220D02*
X5052220Y-3548220D01*
X5070000Y-2377600D02*
X5090000Y-2397600D01*
X5090000Y-2377600D02*
X5070000Y-2397600D01*
X5097940Y-3579020D02*
X5117940Y-3599020D01*
X5117940Y-3579020D02*
X5097940Y-3599020D01*
X5260500Y-8880000D02*
X5280500Y-8900000D01*
X5280500Y-8880000D02*
X5260500Y-8900000D01*
X6009800Y-9108600D02*
X6029800Y-9128600D01*
X6029800Y-9108600D02*
X6009800Y-9128600D01*
X6060600Y-8571295D02*
X6080600Y-8591295D01*
X6080600Y-8571295D02*
X6060600Y-8591295D01*
X6162200Y-9083200D02*
X6182200Y-9103200D01*
X6182200Y-9083200D02*
X6162200Y-9103200D01*
X6441600Y-8638700D02*
X6461600Y-8658700D01*
X6461600Y-8638700D02*
X6441600Y-8658700D01*
X6632100Y-3800000D02*
X6652100Y-3820000D01*
X6652100Y-3800000D02*
X6632100Y-3820000D01*
X6632100Y-3888900D02*
X6652100Y-3908900D01*
X6652100Y-3888900D02*
X6632100Y-3908900D01*
X6695600Y-3800000D02*
X6715600Y-3820000D01*
X6715600Y-3800000D02*
X6695600Y-3820000D01*
X6695600Y-3888900D02*
X6715600Y-3908900D01*
X6715600Y-3888900D02*
X6695600Y-3908900D01*
X6721000Y-5971700D02*
X6741000Y-5991700D01*
X6741000Y-5971700D02*
X6721000Y-5991700D01*
X6721000Y-6035200D02*
X6741000Y-6055200D01*
X6741000Y-6035200D02*
X6721000Y-6055200D01*
X6721000Y-6098700D02*
X6741000Y-6118700D01*
X6741000Y-6098700D02*
X6721000Y-6118700D01*
X6759100Y-3800000D02*
X6779100Y-3820000D01*
X6779100Y-3800000D02*
X6759100Y-3820000D01*
X6759100Y-3888900D02*
X6779100Y-3908900D01*
X6779100Y-3888900D02*
X6759100Y-3908900D01*
X6809900Y-5971700D02*
X6829900Y-5991700D01*
X6829900Y-5971700D02*
X6809900Y-5991700D01*
X6809900Y-6035200D02*
X6829900Y-6055200D01*
X6829900Y-6035200D02*
X6809900Y-6055200D01*
X6809900Y-6098700D02*
X6829900Y-6118700D01*
X6829900Y-6098700D02*
X6809900Y-6118700D01*
X6898800Y-5971700D02*
X6918800Y-5991700D01*
X6918800Y-5971700D02*
X6898800Y-5991700D01*
X6898800Y-6035200D02*
X6918800Y-6055200D01*
X6918800Y-6035200D02*
X6898800Y-6055200D01*
X6898800Y-6098700D02*
X6918800Y-6118700D01*
X6918800Y-6098700D02*
X6898800Y-6118700D01*
X7254400Y-4625500D02*
X7274400Y-4645500D01*
X7274400Y-4625500D02*
X7254400Y-4645500D01*
X7254400Y-4714400D02*
X7274400Y-4734400D01*
X7274400Y-4714400D02*
X7254400Y-4734400D01*
X7254400Y-4803300D02*
X7274400Y-4823300D01*
X7274400Y-4803300D02*
X7254400Y-4823300D01*
X7330600Y-4625500D02*
X7350600Y-4645500D01*
X7350600Y-4625500D02*
X7330600Y-4645500D01*
X7330600Y-4714400D02*
X7350600Y-4734400D01*
X7350600Y-4714400D02*
X7330600Y-4734400D01*
X7330600Y-4803300D02*
X7350600Y-4823300D01*
X7350600Y-4803300D02*
X7330600Y-4823300D01*
X7356000Y-4104800D02*
X7376000Y-4124800D01*
X7376000Y-4104800D02*
X7356000Y-4124800D01*
X7356000Y-4206400D02*
X7376000Y-4226400D01*
X7376000Y-4206400D02*
X7356000Y-4226400D01*
X7356000Y-4308000D02*
X7376000Y-4328000D01*
X7376000Y-4308000D02*
X7356000Y-4328000D01*
X7356000Y-4409600D02*
X7376000Y-4429600D01*
X7376000Y-4409600D02*
X7356000Y-4429600D01*
X7406800Y-4625500D02*
X7426800Y-4645500D01*
X7426800Y-4625500D02*
X7406800Y-4645500D01*
X7406800Y-4714400D02*
X7426800Y-4734400D01*
X7426800Y-4714400D02*
X7406800Y-4734400D01*
X7406800Y-4803300D02*
X7426800Y-4823300D01*
X7426800Y-4803300D02*
X7406800Y-4823300D01*
X7457600Y-4104800D02*
X7477600Y-4124800D01*
X7477600Y-4104800D02*
X7457600Y-4124800D01*
X7457600Y-4206400D02*
X7477600Y-4226400D01*
X7477600Y-4206400D02*
X7457600Y-4226400D01*
X7457600Y-4308000D02*
X7477600Y-4328000D01*
X7477600Y-4308000D02*
X7457600Y-4328000D01*
X7508400Y-4358800D02*
X7528400Y-4378800D01*
X7528400Y-4358800D02*
X7508400Y-4378800D01*
X7536340Y-8143400D02*
X7556340Y-8163400D01*
X7556340Y-8143400D02*
X7536340Y-8163400D01*
X7559200Y-4104800D02*
X7579200Y-4124800D01*
X7579200Y-4104800D02*
X7559200Y-4124800D01*
X7559200Y-4206400D02*
X7579200Y-4226400D01*
X7579200Y-4206400D02*
X7559200Y-4226400D01*
X7559200Y-4308000D02*
X7579200Y-4328000D01*
X7579200Y-4308000D02*
X7559200Y-4328000D01*
X7864000Y-5857400D02*
X7884000Y-5877400D01*
X7884000Y-5857400D02*
X7864000Y-5877400D01*
X7864000Y-5946300D02*
X7884000Y-5966300D01*
X7884000Y-5946300D02*
X7864000Y-5966300D01*
X7864000Y-6035200D02*
X7884000Y-6055200D01*
X7884000Y-6035200D02*
X7864000Y-6055200D01*
X7927500Y-5857400D02*
X7947500Y-5877400D01*
X7947500Y-5857400D02*
X7927500Y-5877400D01*
X7927500Y-5946300D02*
X7947500Y-5966300D01*
X7947500Y-5946300D02*
X7927500Y-5966300D01*
X7927500Y-6035200D02*
X7947500Y-6055200D01*
X7947500Y-6035200D02*
X7927500Y-6055200D01*
X7991000Y-5857400D02*
X8011000Y-5877400D01*
X8011000Y-5857400D02*
X7991000Y-5877400D01*
X7991000Y-5946300D02*
X8011000Y-5966300D01*
X8011000Y-5946300D02*
X7991000Y-5966300D01*
X7991000Y-6035200D02*
X8011000Y-6055200D01*
X8011000Y-6035200D02*
X7991000Y-6055200D01*
X8079900Y-7571900D02*
X8099900Y-7591900D01*
X8099900Y-7571900D02*
X8079900Y-7591900D01*
X8270400Y-9197500D02*
X8290400Y-9217500D01*
X8290400Y-9197500D02*
X8270400Y-9217500D01*
X8486300Y-7800500D02*
X8506300Y-7820500D01*
X8506300Y-7800500D02*
X8486300Y-7820500D01*
X8638700Y-9070500D02*
X8658700Y-9090500D01*
X8658700Y-9070500D02*
X8638700Y-9090500D01*
X8880000Y-8499000D02*
X8900000Y-8519000D01*
X8900000Y-8499000D02*
X8880000Y-8519000D01*
X8918100Y-7660800D02*
X8938100Y-7680800D01*
X8938100Y-7660800D02*
X8918100Y-7680800D01*
X8994300Y-8016400D02*
X9014300Y-8036400D01*
X9014300Y-8016400D02*
X8994300Y-8036400D01*
X8994300Y-8079900D02*
X9014300Y-8099900D01*
X9014300Y-8079900D02*
X8994300Y-8099900D01*
X8994300Y-8143400D02*
X9014300Y-8163400D01*
X9014300Y-8143400D02*
X8994300Y-8163400D01*
X9057800Y-8016400D02*
X9077800Y-8036400D01*
X9077800Y-8016400D02*
X9057800Y-8036400D01*
X9057800Y-8079900D02*
X9077800Y-8099900D01*
X9077800Y-8079900D02*
X9057800Y-8099900D01*
X9057800Y-8143400D02*
X9077800Y-8163400D01*
X9077800Y-8143400D02*
X9057800Y-8163400D01*
X9121300Y-8016400D02*
X9141300Y-8036400D01*
X9141300Y-8016400D02*
X9121300Y-8036400D01*
X9121300Y-8079900D02*
X9141300Y-8099900D01*
X9141300Y-8079900D02*
X9121300Y-8099900D01*
X9121300Y-8143400D02*
X9141300Y-8163400D01*
X9141300Y-8143400D02*
X9121300Y-8163400D01*
X9324500Y-7114700D02*
X9344500Y-7134700D01*
X9344500Y-7114700D02*
X9324500Y-7134700D01*
X9324500Y-7178200D02*
X9344500Y-7198200D01*
X9344500Y-7178200D02*
X9324500Y-7198200D01*
X9324500Y-7241700D02*
X9344500Y-7261700D01*
X9344500Y-7241700D02*
X9324500Y-7261700D01*
X9388000Y-7114700D02*
X9408000Y-7134700D01*
X9408000Y-7114700D02*
X9388000Y-7134700D01*
X9388000Y-7178200D02*
X9408000Y-7198200D01*
X9408000Y-7178200D02*
X9388000Y-7198200D01*
X9388000Y-7241700D02*
X9408000Y-7261700D01*
X9408000Y-7241700D02*
X9388000Y-7261700D01*
X9388000Y-7305200D02*
X9408000Y-7325200D01*
X9408000Y-7305200D02*
X9388000Y-7325200D01*
X9426372Y-6516927D02*
X9446372Y-6536927D01*
X9446372Y-6516927D02*
X9426372Y-6536927D01*
X9451500Y-7114700D02*
X9471500Y-7134700D01*
X9471500Y-7114700D02*
X9451500Y-7134700D01*
X9451500Y-7178200D02*
X9471500Y-7198200D01*
X9471500Y-7178200D02*
X9451500Y-7198200D01*
X9451500Y-7241700D02*
X9471500Y-7261700D01*
X9471500Y-7241700D02*
X9451500Y-7261700D01*
X9451500Y-7305200D02*
X9471500Y-7325200D01*
X9471500Y-7305200D02*
X9451500Y-7325200D01*
X9515000Y-3965100D02*
X9535000Y-3985100D01*
X9535000Y-3965100D02*
X9515000Y-3985100D01*
X9515000Y-4028600D02*
X9535000Y-4048600D01*
X9535000Y-4028600D02*
X9515000Y-4048600D01*
X9515000Y-4092100D02*
X9535000Y-4112100D01*
X9535000Y-4092100D02*
X9515000Y-4112100D01*
X9515000Y-4485800D02*
X9535000Y-4505800D01*
X9535000Y-4485800D02*
X9515000Y-4505800D01*
X9515000Y-4549300D02*
X9535000Y-4569300D01*
X9535000Y-4549300D02*
X9515000Y-4569300D01*
X9515000Y-4612800D02*
X9535000Y-4632800D01*
X9535000Y-4612800D02*
X9515000Y-4632800D01*
X9515000Y-4676300D02*
X9535000Y-4696300D01*
X9535000Y-4676300D02*
X9515000Y-4696300D01*
X9515000Y-5120800D02*
X9535000Y-5140800D01*
X9535000Y-5120800D02*
X9515000Y-5140800D01*
X9515000Y-5184300D02*
X9535000Y-5204300D01*
X9535000Y-5184300D02*
X9515000Y-5204300D01*
X9515000Y-5247800D02*
X9535000Y-5267800D01*
X9535000Y-5247800D02*
X9515000Y-5267800D01*
X9527700Y-5832000D02*
X9547700Y-5852000D01*
X9547700Y-5832000D02*
X9527700Y-5852000D01*
X9527700Y-5895500D02*
X9547700Y-5915500D01*
X9547700Y-5895500D02*
X9527700Y-5915500D01*
X9527700Y-5964730D02*
X9547700Y-5984730D01*
X9547700Y-5964730D02*
X9527700Y-5984730D01*
X9527700Y-6035200D02*
X9547700Y-6055200D01*
X9547700Y-6035200D02*
X9527700Y-6055200D01*
X9603900Y-4485800D02*
X9623900Y-4505800D01*
X9623900Y-4485800D02*
X9603900Y-4505800D01*
X9603900Y-4549300D02*
X9623900Y-4569300D01*
X9623900Y-4549300D02*
X9603900Y-4569300D01*
X9603900Y-4612800D02*
X9623900Y-4632800D01*
X9623900Y-4612800D02*
X9603900Y-4632800D01*
X9603900Y-4676300D02*
X9623900Y-4696300D01*
X9623900Y-4676300D02*
X9603900Y-4696300D01*
X9603900Y-5120800D02*
X9623900Y-5140800D01*
X9623900Y-5120800D02*
X9603900Y-5140800D01*
X9603900Y-5185600D02*
X9623900Y-5205600D01*
X9623900Y-5185600D02*
X9603900Y-5205600D01*
X9603900Y-5247800D02*
X9623900Y-5267800D01*
X9623900Y-5247800D02*
X9603900Y-5267800D01*
X9603900Y-5832000D02*
X9623900Y-5852000D01*
X9623900Y-5832000D02*
X9603900Y-5852000D01*
X9603900Y-5895500D02*
X9623900Y-5915500D01*
X9623900Y-5895500D02*
X9603900Y-5915500D01*
X9603900Y-5967270D02*
X9623900Y-5987270D01*
X9623900Y-5967270D02*
X9603900Y-5987270D01*
X9603900Y-6035200D02*
X9623900Y-6055200D01*
X9623900Y-6035200D02*
X9603900Y-6055200D01*
X9616600Y-3965100D02*
X9636600Y-3985100D01*
X9636600Y-3965100D02*
X9616600Y-3985100D01*
X9616600Y-4092100D02*
X9636600Y-4112100D01*
X9636600Y-4092100D02*
X9616600Y-4112100D01*
X9617840Y-4027360D02*
X9637840Y-4047360D01*
X9637840Y-4027360D02*
X9617840Y-4047360D01*
X10378600Y-6962300D02*
X10398600Y-6982300D01*
X10398600Y-6962300D02*
X10378600Y-6982300D01*
X10378600Y-7025800D02*
X10398600Y-7045800D01*
X10398600Y-7025800D02*
X10378600Y-7045800D01*
X10378600Y-7089300D02*
X10398600Y-7109300D01*
X10398600Y-7089300D02*
X10378600Y-7109300D01*
X10467500Y-6962300D02*
X10487500Y-6982300D01*
X10487500Y-6962300D02*
X10467500Y-6982300D01*
X10467500Y-7025800D02*
X10487500Y-7045800D01*
X10487500Y-7025800D02*
X10467500Y-7045800D01*
X10467500Y-7089300D02*
X10487500Y-7109300D01*
X10487500Y-7089300D02*
X10467500Y-7109300D01*
X10556400Y-6962300D02*
X10576400Y-6982300D01*
X10576400Y-6962300D02*
X10556400Y-6982300D01*
X10556400Y-7025800D02*
X10576400Y-7045800D01*
X10576400Y-7025800D02*
X10556400Y-7045800D01*
X10556400Y-7089300D02*
X10576400Y-7109300D01*
X10576400Y-7089300D02*
X10556400Y-7109300D01*
X10861200Y-6962300D02*
X10881200Y-6982300D01*
X10881200Y-6962300D02*
X10861200Y-6982300D01*
X10861200Y-7025800D02*
X10881200Y-7045800D01*
X10881200Y-7025800D02*
X10861200Y-7045800D01*
X10861200Y-7089300D02*
X10881200Y-7109300D01*
X10881200Y-7089300D02*
X10861200Y-7109300D01*
X10950100Y-6962300D02*
X10970100Y-6982300D01*
X10970100Y-6962300D02*
X10950100Y-6982300D01*
X10950100Y-7025800D02*
X10970100Y-7045800D01*
X10970100Y-7025800D02*
X10950100Y-7045800D01*
X10950100Y-7089300D02*
X10970100Y-7109300D01*
X10970100Y-7089300D02*
X10950100Y-7109300D01*
X11039000Y-6289200D02*
X11059000Y-6309200D01*
X11059000Y-6289200D02*
X11039000Y-6309200D01*
X11039000Y-6962300D02*
X11059000Y-6982300D01*
X11059000Y-6962300D02*
X11039000Y-6982300D01*
X11039000Y-7025800D02*
X11059000Y-7045800D01*
X11059000Y-7025800D02*
X11039000Y-7045800D01*
X11039000Y-7089300D02*
X11059000Y-7109300D01*
X11059000Y-7089300D02*
X11039000Y-7109300D01*
X11166000Y-8753000D02*
X11186000Y-8773000D01*
X11186000Y-8753000D02*
X11166000Y-8773000D01*
X11166000Y-9134000D02*
X11186000Y-9154000D01*
X11186000Y-9134000D02*
X11166000Y-9154000D01*
X11381900Y-7571900D02*
X11401900Y-7591900D01*
X11401900Y-7571900D02*
X11381900Y-7591900D01*
X11420000Y-6289200D02*
X11440000Y-6309200D01*
X11440000Y-6289200D02*
X11420000Y-6309200D01*
X11498740Y-7626510D02*
X11518740Y-7646510D01*
X11518740Y-7626510D02*
X11498740Y-7646510D01*
X11508900Y-7343300D02*
X11528900Y-7363300D01*
X11528900Y-7343300D02*
X11508900Y-7363300D01*
X11508900Y-7406800D02*
X11528900Y-7426800D01*
X11528900Y-7406800D02*
X11508900Y-7426800D01*
X11508900Y-7470300D02*
X11528900Y-7490300D01*
X11528900Y-7470300D02*
X11508900Y-7490300D01*
X11508900Y-7533800D02*
X11528900Y-7553800D01*
X11528900Y-7533800D02*
X11508900Y-7553800D01*
X11516520Y-1336200D02*
X11536520Y-1356200D01*
X11536520Y-1336200D02*
X11516520Y-1356200D01*
X11521600Y-1133000D02*
X11541600Y-1153000D01*
X11541600Y-1133000D02*
X11521600Y-1153000D01*
X11521600Y-1234600D02*
X11541600Y-1254600D01*
X11541600Y-1234600D02*
X11521600Y-1254600D01*
X11547000Y-9134000D02*
X11567000Y-9154000D01*
X11567000Y-9134000D02*
X11547000Y-9154000D01*
X11572400Y-7343300D02*
X11592400Y-7363300D01*
X11592400Y-7343300D02*
X11572400Y-7363300D01*
X11572400Y-7406800D02*
X11592400Y-7426800D01*
X11592400Y-7406800D02*
X11572400Y-7426800D01*
X11572400Y-7470300D02*
X11592400Y-7490300D01*
X11592400Y-7470300D02*
X11572400Y-7490300D01*
X11572400Y-7533800D02*
X11592400Y-7553800D01*
X11592400Y-7533800D02*
X11572400Y-7553800D01*
X11623200Y-1133000D02*
X11643200Y-1153000D01*
X11643200Y-1133000D02*
X11623200Y-1153000D01*
X11623200Y-1234600D02*
X11643200Y-1254600D01*
X11643200Y-1234600D02*
X11623200Y-1254600D01*
X11623200Y-1336200D02*
X11643200Y-1356200D01*
X11643200Y-1336200D02*
X11623200Y-1356200D01*
X11623200Y-2847500D02*
X11643200Y-2867500D01*
X11643200Y-2847500D02*
X11623200Y-2867500D01*
X11623200Y-2949100D02*
X11643200Y-2969100D01*
X11643200Y-2949100D02*
X11623200Y-2969100D01*
X11623200Y-3050700D02*
X11643200Y-3070700D01*
X11643200Y-3050700D02*
X11623200Y-3070700D01*
X11635900Y-7406800D02*
X11655900Y-7426800D01*
X11655900Y-7406800D02*
X11635900Y-7426800D01*
X11635900Y-7470300D02*
X11655900Y-7490300D01*
X11655900Y-7470300D02*
X11635900Y-7490300D01*
X11635900Y-7533800D02*
X11655900Y-7553800D01*
X11655900Y-7533800D02*
X11635900Y-7553800D01*
X11636430Y-7342770D02*
X11656430Y-7362770D01*
X11656430Y-7342770D02*
X11636430Y-7362770D01*
X11699400Y-7343300D02*
X11719400Y-7363300D01*
X11719400Y-7343300D02*
X11699400Y-7363300D01*
X11699400Y-7470300D02*
X11719400Y-7490300D01*
X11719400Y-7470300D02*
X11699400Y-7490300D01*
X11699400Y-7533800D02*
X11719400Y-7553800D01*
X11719400Y-7533800D02*
X11699400Y-7553800D01*
X11699400Y-7838600D02*
X11719400Y-7858600D01*
X11719400Y-7838600D02*
X11699400Y-7858600D01*
X11699930Y-7406270D02*
X11719930Y-7426270D01*
X11719930Y-7406270D02*
X11699930Y-7426270D01*
X11724800Y-2453800D02*
X11744800Y-2473800D01*
X11744800Y-2453800D02*
X11724800Y-2473800D01*
X11724800Y-2847500D02*
X11744800Y-2867500D01*
X11744800Y-2847500D02*
X11724800Y-2867500D01*
X11724800Y-2949100D02*
X11744800Y-2969100D01*
X11744800Y-2949100D02*
X11724800Y-2969100D01*
X11724800Y-3050700D02*
X11744800Y-3070700D01*
X11744800Y-3050700D02*
X11724800Y-3070700D01*
X11762900Y-7343300D02*
X11782900Y-7363300D01*
X11782900Y-7343300D02*
X11762900Y-7363300D01*
X11762900Y-7406800D02*
X11782900Y-7426800D01*
X11782900Y-7406800D02*
X11762900Y-7426800D01*
X11762900Y-7470300D02*
X11782900Y-7490300D01*
X11782900Y-7470300D02*
X11762900Y-7490300D01*
X11762900Y-7533800D02*
X11782900Y-7553800D01*
X11782900Y-7533800D02*
X11762900Y-7553800D01*
X11801000Y-6301900D02*
X11821000Y-6321900D01*
X11821000Y-6301900D02*
X11801000Y-6321900D01*
X11826400Y-7343300D02*
X11846400Y-7363300D01*
X11846400Y-7343300D02*
X11826400Y-7363300D01*
X11826400Y-7406800D02*
X11846400Y-7426800D01*
X11846400Y-7406800D02*
X11826400Y-7426800D01*
X11826400Y-7470300D02*
X11846400Y-7490300D01*
X11846400Y-7470300D02*
X11826400Y-7490300D01*
X11826400Y-7533800D02*
X11846400Y-7553800D01*
X11846400Y-7533800D02*
X11826400Y-7553800D01*
X11889900Y-7343300D02*
X11909900Y-7363300D01*
X11909900Y-7343300D02*
X11889900Y-7363300D01*
X11889900Y-7406800D02*
X11909900Y-7426800D01*
X11909900Y-7406800D02*
X11889900Y-7426800D01*
X11889900Y-7470300D02*
X11909900Y-7490300D01*
X11909900Y-7470300D02*
X11889900Y-7490300D01*
X11889900Y-7533800D02*
X11909900Y-7553800D01*
X11909900Y-7533800D02*
X11889900Y-7553800D01*
X11953400Y-7343300D02*
X11973400Y-7363300D01*
X11973400Y-7343300D02*
X11953400Y-7363300D01*
X11953400Y-7406800D02*
X11973400Y-7426800D01*
X11973400Y-7406800D02*
X11953400Y-7426800D01*
X11953400Y-7470300D02*
X11973400Y-7490300D01*
X11973400Y-7470300D02*
X11953400Y-7490300D01*
X11953400Y-7533800D02*
X11973400Y-7553800D01*
X11973400Y-7533800D02*
X11953400Y-7553800D01*
X12016900Y-7254400D02*
X12036900Y-7274400D01*
X12036900Y-7254400D02*
X12016900Y-7274400D01*
X12055000Y-8067200D02*
X12075000Y-8087200D01*
X12075000Y-8067200D02*
X12055000Y-8087200D01*
X12105800Y-8524400D02*
X12125800Y-8544400D01*
X12125800Y-8524400D02*
X12105800Y-8544400D01*
X12260740Y-6340000D02*
X12280740Y-6360000D01*
X12280740Y-6340000D02*
X12260740Y-6360000D01*
X12893200Y-1856900D02*
X12913200Y-1876900D01*
X12913200Y-1856900D02*
X12893200Y-1876900D01*
X12893200Y-1958500D02*
X12913200Y-1978500D01*
X12913200Y-1958500D02*
X12893200Y-1978500D01*
X12893200Y-2060100D02*
X12913200Y-2080100D01*
X12913200Y-2060100D02*
X12893200Y-2080100D01*
X12994800Y-1856900D02*
X13014800Y-1876900D01*
X13014800Y-1856900D02*
X12994800Y-1876900D01*
X12994800Y-1958500D02*
X13014800Y-1978500D01*
X13014800Y-1958500D02*
X12994800Y-1978500D01*
X12994800Y-2060100D02*
X13014800Y-2080100D01*
X13014800Y-2060100D02*
X12994800Y-2080100D01*
X13142120Y-9184800D02*
X13162120Y-9204800D01*
X13162120Y-9184800D02*
X13142120Y-9204800D01*
X13200540Y-9263375D02*
X13220540Y-9283375D01*
X13220540Y-9263375D02*
X13200540Y-9283375D01*
X13261252Y-9131409D02*
X13281252Y-9151409D01*
X13281252Y-9131409D02*
X13261252Y-9151409D01*
X13360560Y-6835300D02*
X13380560Y-6855300D01*
X13380560Y-6835300D02*
X13360560Y-6855300D01*
X13413900Y-6365790D02*
X13433900Y-6385790D01*
X13433900Y-6365790D02*
X13413900Y-6385790D01*
X13525800Y-9154460D02*
X13545800Y-9174460D01*
X13545800Y-9154460D02*
X13525800Y-9174460D01*
X13586620Y-9187340D02*
X13606620Y-9207340D01*
X13606620Y-9187340D02*
X13586620Y-9207340D01*
X13662820Y-6591460D02*
X13682820Y-6611460D01*
X13682820Y-6591460D02*
X13662820Y-6611460D01*
X14315600Y-1463200D02*
X14335600Y-1483200D01*
X14335600Y-1463200D02*
X14315600Y-1483200D01*
X14315600Y-1514000D02*
X14335600Y-1534000D01*
X14335600Y-1514000D02*
X14315600Y-1534000D01*
X14315600Y-1564800D02*
X14335600Y-1584800D01*
X14335600Y-1564800D02*
X14315600Y-1584800D01*
X14366400Y-1463200D02*
X14386400Y-1483200D01*
X14386400Y-1463200D02*
X14366400Y-1483200D01*
X14366400Y-1514000D02*
X14386400Y-1534000D01*
X14386400Y-1514000D02*
X14366400Y-1534000D01*
X14366400Y-1564800D02*
X14386400Y-1584800D01*
X14386400Y-1564800D02*
X14366400Y-1584800D01*
X14417200Y-1463200D02*
X14437200Y-1483200D01*
X14437200Y-1463200D02*
X14417200Y-1483200D01*
X14417200Y-1514000D02*
X14437200Y-1534000D01*
X14437200Y-1514000D02*
X14417200Y-1534000D01*
X14417200Y-1564800D02*
X14437200Y-1584800D01*
X14437200Y-1564800D02*
X14417200Y-1584800D01*
X14468000Y-1463200D02*
X14488000Y-1483200D01*
X14488000Y-1463200D02*
X14468000Y-1483200D01*
X14468000Y-1514000D02*
X14488000Y-1534000D01*
X14488000Y-1514000D02*
X14468000Y-1534000D01*
X14468000Y-1564800D02*
X14488000Y-1584800D01*
X14488000Y-1564800D02*
X14468000Y-1584800D01*
X14518800Y-1463200D02*
X14538800Y-1483200D01*
X14538800Y-1463200D02*
X14518800Y-1483200D01*
X14518800Y-1514000D02*
X14538800Y-1534000D01*
X14538800Y-1514000D02*
X14518800Y-1534000D01*
X14518800Y-1564800D02*
X14538800Y-1584800D01*
X14538800Y-1564800D02*
X14518800Y-1584800D01*
X15090300Y-1602900D02*
X15110300Y-1622900D01*
X15110300Y-1602900D02*
X15090300Y-1622900D01*
X15090300Y-1679100D02*
X15110300Y-1699100D01*
X15110300Y-1679100D02*
X15090300Y-1699100D01*
X15153800Y-1602900D02*
X15173800Y-1622900D01*
X15173800Y-1602900D02*
X15153800Y-1622900D01*
X15153800Y-1679100D02*
X15173800Y-1699100D01*
X15173800Y-1679100D02*
X15153800Y-1699100D01*
X15217300Y-1602900D02*
X15237300Y-1622900D01*
X15237300Y-1602900D02*
X15217300Y-1622900D01*
X15217300Y-1679100D02*
X15237300Y-1699100D01*
X15237300Y-1679100D02*
X15217300Y-1699100D01*
X15280800Y-1602900D02*
X15300800Y-1622900D01*
X15300800Y-1602900D02*
X15280800Y-1622900D01*
X15280800Y-1679100D02*
X15300800Y-1699100D01*
X15300800Y-1679100D02*
X15280800Y-1699100D01*
D13*
X540700Y-965200D02*
G75*
G03*
X540700Y-965200I-20000J0D01*
G01*
X566100Y-9029700D02*
G75*
G03*
X566100Y-9029700I-20000J0D01*
G01*
X1150300Y-4279900D02*
G75*
G03*
X1150300Y-4279900I-20000J0D01*
G01*
X1226500Y-4686300D02*
G75*
G03*
X1226500Y-4686300I-20000J0D01*
G01*
X1264600Y-8394700D02*
G75*
G03*
X1264600Y-8394700I-20000J0D01*
G01*
X1264600Y-8496300D02*
G75*
G03*
X1264600Y-8496300I-20000J0D01*
G01*
X1277300Y-5181600D02*
G75*
G03*
X1277300Y-5181600I-20000J0D01*
G01*
X1366200Y-8496300D02*
G75*
G03*
X1366200Y-8496300I-20000J0D01*
G01*
X1406448Y-4482016D02*
G75*
G03*
X1406448Y-4482016I-20000J0D01*
G01*
X1442400Y-8559800D02*
G75*
G03*
X1442400Y-8559800I-20000J0D01*
G01*
X1518600Y-8496300D02*
G75*
G03*
X1518600Y-8496300I-20000J0D01*
G01*
X1620200Y-8394700D02*
G75*
G03*
X1620200Y-8394700I-20000J0D01*
G01*
X1620200Y-8496300D02*
G75*
G03*
X1620200Y-8496300I-20000J0D01*
G01*
X1747200Y-4432300D02*
G75*
G03*
X1747200Y-4432300I-20000J0D01*
G01*
X1747200Y-5270500D02*
G75*
G03*
X1747200Y-5270500I-20000J0D01*
G01*
X1747200Y-5346700D02*
G75*
G03*
X1747200Y-5346700I-20000J0D01*
G01*
X2064700Y-6121400D02*
G75*
G03*
X2064700Y-6121400I-20000J0D01*
G01*
X2412680Y-6035040D02*
G75*
G03*
X2412680Y-6035040I-20000J0D01*
G01*
X2471100Y-5765800D02*
G75*
G03*
X2471100Y-5765800I-20000J0D01*
G01*
X2585400Y-5651500D02*
G75*
G03*
X2585400Y-5651500I-20000J0D01*
G01*
X2585400Y-5753100D02*
G75*
G03*
X2585400Y-5753100I-20000J0D01*
G01*
X2636200Y-6400800D02*
G75*
G03*
X2636200Y-6400800I-20000J0D01*
G01*
X2736270Y-5459468D02*
G75*
G03*
X2736270Y-5459468I-20000J0D01*
G01*
X2737800Y-6400800D02*
G75*
G03*
X2737800Y-6400800I-20000J0D01*
G01*
X2753673Y-5034542D02*
G75*
G03*
X2753673Y-5034542I-20000J0D01*
G01*
X2839400Y-6400800D02*
G75*
G03*
X2839400Y-6400800I-20000J0D01*
G01*
X2852100Y-2603500D02*
G75*
G03*
X2852100Y-2603500I-20000J0D01*
G01*
X2941000Y-3556000D02*
G75*
G03*
X2941000Y-3556000I-20000J0D01*
G01*
X2941000Y-6400800D02*
G75*
G03*
X2941000Y-6400800I-20000J0D01*
G01*
X2968940Y-4945380D02*
G75*
G03*
X2968940Y-4945380I-20000J0D01*
G01*
X2971480Y-5788660D02*
G75*
G03*
X2971480Y-5788660I-20000J0D01*
G01*
X2974020Y-5110480D02*
G75*
G03*
X2974020Y-5110480I-20000J0D01*
G01*
X3029900Y-6134100D02*
G75*
G03*
X3029900Y-6134100I-20000J0D01*
G01*
X3062025Y-4836427D02*
G75*
G03*
X3062025Y-4836427I-20000J0D01*
G01*
X3068000Y-4191000D02*
G75*
G03*
X3068000Y-4191000I-20000J0D01*
G01*
X3144200Y-4051300D02*
G75*
G03*
X3144200Y-4051300I-20000J0D01*
G01*
X3246695Y-3327400D02*
G75*
G03*
X3246695Y-3327400I-20000J0D01*
G01*
X3246695Y-3479800D02*
G75*
G03*
X3246695Y-3479800I-20000J0D01*
G01*
X3249424Y-3204024D02*
G75*
G03*
X3249424Y-3204024I-20000J0D01*
G01*
X3271200Y-2706745D02*
G75*
G03*
X3271200Y-2706745I-20000J0D01*
G01*
X3271200Y-2844800D02*
G75*
G03*
X3271200Y-2844800I-20000J0D01*
G01*
X3283900Y-3695700D02*
G75*
G03*
X3283900Y-3695700I-20000J0D01*
G01*
X3322000Y-4013200D02*
G75*
G03*
X3322000Y-4013200I-20000J0D01*
G01*
X3347400Y-2463800D02*
G75*
G03*
X3347400Y-2463800I-20000J0D01*
G01*
X3398200Y-6235700D02*
G75*
G03*
X3398200Y-6235700I-20000J0D01*
G01*
X3423600Y-4013200D02*
G75*
G03*
X3423600Y-4013200I-20000J0D01*
G01*
X3438269Y-2637787D02*
G75*
G03*
X3438269Y-2637787I-20000J0D01*
G01*
X3451584Y-3275814D02*
G75*
G03*
X3451584Y-3275814I-20000J0D01*
G01*
X3453660Y-2908205D02*
G75*
G03*
X3453660Y-2908205I-20000J0D01*
G01*
X3499800Y-2463800D02*
G75*
G03*
X3499800Y-2463800I-20000J0D01*
G01*
X3525200Y-4013200D02*
G75*
G03*
X3525200Y-4013200I-20000J0D01*
G01*
X3576000Y-6527800D02*
G75*
G03*
X3576000Y-6527800I-20000J0D01*
G01*
X3588700Y-6273800D02*
G75*
G03*
X3588700Y-6273800I-20000J0D01*
G01*
X3597965Y-4927600D02*
G75*
G03*
X3597965Y-4927600I-20000J0D01*
G01*
X3652200Y-5753995D02*
G75*
G03*
X3652200Y-5753995I-20000J0D01*
G01*
X3677600Y-5625205D02*
G75*
G03*
X3677600Y-5625205I-20000J0D01*
G01*
X3753800Y-6019800D02*
G75*
G03*
X3753800Y-6019800I-20000J0D01*
G01*
X3804600Y-2032000D02*
G75*
G03*
X3804600Y-2032000I-20000J0D01*
G01*
X3828530Y-5236350D02*
G75*
G03*
X3828530Y-5236350I-20000J0D01*
G01*
X3855400Y-8140700D02*
G75*
G03*
X3855400Y-8140700I-20000J0D01*
G01*
X3860658Y-2872825D02*
G75*
G03*
X3860658Y-2872825I-20000J0D01*
G01*
X3862101Y-3370515D02*
G75*
G03*
X3862101Y-3370515I-20000J0D01*
G01*
X3880800Y-3962400D02*
G75*
G03*
X3880800Y-3962400I-20000J0D01*
G01*
X3923821Y-3651458D02*
G75*
G03*
X3923821Y-3651458I-20000J0D01*
G01*
X3957000Y-4266305D02*
G75*
G03*
X3957000Y-4266305I-20000J0D01*
G01*
X3981489Y-2116642D02*
G75*
G03*
X3981489Y-2116642I-20000J0D01*
G01*
X3982400Y-1879600D02*
G75*
G03*
X3982400Y-1879600I-20000J0D01*
G01*
X3995100Y-5473700D02*
G75*
G03*
X3995100Y-5473700I-20000J0D01*
G01*
X3995100Y-5613400D02*
G75*
G03*
X3995100Y-5613400I-20000J0D01*
G01*
X4109400Y-4266305D02*
G75*
G03*
X4109400Y-4266305I-20000J0D01*
G01*
X4287200Y-1879600D02*
G75*
G03*
X4287200Y-1879600I-20000J0D01*
G01*
X4363400Y-9245600D02*
G75*
G03*
X4363400Y-9245600I-20000J0D01*
G01*
X4963583Y-4267200D02*
G75*
G03*
X4963583Y-4267200I-20000J0D01*
G01*
X4973000Y-1689100D02*
G75*
G03*
X4973000Y-1689100I-20000J0D01*
G01*
X5100000Y-1689100D02*
G75*
G03*
X5100000Y-1689100I-20000J0D01*
G01*
X5135069Y-4279900D02*
G75*
G03*
X5135069Y-4279900I-20000J0D01*
G01*
X5227000Y-1676400D02*
G75*
G03*
X5227000Y-1676400I-20000J0D01*
G01*
X5252400Y-4038600D02*
G75*
G03*
X5252400Y-4038600I-20000J0D01*
G01*
X5424335Y-2449950D02*
G75*
G03*
X5424335Y-2449950I-20000J0D01*
G01*
X5579465Y-2324995D02*
G75*
G03*
X5579465Y-2324995I-20000J0D01*
G01*
X5785800Y-2387600D02*
G75*
G03*
X5785800Y-2387600I-20000J0D01*
G01*
X5785800Y-2540000D02*
G75*
G03*
X5785800Y-2540000I-20000J0D01*
G01*
X5862000Y-9182995D02*
G75*
G03*
X5862000Y-9182995I-20000J0D01*
G01*
X6166800Y-8940800D02*
G75*
G03*
X6166800Y-8940800I-20000J0D01*
G01*
X6192200Y-3606800D02*
G75*
G03*
X6192200Y-3606800I-20000J0D01*
G01*
X6192200Y-3708400D02*
G75*
G03*
X6192200Y-3708400I-20000J0D01*
G01*
X6192200Y-3810000D02*
G75*
G03*
X6192200Y-3810000I-20000J0D01*
G01*
X6293800Y-3606800D02*
G75*
G03*
X6293800Y-3606800I-20000J0D01*
G01*
X6293800Y-3708400D02*
G75*
G03*
X6293800Y-3708400I-20000J0D01*
G01*
X6293800Y-3810000D02*
G75*
G03*
X6293800Y-3810000I-20000J0D01*
G01*
X6433500Y-3365500D02*
G75*
G03*
X6433500Y-3365500I-20000J0D01*
G01*
X6433500Y-4089400D02*
G75*
G03*
X6433500Y-4089400I-20000J0D01*
G01*
X6624000Y-3327400D02*
G75*
G03*
X6624000Y-3327400I-20000J0D01*
G01*
X6814500Y-4343400D02*
G75*
G03*
X6814500Y-4343400I-20000J0D01*
G01*
X6839900Y-4243438D02*
G75*
G03*
X6839900Y-4243438I-20000J0D01*
G01*
X6839900Y-4559300D02*
G75*
G03*
X6839900Y-4559300I-20000J0D01*
G01*
X6852600Y-3454400D02*
G75*
G03*
X6852600Y-3454400I-20000J0D01*
G01*
X6878000Y-4445000D02*
G75*
G03*
X6878000Y-4445000I-20000J0D01*
G01*
X6878000Y-4673600D02*
G75*
G03*
X6878000Y-4673600I-20000J0D01*
G01*
X6903400Y-4318000D02*
G75*
G03*
X6903400Y-4318000I-20000J0D01*
G01*
X6926585Y-4034461D02*
G75*
G03*
X6926585Y-4034461I-20000J0D01*
G01*
X7019182Y-3689790D02*
G75*
G03*
X7019182Y-3689790I-20000J0D01*
G01*
X7246300Y-5435600D02*
G75*
G03*
X7246300Y-5435600I-20000J0D01*
G01*
X7373300Y-6096000D02*
G75*
G03*
X7373300Y-6096000I-20000J0D01*
G01*
X7424100Y-3886200D02*
G75*
G03*
X7424100Y-3886200I-20000J0D01*
G01*
X7474900Y-4953000D02*
G75*
G03*
X7474900Y-4953000I-20000J0D01*
G01*
X7474900Y-5486400D02*
G75*
G03*
X7474900Y-5486400I-20000J0D01*
G01*
X7525700Y-5842000D02*
G75*
G03*
X7525700Y-5842000I-20000J0D01*
G01*
X7525700Y-5969000D02*
G75*
G03*
X7525700Y-5969000I-20000J0D01*
G01*
X7525700Y-6096000D02*
G75*
G03*
X7525700Y-6096000I-20000J0D01*
G01*
X7538400Y-4470400D02*
G75*
G03*
X7538400Y-4470400I-20000J0D01*
G01*
X7538400Y-4572000D02*
G75*
G03*
X7538400Y-4572000I-20000J0D01*
G01*
X7538400Y-4673600D02*
G75*
G03*
X7538400Y-4673600I-20000J0D01*
G01*
X7538400Y-4775200D02*
G75*
G03*
X7538400Y-4775200I-20000J0D01*
G01*
X7640000Y-4470400D02*
G75*
G03*
X7640000Y-4470400I-20000J0D01*
G01*
X7640000Y-4572000D02*
G75*
G03*
X7640000Y-4572000I-20000J0D01*
G01*
X7640000Y-4673600D02*
G75*
G03*
X7640000Y-4673600I-20000J0D01*
G01*
X7640000Y-4775200D02*
G75*
G03*
X7640000Y-4775200I-20000J0D01*
G01*
X7652700Y-4940300D02*
G75*
G03*
X7652700Y-4940300I-20000J0D01*
G01*
X7652700Y-5842000D02*
G75*
G03*
X7652700Y-5842000I-20000J0D01*
G01*
X7652700Y-5969000D02*
G75*
G03*
X7652700Y-5969000I-20000J0D01*
G01*
X7652700Y-6096000D02*
G75*
G03*
X7652700Y-6096000I-20000J0D01*
G01*
X7728900Y-7683500D02*
G75*
G03*
X7728900Y-7683500I-20000J0D01*
G01*
X7741600Y-4470400D02*
G75*
G03*
X7741600Y-4470400I-20000J0D01*
G01*
X7741600Y-4572000D02*
G75*
G03*
X7741600Y-4572000I-20000J0D01*
G01*
X7741600Y-4673600D02*
G75*
G03*
X7741600Y-4673600I-20000J0D01*
G01*
X7741600Y-4775200D02*
G75*
G03*
X7741600Y-4775200I-20000J0D01*
G01*
X7741600Y-5384800D02*
G75*
G03*
X7741600Y-5384800I-20000J0D01*
G01*
X7792400Y-9169400D02*
G75*
G03*
X7792400Y-9169400I-20000J0D01*
G01*
X7817800Y-3797300D02*
G75*
G03*
X7817800Y-3797300I-20000J0D01*
G01*
X7843200Y-4572000D02*
G75*
G03*
X7843200Y-4572000I-20000J0D01*
G01*
X7843200Y-4673600D02*
G75*
G03*
X7843200Y-4673600I-20000J0D01*
G01*
X7843200Y-4775200D02*
G75*
G03*
X7843200Y-4775200I-20000J0D01*
G01*
X7855900Y-4940300D02*
G75*
G03*
X7855900Y-4940300I-20000J0D01*
G01*
X7982900Y-8737600D02*
G75*
G03*
X7982900Y-8737600I-20000J0D01*
G01*
X7995600Y-7975600D02*
G75*
G03*
X7995600Y-7975600I-20000J0D01*
G01*
X7995600Y-8089900D02*
G75*
G03*
X7995600Y-8089900I-20000J0D01*
G01*
X8008300Y-7327900D02*
G75*
G03*
X8008300Y-7327900I-20000J0D01*
G01*
X8071800Y-4191000D02*
G75*
G03*
X8071800Y-4191000I-20000J0D01*
G01*
X8122600Y-4368800D02*
G75*
G03*
X8122600Y-4368800I-20000J0D01*
G01*
X8148000Y-6604000D02*
G75*
G03*
X8148000Y-6604000I-20000J0D01*
G01*
X8148000Y-6705600D02*
G75*
G03*
X8148000Y-6705600I-20000J0D01*
G01*
X8148000Y-7975600D02*
G75*
G03*
X8148000Y-7975600I-20000J0D01*
G01*
X8148000Y-8089900D02*
G75*
G03*
X8148000Y-8089900I-20000J0D01*
G01*
X8300400Y-6604000D02*
G75*
G03*
X8300400Y-6604000I-20000J0D01*
G01*
X8300400Y-6705600D02*
G75*
G03*
X8300400Y-6705600I-20000J0D01*
G01*
X8325800Y-7658100D02*
G75*
G03*
X8325800Y-7658100I-20000J0D01*
G01*
X8376600Y-8953500D02*
G75*
G03*
X8376600Y-8953500I-20000J0D01*
G01*
X8402000Y-7747000D02*
G75*
G03*
X8402000Y-7747000I-20000J0D01*
G01*
X8440100Y-8191500D02*
G75*
G03*
X8440100Y-8191500I-20000J0D01*
G01*
X8452800Y-6604000D02*
G75*
G03*
X8452800Y-6604000I-20000J0D01*
G01*
X8452800Y-6705600D02*
G75*
G03*
X8452800Y-6705600I-20000J0D01*
G01*
X8452800Y-7493000D02*
G75*
G03*
X8452800Y-7493000I-20000J0D01*
G01*
X8470580Y-1587500D02*
G75*
G03*
X8470580Y-1587500I-20000J0D01*
G01*
X8516300Y-5740400D02*
G75*
G03*
X8516300Y-5740400I-20000J0D01*
G01*
X8529000Y-1473200D02*
G75*
G03*
X8529000Y-1473200I-20000J0D01*
G01*
X8554400Y-4318000D02*
G75*
G03*
X8554400Y-4318000I-20000J0D01*
G01*
X8567100Y-7493000D02*
G75*
G03*
X8567100Y-7493000I-20000J0D01*
G01*
X8605200Y-6604000D02*
G75*
G03*
X8605200Y-6604000I-20000J0D01*
G01*
X8605200Y-6705600D02*
G75*
G03*
X8605200Y-6705600I-20000J0D01*
G01*
X8617900Y-8750300D02*
G75*
G03*
X8617900Y-8750300I-20000J0D01*
G01*
X8649056Y-8145616D02*
G75*
G03*
X8649056Y-8145616I-20000J0D01*
G01*
X8651983Y-8307329D02*
G75*
G03*
X8651983Y-8307329I-20000J0D01*
G01*
X8656590Y-7645400D02*
G75*
G03*
X8656590Y-7645400I-20000J0D01*
G01*
X8668700Y-6400800D02*
G75*
G03*
X8668700Y-6400800I-20000J0D01*
G01*
X8706800Y-4318000D02*
G75*
G03*
X8706800Y-4318000I-20000J0D01*
G01*
X8706800Y-8547100D02*
G75*
G03*
X8706800Y-8547100I-20000J0D01*
G01*
X8729113Y-5646668D02*
G75*
G03*
X8729113Y-5646668I-20000J0D01*
G01*
X8808400Y-4064000D02*
G75*
G03*
X8808400Y-4064000I-20000J0D01*
G01*
X8821100Y-4775200D02*
G75*
G03*
X8821100Y-4775200I-20000J0D01*
G01*
X8821100Y-5372100D02*
G75*
G03*
X8821100Y-5372100I-20000J0D01*
G01*
X8821100Y-6844405D02*
G75*
G03*
X8821100Y-6844405I-20000J0D01*
G01*
X8859200Y-4318000D02*
G75*
G03*
X8859200Y-4318000I-20000J0D01*
G01*
X8897300Y-7480300D02*
G75*
G03*
X8897300Y-7480300I-20000J0D01*
G01*
X9003980Y-1485900D02*
G75*
G03*
X9003980Y-1485900I-20000J0D01*
G01*
X9003980Y-1612900D02*
G75*
G03*
X9003980Y-1612900I-20000J0D01*
G01*
X9011600Y-4057390D02*
G75*
G03*
X9011600Y-4057390I-20000J0D01*
G01*
X9011600Y-4318000D02*
G75*
G03*
X9011600Y-4318000I-20000J0D01*
G01*
X9023779Y-8698605D02*
G75*
G03*
X9023779Y-8698605I-20000J0D01*
G01*
X9024300Y-4775200D02*
G75*
G03*
X9024300Y-4775200I-20000J0D01*
G01*
X9024300Y-5372100D02*
G75*
G03*
X9024300Y-5372100I-20000J0D01*
G01*
X9024300Y-6056370D02*
G75*
G03*
X9024300Y-6056370I-20000J0D01*
G01*
X9024300Y-6845300D02*
G75*
G03*
X9024300Y-6845300I-20000J0D01*
G01*
X9124985Y-6033818D02*
G75*
G03*
X9124985Y-6033818I-20000J0D01*
G01*
X9141743Y-6345079D02*
G75*
G03*
X9141743Y-6345079I-20000J0D01*
G01*
X9164000Y-4318000D02*
G75*
G03*
X9164000Y-4318000I-20000J0D01*
G01*
X9189400Y-6807200D02*
G75*
G03*
X9189400Y-6807200I-20000J0D01*
G01*
X9202100Y-4191000D02*
G75*
G03*
X9202100Y-4191000I-20000J0D01*
G01*
X9202100Y-4724400D02*
G75*
G03*
X9202100Y-4724400I-20000J0D01*
G01*
X9202100Y-5346700D02*
G75*
G03*
X9202100Y-5346700I-20000J0D01*
G01*
X9214800Y-7658100D02*
G75*
G03*
X9214800Y-7658100I-20000J0D01*
G01*
X9278300Y-4787900D02*
G75*
G03*
X9278300Y-4787900I-20000J0D01*
G01*
X9278300Y-7835900D02*
G75*
G03*
X9278300Y-7835900I-20000J0D01*
G01*
X9329100Y-5372100D02*
G75*
G03*
X9329100Y-5372100I-20000J0D01*
G01*
X9367200Y-4191000D02*
G75*
G03*
X9367200Y-4191000I-20000J0D01*
G01*
X9379810Y-7886176D02*
G75*
G03*
X9379810Y-7886176I-20000J0D01*
G01*
X9418000Y-9067800D02*
G75*
G03*
X9418000Y-9067800I-20000J0D01*
G01*
X9456100Y-2108200D02*
G75*
G03*
X9456100Y-2108200I-20000J0D01*
G01*
X9468800Y-2730500D02*
G75*
G03*
X9468800Y-2730500I-20000J0D01*
G01*
X9575480Y-1587500D02*
G75*
G03*
X9575480Y-1587500I-20000J0D01*
G01*
X9595800Y-2730500D02*
G75*
G03*
X9595800Y-2730500I-20000J0D01*
G01*
X9595800Y-2946400D02*
G75*
G03*
X9595800Y-2946400I-20000J0D01*
G01*
X9710100Y-6350000D02*
G75*
G03*
X9710100Y-6350000I-20000J0D01*
G01*
X9900600Y-9067800D02*
G75*
G03*
X9900600Y-9067800I-20000J0D01*
G01*
X9900600Y-9220200D02*
G75*
G03*
X9900600Y-9220200I-20000J0D01*
G01*
X9925030Y-4188096D02*
G75*
G03*
X9925030Y-4188096I-20000J0D01*
G01*
X9927221Y-6158694D02*
G75*
G03*
X9927221Y-6158694I-20000J0D01*
G01*
X9938038Y-4530348D02*
G75*
G03*
X9938038Y-4530348I-20000J0D01*
G01*
X9940710Y-5097623D02*
G75*
G03*
X9940710Y-5097623I-20000J0D01*
G01*
X9951400Y-4826000D02*
G75*
G03*
X9951400Y-4826000I-20000J0D01*
G01*
X9951400Y-6409163D02*
G75*
G03*
X9951400Y-6409163I-20000J0D01*
G01*
X9976800Y-5397500D02*
G75*
G03*
X9976800Y-5397500I-20000J0D01*
G01*
X10002200Y-3733800D02*
G75*
G03*
X10002200Y-3733800I-20000J0D01*
G01*
X10027600Y-9067800D02*
G75*
G03*
X10027600Y-9067800I-20000J0D01*
G01*
X10027600Y-9220200D02*
G75*
G03*
X10027600Y-9220200I-20000J0D01*
G01*
X10103800Y-2730500D02*
G75*
G03*
X10103800Y-2730500I-20000J0D01*
G01*
X10154600Y-8940800D02*
G75*
G03*
X10154600Y-8940800I-20000J0D01*
G01*
X10154600Y-9067800D02*
G75*
G03*
X10154600Y-9067800I-20000J0D01*
G01*
X10154600Y-9220200D02*
G75*
G03*
X10154600Y-9220200I-20000J0D01*
G01*
X10167300Y-4501890D02*
G75*
G03*
X10167300Y-4501890I-20000J0D01*
G01*
X10167300Y-5068310D02*
G75*
G03*
X10167300Y-5068310I-20000J0D01*
G01*
X10167300Y-6061450D02*
G75*
G03*
X10167300Y-6061450I-20000J0D01*
G01*
X10167300Y-6362700D02*
G75*
G03*
X10167300Y-6362700I-20000J0D01*
G01*
X10180000Y-3008890D02*
G75*
G03*
X10180000Y-3008890I-20000J0D01*
G01*
X10180000Y-3683000D02*
G75*
G03*
X10180000Y-3683000I-20000J0D01*
G01*
X10281600Y-8940800D02*
G75*
G03*
X10281600Y-8940800I-20000J0D01*
G01*
X10281600Y-9067800D02*
G75*
G03*
X10281600Y-9067800I-20000J0D01*
G01*
X10281600Y-9220200D02*
G75*
G03*
X10281600Y-9220200I-20000J0D01*
G01*
X10370500Y-4501890D02*
G75*
G03*
X10370500Y-4501890I-20000J0D01*
G01*
X10370500Y-5068310D02*
G75*
G03*
X10370500Y-5068310I-20000J0D01*
G01*
X10383200Y-3683000D02*
G75*
G03*
X10383200Y-3683000I-20000J0D01*
G01*
X10395900Y-8046561D02*
G75*
G03*
X10395900Y-8046561I-20000J0D01*
G01*
X10408600Y-9220200D02*
G75*
G03*
X10408600Y-9220200I-20000J0D01*
G01*
X10421300Y-8953500D02*
G75*
G03*
X10421300Y-8953500I-20000J0D01*
G01*
X10421300Y-9042400D02*
G75*
G03*
X10421300Y-9042400I-20000J0D01*
G01*
X10535600Y-3860800D02*
G75*
G03*
X10535600Y-3860800I-20000J0D01*
G01*
X10535600Y-3962400D02*
G75*
G03*
X10535600Y-3962400I-20000J0D01*
G01*
X10535600Y-4737100D02*
G75*
G03*
X10535600Y-4737100I-20000J0D01*
G01*
X10535600Y-4978400D02*
G75*
G03*
X10535600Y-4978400I-20000J0D01*
G01*
X10535600Y-5080000D02*
G75*
G03*
X10535600Y-5080000I-20000J0D01*
G01*
X10535600Y-5181600D02*
G75*
G03*
X10535600Y-5181600I-20000J0D01*
G01*
X10535600Y-5295900D02*
G75*
G03*
X10535600Y-5295900I-20000J0D01*
G01*
X10535600Y-9220200D02*
G75*
G03*
X10535600Y-9220200I-20000J0D01*
G01*
X10561000Y-4140200D02*
G75*
G03*
X10561000Y-4140200I-20000J0D01*
G01*
X10573700Y-8959450D02*
G75*
G03*
X10573700Y-8959450I-20000J0D01*
G01*
X10637200Y-3302000D02*
G75*
G03*
X10637200Y-3302000I-20000J0D01*
G01*
X10637200Y-3860800D02*
G75*
G03*
X10637200Y-3860800I-20000J0D01*
G01*
X10637200Y-3962400D02*
G75*
G03*
X10637200Y-3962400I-20000J0D01*
G01*
X10637200Y-4978400D02*
G75*
G03*
X10637200Y-4978400I-20000J0D01*
G01*
X10637200Y-5080000D02*
G75*
G03*
X10637200Y-5080000I-20000J0D01*
G01*
X10637200Y-5181600D02*
G75*
G03*
X10637200Y-5181600I-20000J0D01*
G01*
X10662600Y-9220200D02*
G75*
G03*
X10662600Y-9220200I-20000J0D01*
G01*
X10681204Y-8321199D02*
G75*
G03*
X10681204Y-8321199I-20000J0D01*
G01*
X10726100Y-6629400D02*
G75*
G03*
X10726100Y-6629400I-20000J0D01*
G01*
X10738800Y-3860800D02*
G75*
G03*
X10738800Y-3860800I-20000J0D01*
G01*
X10738800Y-3962400D02*
G75*
G03*
X10738800Y-3962400I-20000J0D01*
G01*
X10738800Y-4978400D02*
G75*
G03*
X10738800Y-4978400I-20000J0D01*
G01*
X10738800Y-5080000D02*
G75*
G03*
X10738800Y-5080000I-20000J0D01*
G01*
X10738800Y-5181600D02*
G75*
G03*
X10738800Y-5181600I-20000J0D01*
G01*
X10738800Y-6357779D02*
G75*
G03*
X10738800Y-6357779I-20000J0D01*
G01*
X10764200Y-965200D02*
G75*
G03*
X10764200Y-965200I-20000J0D01*
G01*
X10789600Y-9220200D02*
G75*
G03*
X10789600Y-9220200I-20000J0D01*
G01*
X10815000Y-7531100D02*
G75*
G03*
X10815000Y-7531100I-20000J0D01*
G01*
X10827700Y-7797800D02*
G75*
G03*
X10827700Y-7797800I-20000J0D01*
G01*
X10827700Y-7924800D02*
G75*
G03*
X10827700Y-7924800I-20000J0D01*
G01*
X10878500Y-1511300D02*
G75*
G03*
X10878500Y-1511300I-20000J0D01*
G01*
X10891200Y-8547100D02*
G75*
G03*
X10891200Y-8547100I-20000J0D01*
G01*
X10916600Y-9220200D02*
G75*
G03*
X10916600Y-9220200I-20000J0D01*
G01*
X10929300Y-9067800D02*
G75*
G03*
X10929300Y-9067800I-20000J0D01*
G01*
X10942000Y-1003300D02*
G75*
G03*
X10942000Y-1003300I-20000J0D01*
G01*
X10967400Y-7531100D02*
G75*
G03*
X10967400Y-7531100I-20000J0D01*
G01*
X10967400Y-7797800D02*
G75*
G03*
X10967400Y-7797800I-20000J0D01*
G01*
X10967400Y-7924800D02*
G75*
G03*
X10967400Y-7924800I-20000J0D01*
G01*
X10992800Y-8940800D02*
G75*
G03*
X10992800Y-8940800I-20000J0D01*
G01*
X11043600Y-9220200D02*
G75*
G03*
X11043600Y-9220200I-20000J0D01*
G01*
X11119800Y-6616700D02*
G75*
G03*
X11119800Y-6616700I-20000J0D01*
G01*
X11119800Y-7797800D02*
G75*
G03*
X11119800Y-7797800I-20000J0D01*
G01*
X11119800Y-7924800D02*
G75*
G03*
X11119800Y-7924800I-20000J0D01*
G01*
X11119800Y-8940800D02*
G75*
G03*
X11119800Y-8940800I-20000J0D01*
G01*
X11133000Y-7528000D02*
G75*
G03*
X11133000Y-7528000I-20000J0D01*
G01*
X11145200Y-1574800D02*
G75*
G03*
X11145200Y-1574800I-20000J0D01*
G01*
X11208700Y-6187909D02*
G75*
G03*
X11208700Y-6187909I-20000J0D01*
G01*
X11221400Y-1358900D02*
G75*
G03*
X11221400Y-1358900I-20000J0D01*
G01*
X11246800Y-7912100D02*
G75*
G03*
X11246800Y-7912100I-20000J0D01*
G01*
X11246800Y-8046561D02*
G75*
G03*
X11246800Y-8046561I-20000J0D01*
G01*
X11335700Y-6880970D02*
G75*
G03*
X11335700Y-6880970I-20000J0D01*
G01*
X11411900Y-8394700D02*
G75*
G03*
X11411900Y-8394700I-20000J0D01*
G01*
X11500800Y-6616700D02*
G75*
G03*
X11500800Y-6616700I-20000J0D01*
G01*
X11508301Y-6357501D02*
G75*
G03*
X11508301Y-6357501I-20000J0D01*
G01*
X11551600Y-3403600D02*
G75*
G03*
X11551600Y-3403600I-20000J0D01*
G01*
X11551600Y-8382000D02*
G75*
G03*
X11551600Y-8382000I-20000J0D01*
G01*
X11602400Y-9029700D02*
G75*
G03*
X11602400Y-9029700I-20000J0D01*
G01*
X11640500Y-8026400D02*
G75*
G03*
X11640500Y-8026400I-20000J0D01*
G01*
X11653200Y-8347750D02*
G75*
G03*
X11653200Y-8347750I-20000J0D01*
G01*
X11665900Y-6883400D02*
G75*
G03*
X11665900Y-6883400I-20000J0D01*
G01*
X11665900Y-7031610D02*
G75*
G03*
X11665900Y-7031610I-20000J0D01*
G01*
X11733765Y-8027343D02*
G75*
G03*
X11733765Y-8027343I-20000J0D01*
G01*
X11742100Y-9017000D02*
G75*
G03*
X11742100Y-9017000I-20000J0D01*
G01*
X11767500Y-8521950D02*
G75*
G03*
X11767500Y-8521950I-20000J0D01*
G01*
X11792900Y-7031610D02*
G75*
G03*
X11792900Y-7031610I-20000J0D01*
G01*
X11850190Y-7986653D02*
G75*
G03*
X11850190Y-7986653I-20000J0D01*
G01*
X11869100Y-8321199D02*
G75*
G03*
X11869100Y-8321199I-20000J0D01*
G01*
X11970700Y-8492050D02*
G75*
G03*
X11970700Y-8492050I-20000J0D01*
G01*
X12066232Y-7871510D02*
G75*
G03*
X12066232Y-7871510I-20000J0D01*
G01*
X12068064Y-7031611D02*
G75*
G03*
X12068064Y-7031611I-20000J0D01*
G01*
X12085000Y-1295400D02*
G75*
G03*
X12085000Y-1295400I-20000J0D01*
G01*
X12123100Y-7620000D02*
G75*
G03*
X12123100Y-7620000I-20000J0D01*
G01*
X12186600Y-1041400D02*
G75*
G03*
X12186600Y-1041400I-20000J0D01*
G01*
X12262800Y-2717800D02*
G75*
G03*
X12262800Y-2717800I-20000J0D01*
G01*
X12262800Y-2895600D02*
G75*
G03*
X12262800Y-2895600I-20000J0D01*
G01*
X12275500Y-7277100D02*
G75*
G03*
X12275500Y-7277100I-20000J0D01*
G01*
X12364400Y-8178800D02*
G75*
G03*
X12364400Y-8178800I-20000J0D01*
G01*
X12516800Y-8585200D02*
G75*
G03*
X12516800Y-8585200I-20000J0D01*
G01*
X12529500Y-8178800D02*
G75*
G03*
X12529500Y-8178800I-20000J0D01*
G01*
X12618400Y-7277100D02*
G75*
G03*
X12618400Y-7277100I-20000J0D01*
G01*
X12631100Y-6197600D02*
G75*
G03*
X12631100Y-6197600I-20000J0D01*
G01*
X12656500Y-8572500D02*
G75*
G03*
X12656500Y-8572500I-20000J0D01*
G01*
X12669200Y-1587500D02*
G75*
G03*
X12669200Y-1587500I-20000J0D01*
G01*
X12669200Y-2425700D02*
G75*
G03*
X12669200Y-2425700I-20000J0D01*
G01*
X12694600Y-6946900D02*
G75*
G03*
X12694600Y-6946900I-20000J0D01*
G01*
X12770800Y-3251200D02*
G75*
G03*
X12770800Y-3251200I-20000J0D01*
G01*
X12821600Y-3454400D02*
G75*
G03*
X12821600Y-3454400I-20000J0D01*
G01*
X12821600Y-6959600D02*
G75*
G03*
X12821600Y-6959600I-20000J0D01*
G01*
X12834300Y-8610600D02*
G75*
G03*
X12834300Y-8610600I-20000J0D01*
G01*
X12897800Y-2603500D02*
G75*
G03*
X12897800Y-2603500I-20000J0D01*
G01*
X12910500Y-6477000D02*
G75*
G03*
X12910500Y-6477000I-20000J0D01*
G01*
X12935900Y-8648700D02*
G75*
G03*
X12935900Y-8648700I-20000J0D01*
G01*
X12935900Y-8788400D02*
G75*
G03*
X12935900Y-8788400I-20000J0D01*
G01*
X12935900Y-8928100D02*
G75*
G03*
X12935900Y-8928100I-20000J0D01*
G01*
X12936012Y-9054988D02*
G75*
G03*
X12936012Y-9054988I-20000J0D01*
G01*
X12936921Y-8421406D02*
G75*
G03*
X12936921Y-8421406I-20000J0D01*
G01*
X12974000Y-3454400D02*
G75*
G03*
X12974000Y-3454400I-20000J0D01*
G01*
X13024800Y-2489200D02*
G75*
G03*
X13024800Y-2489200I-20000J0D01*
G01*
X13024800Y-7010400D02*
G75*
G03*
X13024800Y-7010400I-20000J0D01*
G01*
X13050200Y-1498600D02*
G75*
G03*
X13050200Y-1498600I-20000J0D01*
G01*
X13101000Y-6299200D02*
G75*
G03*
X13101000Y-6299200I-20000J0D01*
G01*
X13151800Y-6997700D02*
G75*
G03*
X13151800Y-6997700I-20000J0D01*
G01*
X13177200Y-3454400D02*
G75*
G03*
X13177200Y-3454400I-20000J0D01*
G01*
X13228000Y-6197600D02*
G75*
G03*
X13228000Y-6197600I-20000J0D01*
G01*
X13266100Y-1498600D02*
G75*
G03*
X13266100Y-1498600I-20000J0D01*
G01*
X13278800Y-3352800D02*
G75*
G03*
X13278800Y-3352800I-20000J0D01*
G01*
X13291500Y-2362200D02*
G75*
G03*
X13291500Y-2362200I-20000J0D01*
G01*
X13431200Y-8420100D02*
G75*
G03*
X13431200Y-8420100I-20000J0D01*
G01*
X13456600Y-6193390D02*
G75*
G03*
X13456600Y-6193390I-20000J0D01*
G01*
X13482000Y-3505200D02*
G75*
G03*
X13482000Y-3505200I-20000J0D01*
G01*
X13501100Y-8836480D02*
G75*
G03*
X13501100Y-8836480I-20000J0D01*
G01*
X13532800Y-3403600D02*
G75*
G03*
X13532800Y-3403600I-20000J0D01*
G01*
X13532800Y-8534400D02*
G75*
G03*
X13532800Y-8534400I-20000J0D01*
G01*
X13532800Y-8636000D02*
G75*
G03*
X13532800Y-8636000I-20000J0D01*
G01*
X13634400Y-8331200D02*
G75*
G03*
X13634400Y-8331200I-20000J0D01*
G01*
X13647100Y-1003300D02*
G75*
G03*
X13647100Y-1003300I-20000J0D01*
G01*
X13647100Y-1282700D02*
G75*
G03*
X13647100Y-1282700I-20000J0D01*
G01*
X13837600Y-8509000D02*
G75*
G03*
X13837600Y-8509000I-20000J0D01*
G01*
X13837600Y-8597900D02*
G75*
G03*
X13837600Y-8597900I-20000J0D01*
G01*
X13859660Y-8966480D02*
G75*
G03*
X13859660Y-8966480I-20000J0D01*
G01*
X13939200Y-1003300D02*
G75*
G03*
X13939200Y-1003300I-20000J0D01*
G01*
X13972150Y-1282700D02*
G75*
G03*
X13972150Y-1282700I-20000J0D01*
G01*
X13990000Y-2590800D02*
G75*
G03*
X13990000Y-2590800I-20000J0D01*
G01*
X13990000Y-2975350D02*
G75*
G03*
X13990000Y-2975350I-20000J0D01*
G01*
X13990000Y-3120650D02*
G75*
G03*
X13990000Y-3120650I-20000J0D01*
G01*
X13990000Y-3505200D02*
G75*
G03*
X13990000Y-3505200I-20000J0D01*
G01*
X13990000Y-6134100D02*
G75*
G03*
X13990000Y-6134100I-20000J0D01*
G01*
X13990000Y-6565900D02*
G75*
G03*
X13990000Y-6565900I-20000J0D01*
G01*
X14167800Y-1003300D02*
G75*
G03*
X14167800Y-1003300I-20000J0D01*
G01*
X14167800Y-1282700D02*
G75*
G03*
X14167800Y-1282700I-20000J0D01*
G01*
X14193200Y-9309100D02*
G75*
G03*
X14193200Y-9309100I-20000J0D01*
G01*
X14244000Y-3086100D02*
G75*
G03*
X14244000Y-3086100I-20000J0D01*
G01*
X14244000Y-3505200D02*
G75*
G03*
X14244000Y-3505200I-20000J0D01*
G01*
X14244000Y-6134100D02*
G75*
G03*
X14244000Y-6134100I-20000J0D01*
G01*
X14244000Y-6565900D02*
G75*
G03*
X14244000Y-6565900I-20000J0D01*
G01*
X14277127Y-8838075D02*
G75*
G03*
X14277127Y-8838075I-20000J0D01*
G01*
X14345600Y-8674100D02*
G75*
G03*
X14345600Y-8674100I-20000J0D01*
G01*
X14345600Y-9309100D02*
G75*
G03*
X14345600Y-9309100I-20000J0D01*
G01*
X14383700Y-8204200D02*
G75*
G03*
X14383700Y-8204200I-20000J0D01*
G01*
X14421800Y-7924800D02*
G75*
G03*
X14421800Y-7924800I-20000J0D01*
G01*
X14434500Y-7607300D02*
G75*
G03*
X14434500Y-7607300I-20000J0D01*
G01*
X14472600Y-1003300D02*
G75*
G03*
X14472600Y-1003300I-20000J0D01*
G01*
X14472600Y-1282700D02*
G75*
G03*
X14472600Y-1282700I-20000J0D01*
G01*
X14498000Y-2603500D02*
G75*
G03*
X14498000Y-2603500I-20000J0D01*
G01*
X14498000Y-3009900D02*
G75*
G03*
X14498000Y-3009900I-20000J0D01*
G01*
X14498000Y-3111500D02*
G75*
G03*
X14498000Y-3111500I-20000J0D01*
G01*
X14498000Y-3505200D02*
G75*
G03*
X14498000Y-3505200I-20000J0D01*
G01*
X14498000Y-6134100D02*
G75*
G03*
X14498000Y-6134100I-20000J0D01*
G01*
X14498000Y-6565900D02*
G75*
G03*
X14498000Y-6565900I-20000J0D01*
G01*
X14498000Y-6654800D02*
G75*
G03*
X14498000Y-6654800I-20000J0D01*
G01*
X14498000Y-7061200D02*
G75*
G03*
X14498000Y-7061200I-20000J0D01*
G01*
X14498000Y-8077200D02*
G75*
G03*
X14498000Y-8077200I-20000J0D01*
G01*
X14498000Y-8585200D02*
G75*
G03*
X14498000Y-8585200I-20000J0D01*
G01*
X14523400Y-7531100D02*
G75*
G03*
X14523400Y-7531100I-20000J0D01*
G01*
X14701200Y-9207500D02*
G75*
G03*
X14701200Y-9207500I-20000J0D01*
G01*
X14752000Y-3111500D02*
G75*
G03*
X14752000Y-3111500I-20000J0D01*
G01*
X14752000Y-3505200D02*
G75*
G03*
X14752000Y-3505200I-20000J0D01*
G01*
X14752000Y-6134100D02*
G75*
G03*
X14752000Y-6134100I-20000J0D01*
G01*
X14752000Y-6565900D02*
G75*
G03*
X14752000Y-6565900I-20000J0D01*
G01*
X14815500Y-1574800D02*
G75*
G03*
X14815500Y-1574800I-20000J0D01*
G01*
X14815500Y-1727200D02*
G75*
G03*
X14815500Y-1727200I-20000J0D01*
G01*
X14917100Y-2235200D02*
G75*
G03*
X14917100Y-2235200I-20000J0D01*
G01*
X14980600Y-977900D02*
G75*
G03*
X14980600Y-977900I-20000J0D01*
G01*
X15006000Y-2235200D02*
G75*
G03*
X15006000Y-2235200I-20000J0D01*
G01*
X15006000Y-3111500D02*
G75*
G03*
X15006000Y-3111500I-20000J0D01*
G01*
X15006000Y-3505200D02*
G75*
G03*
X15006000Y-3505200I-20000J0D01*
G01*
X15006000Y-6134100D02*
G75*
G03*
X15006000Y-6134100I-20000J0D01*
G01*
X15006000Y-6565900D02*
G75*
G03*
X15006000Y-6565900I-20000J0D01*
G01*
X15094900Y-2235200D02*
G75*
G03*
X15094900Y-2235200I-20000J0D01*
G01*
X15196500Y-977900D02*
G75*
G03*
X15196500Y-977900I-20000J0D01*
G01*
X15247300Y-7531100D02*
G75*
G03*
X15247300Y-7531100I-20000J0D01*
G01*
X15323500Y-7696200D02*
G75*
G03*
X15323500Y-7696200I-20000J0D01*
G01*
X15336200Y-8204200D02*
G75*
G03*
X15336200Y-8204200I-20000J0D01*
G01*
X15361600Y-1003300D02*
G75*
G03*
X15361600Y-1003300I-20000J0D01*
G01*
X15412400Y-7874000D02*
G75*
G03*
X15412400Y-7874000I-20000J0D01*
G01*
X15437800Y-838200D02*
G75*
G03*
X15437800Y-838200I-20000J0D01*
G01*
X15437800Y-8051800D02*
G75*
G03*
X15437800Y-8051800I-20000J0D01*
G01*
X15437800Y-9156700D02*
G75*
G03*
X15437800Y-9156700I-20000J0D01*
G01*
X15514000Y-1422400D02*
G75*
G03*
X15514000Y-1422400I-20000J0D01*
G01*
X15514000Y-1651000D02*
G75*
G03*
X15514000Y-1651000I-20000J0D01*
G01*
X15590200Y-2006600D02*
G75*
G03*
X15590200Y-2006600I-20000J0D01*
G01*
X15590200Y-2108200D02*
G75*
G03*
X15590200Y-2108200I-20000J0D01*
G01*
X15590200Y-2222500D02*
G75*
G03*
X15590200Y-2222500I-20000J0D01*
G01*
X15590200Y-2324100D02*
G75*
G03*
X15590200Y-2324100I-20000J0D01*
G01*
X15590200Y-2451100D02*
G75*
G03*
X15590200Y-2451100I-20000J0D01*
G01*
X15590200Y-2552700D02*
G75*
G03*
X15590200Y-2552700I-20000J0D01*
G01*
X15590200Y-2654300D02*
G75*
G03*
X15590200Y-2654300I-20000J0D01*
G01*
X15590200Y-2755900D02*
G75*
G03*
X15590200Y-2755900I-20000J0D01*
G01*
X15615600Y-1422400D02*
G75*
G03*
X15615600Y-1422400I-20000J0D01*
G01*
X15615600Y-1651000D02*
G75*
G03*
X15615600Y-1651000I-20000J0D01*
G01*
X15704500Y-2857500D02*
G75*
G03*
X15704500Y-2857500I-20000J0D01*
G01*
X15704500Y-2946400D02*
G75*
G03*
X15704500Y-2946400I-20000J0D01*
G01*
X15704500Y-3035300D02*
G75*
G03*
X15704500Y-3035300I-20000J0D01*
G01*
X15717200Y-1422400D02*
G75*
G03*
X15717200Y-1422400I-20000J0D01*
G01*
X15717200Y-1651000D02*
G75*
G03*
X15717200Y-1651000I-20000J0D01*
G01*
X15818800Y-1422400D02*
G75*
G03*
X15818800Y-1422400I-20000J0D01*
G01*
X15818800Y-1524000D02*
G75*
G03*
X15818800Y-1524000I-20000J0D01*
G01*
X15818800Y-1651000D02*
G75*
G03*
X15818800Y-1651000I-20000J0D01*
G01*
D14*
X153100Y-9416200D02*
X153100Y-9466200D01*
X128100Y-9441200D02*
X178100Y-9441200D01*
X154100Y-526200D02*
X154100Y-576200D01*
X129100Y-551200D02*
X179100Y-551200D01*
X212411Y-9273011D02*
X212411Y-9323011D01*
X187411Y-9298011D02*
X237411Y-9298011D01*
X212411Y-9559389D02*
X212411Y-9609389D01*
X187411Y-9584389D02*
X237411Y-9584389D01*
X213411Y-383011D02*
X213411Y-433011D01*
X188411Y-408011D02*
X238411Y-408011D01*
X213411Y-669389D02*
X213411Y-719389D01*
X188411Y-694389D02*
X238411Y-694389D01*
X355600Y-9213700D02*
X355600Y-9263700D01*
X330600Y-9238700D02*
X380600Y-9238700D01*
X355600Y-9618700D02*
X355600Y-9668700D01*
X330600Y-9643700D02*
X380600Y-9643700D01*
X356600Y-323700D02*
X356600Y-373700D01*
X331600Y-348700D02*
X381600Y-348700D01*
X356600Y-728700D02*
X356600Y-778700D01*
X331600Y-753700D02*
X381600Y-753700D01*
X498789Y-9273011D02*
X498789Y-9323011D01*
X473789Y-9298011D02*
X523789Y-9298011D01*
X498789Y-9559389D02*
X498789Y-9609389D01*
X473789Y-9584389D02*
X523789Y-9584389D01*
X499789Y-383011D02*
X499789Y-433011D01*
X474789Y-408011D02*
X524789Y-408011D01*
X499789Y-669389D02*
X499789Y-719389D01*
X474789Y-694389D02*
X524789Y-694389D01*
X558100Y-9416200D02*
X558100Y-9466200D01*
X533100Y-9441200D02*
X583100Y-9441200D01*
X559100Y-526200D02*
X559100Y-576200D01*
X534100Y-551200D02*
X584100Y-551200D01*
X15397500Y-375000D02*
X15397500Y-425000D01*
X15372500Y-400000D02*
X15422500Y-400000D01*
X15397500Y-9575000D02*
X15397500Y-9625000D01*
X15372500Y-9600000D02*
X15422500Y-9600000D01*
X15456811Y-231811D02*
X15456811Y-281811D01*
X15431811Y-256811D02*
X15481811Y-256811D01*
X15456811Y-518189D02*
X15456811Y-568189D01*
X15431811Y-543189D02*
X15481811Y-543189D01*
X15456811Y-9431811D02*
X15456811Y-9481811D01*
X15431811Y-9456811D02*
X15481811Y-9456811D01*
X15456811Y-9718189D02*
X15456811Y-9768189D01*
X15431811Y-9743189D02*
X15481811Y-9743189D01*
X15600000Y-172500D02*
X15600000Y-222500D01*
X15575000Y-197500D02*
X15625000Y-197500D01*
X15600000Y-577500D02*
X15600000Y-627500D01*
X15575000Y-602500D02*
X15625000Y-602500D01*
X15600000Y-9372500D02*
X15600000Y-9422500D01*
X15575000Y-9397500D02*
X15625000Y-9397500D01*
X15600000Y-9777500D02*
X15600000Y-9827500D01*
X15575000Y-9802500D02*
X15625000Y-9802500D01*
X15743189Y-231811D02*
X15743189Y-281811D01*
X15718189Y-256811D02*
X15768189Y-256811D01*
X15743189Y-518189D02*
X15743189Y-568189D01*
X15718189Y-543189D02*
X15768189Y-543189D01*
X15743189Y-9431811D02*
X15743189Y-9481811D01*
X15718189Y-9456811D02*
X15768189Y-9456811D01*
X15743189Y-9718189D02*
X15743189Y-9768189D01*
X15718189Y-9743189D02*
X15768189Y-9743189D01*
X15802500Y-375000D02*
X15802500Y-425000D01*
X15777500Y-400000D02*
X15827500Y-400000D01*
X15802500Y-9575000D02*
X15802500Y-9625000D01*
X15777500Y-9600000D02*
X15827500Y-9600000D01*
D15*
X175553Y-4188473D02*
X175553Y-4146047D01*
X133127Y-4146047D01*
X133127Y-4188473D01*
X175553Y-4188473D01*
D11*
X184340Y-4147260D02*
X124340Y-4147260D01*
X184340Y-4187260D02*
X124340Y-4187260D01*
X124340Y-4147260D02*
G75*
G03*
X124340Y-4187260I0J-20000D01*
G01*
X184340Y-4187260D02*
G75*
G03*
X184340Y-4147260I0J20000D01*
G01*
D15*
X175553Y-5052473D02*
X175553Y-5010047D01*
X133127Y-5010047D01*
X133127Y-5052473D01*
X175553Y-5052473D01*
D11*
X184340Y-5011260D02*
X124340Y-5011260D01*
X184340Y-5051260D02*
X124340Y-5051260D01*
X124340Y-5011260D02*
G75*
G03*
X124340Y-5051260I0J-20000D01*
G01*
X184340Y-5051260D02*
G75*
G03*
X184340Y-5011260I0J20000D01*
G01*
D15*
X593553Y-4188473D02*
X593553Y-4146047D01*
X551127Y-4146047D01*
X551127Y-4188473D01*
X593553Y-4188473D01*
D11*
X627340Y-4147260D02*
X517340Y-4147260D01*
X627340Y-4187260D02*
X517340Y-4187260D01*
X517340Y-4147260D02*
G75*
G03*
X517340Y-4187260I0J-20000D01*
G01*
X627340Y-4187260D02*
G75*
G03*
X627340Y-4147260I0J20000D01*
G01*
D15*
X593553Y-5052473D02*
X593553Y-5010047D01*
X551127Y-5010047D01*
X551127Y-5052473D01*
X593553Y-5052473D01*
D11*
X627340Y-5011260D02*
X517340Y-5011260D01*
X627340Y-5051260D02*
X517340Y-5051260D01*
X517340Y-5011260D02*
G75*
G03*
X517340Y-5051260I0J-20000D01*
G01*
X627340Y-5051260D02*
G75*
G03*
X627340Y-5011260I0J20000D01*
G01*
D16*
X1325640Y-5941260D02*
X1370640Y-5896260D01*
X1325640Y-5851260D01*
X1280640Y-5896260D01*
X1325640Y-5941260D01*
X1325640Y-6195260D02*
X1370640Y-6150260D01*
X1325640Y-6105260D01*
X1280640Y-6150260D01*
X1325640Y-6195260D01*
X1325640Y-6449260D02*
X1370640Y-6404260D01*
X1325640Y-6359260D01*
X1280640Y-6404260D01*
X1325640Y-6449260D01*
X1325640Y-6957260D02*
X1370640Y-6912260D01*
X1325640Y-6867260D01*
X1280640Y-6912260D01*
X1325640Y-6957260D01*
X1579640Y-5814260D02*
X1624640Y-5769260D01*
X1579640Y-5724260D01*
X1534640Y-5769260D01*
X1579640Y-5814260D01*
X1579640Y-6068260D02*
X1624640Y-6023260D01*
X1579640Y-5978260D01*
X1534640Y-6023260D01*
X1579640Y-6068260D01*
X1579640Y-6322260D02*
X1624640Y-6277260D01*
X1579640Y-6232260D01*
X1534640Y-6277260D01*
X1579640Y-6322260D01*
X1579640Y-6576260D02*
X1624640Y-6531260D01*
X1579640Y-6486260D01*
X1534640Y-6531260D01*
X1579640Y-6576260D01*
X1579640Y-6830260D02*
X1624640Y-6785260D01*
X1579640Y-6740260D01*
X1534640Y-6785260D01*
X1579640Y-6830260D01*
D17*
X234640Y-5627260D02*
X334640Y-5727260D01*
X334640Y-5627260D02*
X234640Y-5727260D01*
X334640Y-5677260D02*
G75*
G03*
X334640Y-5677260I-50000J0D01*
G01*
X234640Y-5881260D02*
X334640Y-5981260D01*
X334640Y-5881260D02*
X234640Y-5981260D01*
X334640Y-5931260D02*
G75*
G03*
X334640Y-5931260I-50000J0D01*
G01*
X234640Y-6699260D02*
X334640Y-6799260D01*
X334640Y-6699260D02*
X234640Y-6799260D01*
X334640Y-6749260D02*
G75*
G03*
X334640Y-6749260I-50000J0D01*
G01*
X234640Y-6953260D02*
X334640Y-7053260D01*
X334640Y-6953260D02*
X234640Y-7053260D01*
X334640Y-7003260D02*
G75*
G03*
X334640Y-7003260I-50000J0D01*
G01*
X292760Y-7597520D02*
X392760Y-7697520D01*
X392760Y-7597520D02*
X292760Y-7697520D01*
X392760Y-7647520D02*
G75*
G03*
X392760Y-7647520I-50000J0D01*
G01*
D11*
X417760Y-7607520D02*
X267760Y-7607520D01*
X417760Y-7687520D02*
X267760Y-7687520D01*
X267760Y-7607520D02*
G75*
G03*
X267760Y-7687520I0J-40000D01*
G01*
X417760Y-7687520D02*
G75*
G03*
X417760Y-7607520I0J40000D01*
G01*
D17*
X292760Y-8497520D02*
X392760Y-8597520D01*
X392760Y-8497520D02*
X292760Y-8597520D01*
X392760Y-8547520D02*
G75*
G03*
X392760Y-8547520I-50000J0D01*
G01*
D11*
X417760Y-8507520D02*
X267760Y-8507520D01*
X417760Y-8587520D02*
X267760Y-8587520D01*
X267760Y-8507520D02*
G75*
G03*
X267760Y-8587520I0J-40000D01*
G01*
X417760Y-8587520D02*
G75*
G03*
X417760Y-8507520I0J40000D01*
G01*
D17*
X392760Y-8047520D02*
X492760Y-8147520D01*
X492760Y-8047520D02*
X392760Y-8147520D01*
X492760Y-8097520D02*
G75*
G03*
X492760Y-8097520I-50000J0D01*
G01*
D11*
X402760Y-8032520D02*
X402760Y-8162520D01*
X482760Y-8032520D02*
X482760Y-8162520D01*
X402760Y-8162520D02*
G75*
G03*
X482760Y-8162520I40000J0D01*
G01*
X482760Y-8032520D02*
G75*
G03*
X402760Y-8032520I-40000J0D01*
G01*
D17*
X992760Y-8047520D02*
X1092760Y-8147520D01*
X1092760Y-8047520D02*
X992760Y-8147520D01*
X1092760Y-8097520D02*
G75*
G03*
X1092760Y-8097520I-50000J0D01*
G01*
D11*
X1002760Y-7997520D02*
X1002760Y-8197520D01*
X1082760Y-7997520D02*
X1082760Y-8197520D01*
X1002760Y-8197520D02*
G75*
G03*
X1082760Y-8197520I40000J0D01*
G01*
X1082760Y-7997520D02*
G75*
G03*
X1002760Y-7997520I-40000J0D01*
G01*
D17*
X3840300Y-1471400D02*
X3940300Y-1571400D01*
X3940300Y-1471400D02*
X3840300Y-1571400D01*
X3940300Y-1521400D02*
G75*
G03*
X3940300Y-1521400I-50000J0D01*
G01*
X4094300Y-1471400D02*
X4194300Y-1571400D01*
X4194300Y-1471400D02*
X4094300Y-1571400D01*
X4194300Y-1521400D02*
G75*
G03*
X4194300Y-1521400I-50000J0D01*
G01*
D18*
X2617510Y-7365060D02*
X2727510Y-7475060D01*
X2727510Y-7365060D02*
X2617510Y-7475060D01*
X2672510Y-7365060D02*
X2672510Y-7475060D01*
X2617510Y-7420060D02*
X2727510Y-7420060D01*
X2871510Y-7365060D02*
X2981510Y-7475060D01*
X2981510Y-7365060D02*
X2871510Y-7475060D01*
X2926510Y-7365060D02*
X2926510Y-7475060D01*
X2871510Y-7420060D02*
X2981510Y-7420060D01*
X3125510Y-7365060D02*
X3235510Y-7475060D01*
X3235510Y-7365060D02*
X3125510Y-7475060D01*
X3180510Y-7365060D02*
X3180510Y-7475060D01*
X3125510Y-7420060D02*
X3235510Y-7420060D01*
X3379510Y-7365060D02*
X3489510Y-7475060D01*
X3489510Y-7365060D02*
X3379510Y-7475060D01*
X3434510Y-7365060D02*
X3434510Y-7475060D01*
X3379510Y-7420060D02*
X3489510Y-7420060D01*
X3633510Y-7365060D02*
X3743510Y-7475060D01*
X3743510Y-7365060D02*
X3633510Y-7475060D01*
X3688510Y-7365060D02*
X3688510Y-7475060D01*
X3633510Y-7420060D02*
X3743510Y-7420060D01*
X3887510Y-7365060D02*
X3997510Y-7475060D01*
X3997510Y-7365060D02*
X3887510Y-7475060D01*
X3942510Y-7365060D02*
X3942510Y-7475060D01*
X3887510Y-7420060D02*
X3997510Y-7420060D01*
X6935510Y-7365060D02*
X7045510Y-7475060D01*
X7045510Y-7365060D02*
X6935510Y-7475060D01*
X6990510Y-7365060D02*
X6990510Y-7475060D01*
X6935510Y-7420060D02*
X7045510Y-7420060D01*
X7189510Y-7365060D02*
X7299510Y-7475060D01*
X7299510Y-7365060D02*
X7189510Y-7475060D01*
X7244510Y-7365060D02*
X7244510Y-7475060D01*
X7189510Y-7420060D02*
X7299510Y-7420060D01*
X7443510Y-7365060D02*
X7553510Y-7475060D01*
X7553510Y-7365060D02*
X7443510Y-7475060D01*
X7498510Y-7365060D02*
X7498510Y-7475060D01*
X7443510Y-7420060D02*
X7553510Y-7420060D01*
X7697510Y-7365060D02*
X7807510Y-7475060D01*
X7807510Y-7365060D02*
X7697510Y-7475060D01*
X7752510Y-7365060D02*
X7752510Y-7475060D01*
X7697510Y-7420060D02*
X7807510Y-7420060D01*
D19*
X471100Y-3036500D02*
X621100Y-3186500D01*
X621100Y-3036500D02*
X471100Y-3186500D01*
X599134Y-3164533D02*
X599134Y-3058466D01*
X493066Y-3058466D01*
X493066Y-3164533D01*
X599134Y-3164533D01*
D20*
X207100Y-2772500D02*
X377100Y-2942500D01*
X377100Y-2772500D02*
X207100Y-2942500D01*
X292100Y-2942500D02*
X377100Y-2857500D01*
X292100Y-2772500D01*
X207100Y-2857500D01*
X292100Y-2942500D01*
X207100Y-3280500D02*
X377100Y-3450500D01*
X377100Y-3280500D02*
X207100Y-3450500D01*
X292100Y-3450500D02*
X377100Y-3365500D01*
X292100Y-3280500D01*
X207100Y-3365500D01*
X292100Y-3450500D01*
X715100Y-2772500D02*
X885100Y-2942500D01*
X885100Y-2772500D02*
X715100Y-2942500D01*
X800100Y-2942500D02*
X885100Y-2857500D01*
X800100Y-2772500D01*
X715100Y-2857500D01*
X800100Y-2942500D01*
X715100Y-3280500D02*
X885100Y-3450500D01*
X885100Y-3280500D02*
X715100Y-3450500D01*
X800100Y-3450500D02*
X885100Y-3365500D01*
X800100Y-3280500D01*
X715100Y-3365500D01*
X800100Y-3450500D01*
X910640Y-5480260D02*
X1080640Y-5650260D01*
X1080640Y-5480260D02*
X910640Y-5650260D01*
X995640Y-5650260D02*
X1080640Y-5565260D01*
X995640Y-5480260D01*
X910640Y-5565260D01*
X995640Y-5650260D01*
X910640Y-7030260D02*
X1080640Y-7200260D01*
X1080640Y-7030260D02*
X910640Y-7200260D01*
X995640Y-7200260D02*
X1080640Y-7115260D01*
X995640Y-7030260D01*
X910640Y-7115260D01*
X995640Y-7200260D01*
D21*
X355600Y-9306200D02*
X355600Y-9576200D01*
X220600Y-9441200D02*
X490600Y-9441200D01*
X490600Y-9441200D02*
G75*
G03*
X490600Y-9441200I-135000J0D01*
G01*
X356600Y-416200D02*
X356600Y-686200D01*
X221600Y-551200D02*
X491600Y-551200D01*
X491600Y-551200D02*
G75*
G03*
X491600Y-551200I-135000J0D01*
G01*
X15600000Y-265000D02*
X15600000Y-535000D01*
X15465000Y-400000D02*
X15735000Y-400000D01*
X15735000Y-400000D02*
G75*
G03*
X15735000Y-400000I-135000J0D01*
G01*
X15600000Y-9465000D02*
X15600000Y-9735000D01*
X15465000Y-9600000D02*
X15735000Y-9600000D01*
X15735000Y-9600000D02*
G75*
G03*
X15735000Y-9600000I-135000J0D01*
G01*
D11*
X252619Y-10315476D02*
X252619Y-10115476D01*
X300238Y-10115476D01*
X328810Y-10125000D01*
X347857Y-10144048D01*
X357381Y-10163095D01*
X366905Y-10201190D01*
X366905Y-10229762D01*
X357381Y-10267857D01*
X347857Y-10286905D01*
X328810Y-10305952D01*
X300238Y-10315476D01*
X252619Y-10315476D01*
X452619Y-10315476D02*
X452619Y-10182143D01*
X452619Y-10220238D02*
X462143Y-10201190D01*
X471667Y-10191667D01*
X490714Y-10182143D01*
X509762Y-10182143D01*
X576429Y-10315476D02*
X576429Y-10182143D01*
X576429Y-10115476D02*
X566905Y-10125000D01*
X576429Y-10134524D01*
X585952Y-10125000D01*
X576429Y-10115476D01*
X576429Y-10134524D01*
X700238Y-10315476D02*
X681190Y-10305952D01*
X671667Y-10286905D01*
X671667Y-10115476D01*
X805000Y-10315476D02*
X785952Y-10305952D01*
X776428Y-10286905D01*
X776428Y-10115476D01*
X1033571Y-10315476D02*
X1033571Y-10115476D01*
X1100238Y-10258333D01*
X1166905Y-10115476D01*
X1166905Y-10315476D01*
X1347857Y-10315476D02*
X1347857Y-10210714D01*
X1338333Y-10191667D01*
X1319286Y-10182143D01*
X1281190Y-10182143D01*
X1262143Y-10191667D01*
X1347857Y-10305952D02*
X1328810Y-10315476D01*
X1281190Y-10315476D01*
X1262143Y-10305952D01*
X1252619Y-10286905D01*
X1252619Y-10267857D01*
X1262143Y-10248810D01*
X1281190Y-10239286D01*
X1328810Y-10239286D01*
X1347857Y-10229762D01*
X1443095Y-10182143D02*
X1443095Y-10382143D01*
X1443095Y-10191667D02*
X1462143Y-10182143D01*
X1500238Y-10182143D01*
X1519286Y-10191667D01*
X1528809Y-10201190D01*
X1538333Y-10220238D01*
X1538333Y-10277381D01*
X1528809Y-10296429D01*
X1519286Y-10305952D01*
X1500238Y-10315476D01*
X1462143Y-10315476D01*
X1443095Y-10305952D01*
X1624048Y-10296429D02*
X1633571Y-10305952D01*
X1624048Y-10315476D01*
X1614524Y-10305952D01*
X1624048Y-10296429D01*
X1624048Y-10315476D01*
X1624048Y-10191667D02*
X1633571Y-10201190D01*
X1624048Y-10210714D01*
X1614524Y-10201190D01*
X1624048Y-10191667D01*
X1624048Y-10210714D01*
D12*
X-25000Y-10635000D02*
X-5000Y-10655000D01*
X-5000Y-10635000D02*
X-25000Y-10655000D01*
D11*
X290714Y-10535476D02*
X309762Y-10535476D01*
X328810Y-10545000D01*
X338333Y-10554524D01*
X347857Y-10573571D01*
X357381Y-10611667D01*
X357381Y-10659286D01*
X347857Y-10697381D01*
X338333Y-10716429D01*
X328810Y-10725952D01*
X309762Y-10735476D01*
X290714Y-10735476D01*
X271667Y-10725952D01*
X262143Y-10716429D01*
X252619Y-10697381D01*
X243095Y-10659286D01*
X243095Y-10611667D01*
X252619Y-10573571D01*
X262143Y-10554524D01*
X271667Y-10545000D01*
X290714Y-10535476D01*
X443095Y-10716429D02*
X452619Y-10725952D01*
X443095Y-10735476D01*
X433571Y-10725952D01*
X443095Y-10716429D01*
X443095Y-10735476D01*
X528810Y-10554524D02*
X538333Y-10545000D01*
X557381Y-10535476D01*
X605000Y-10535476D01*
X624048Y-10545000D01*
X633571Y-10554524D01*
X643095Y-10573571D01*
X643095Y-10592619D01*
X633571Y-10621190D01*
X519286Y-10735476D01*
X643095Y-10735476D01*
X766905Y-10535476D02*
X785952Y-10535476D01*
X805000Y-10545000D01*
X814524Y-10554524D01*
X824048Y-10573571D01*
X833571Y-10611667D01*
X833571Y-10659286D01*
X824048Y-10697381D01*
X814524Y-10716429D01*
X805000Y-10725952D01*
X785952Y-10735476D01*
X766905Y-10735476D01*
X747857Y-10725952D01*
X738333Y-10716429D01*
X728809Y-10697381D01*
X719286Y-10659286D01*
X719286Y-10611667D01*
X728809Y-10573571D01*
X738333Y-10554524D01*
X747857Y-10545000D01*
X766905Y-10535476D01*
X957381Y-10535476D02*
X976428Y-10535476D01*
X995476Y-10545000D01*
X1005000Y-10554524D01*
X1014524Y-10573571D01*
X1024048Y-10611667D01*
X1024048Y-10659286D01*
X1014524Y-10697381D01*
X1005000Y-10716429D01*
X995476Y-10725952D01*
X976428Y-10735476D01*
X957381Y-10735476D01*
X938333Y-10725952D01*
X928809Y-10716429D01*
X919286Y-10697381D01*
X909762Y-10659286D01*
X909762Y-10611667D01*
X919286Y-10573571D01*
X928809Y-10554524D01*
X938333Y-10545000D01*
X957381Y-10535476D01*
X1109762Y-10735476D02*
X1109762Y-10602143D01*
X1109762Y-10621190D02*
X1119286Y-10611667D01*
X1138333Y-10602143D01*
X1166905Y-10602143D01*
X1185952Y-10611667D01*
X1195476Y-10630714D01*
X1195476Y-10735476D01*
X1195476Y-10630714D02*
X1205000Y-10611667D01*
X1224048Y-10602143D01*
X1252619Y-10602143D01*
X1271667Y-10611667D01*
X1281190Y-10630714D01*
X1281190Y-10735476D01*
X1376429Y-10735476D02*
X1376429Y-10602143D01*
X1376429Y-10621190D02*
X1385952Y-10611667D01*
X1405000Y-10602143D01*
X1433571Y-10602143D01*
X1452619Y-10611667D01*
X1462143Y-10630714D01*
X1462143Y-10735476D01*
X1462143Y-10630714D02*
X1471667Y-10611667D01*
X1490714Y-10602143D01*
X1519286Y-10602143D01*
X1538333Y-10611667D01*
X1547857Y-10630714D01*
X1547857Y-10735476D01*
X1938333Y-10525952D02*
X1766905Y-10783095D01*
X2195476Y-10535476D02*
X2214524Y-10535476D01*
X2233571Y-10545000D01*
X2243095Y-10554524D01*
X2252619Y-10573571D01*
X2262143Y-10611667D01*
X2262143Y-10659286D01*
X2252619Y-10697381D01*
X2243095Y-10716429D01*
X2233571Y-10725952D01*
X2214524Y-10735476D01*
X2195476Y-10735476D01*
X2176429Y-10725952D01*
X2166905Y-10716429D01*
X2157381Y-10697381D01*
X2147857Y-10659286D01*
X2147857Y-10611667D01*
X2157381Y-10573571D01*
X2166905Y-10554524D01*
X2176429Y-10545000D01*
X2195476Y-10535476D01*
X2347857Y-10716429D02*
X2357381Y-10725952D01*
X2347857Y-10735476D01*
X2338333Y-10725952D01*
X2347857Y-10716429D01*
X2347857Y-10735476D01*
X2481190Y-10535476D02*
X2500238Y-10535476D01*
X2519286Y-10545000D01*
X2528810Y-10554524D01*
X2538333Y-10573571D01*
X2547857Y-10611667D01*
X2547857Y-10659286D01*
X2538333Y-10697381D01*
X2528810Y-10716429D01*
X2519286Y-10725952D01*
X2500238Y-10735476D01*
X2481190Y-10735476D01*
X2462143Y-10725952D01*
X2452619Y-10716429D01*
X2443095Y-10697381D01*
X2433571Y-10659286D01*
X2433571Y-10611667D01*
X2443095Y-10573571D01*
X2452619Y-10554524D01*
X2462143Y-10545000D01*
X2481190Y-10535476D01*
X2671667Y-10535476D02*
X2690714Y-10535476D01*
X2709762Y-10545000D01*
X2719286Y-10554524D01*
X2728810Y-10573571D01*
X2738333Y-10611667D01*
X2738333Y-10659286D01*
X2728810Y-10697381D01*
X2719286Y-10716429D01*
X2709762Y-10725952D01*
X2690714Y-10735476D01*
X2671667Y-10735476D01*
X2652619Y-10725952D01*
X2643095Y-10716429D01*
X2633571Y-10697381D01*
X2624048Y-10659286D01*
X2624048Y-10611667D01*
X2633571Y-10573571D01*
X2643095Y-10554524D01*
X2652619Y-10545000D01*
X2671667Y-10535476D01*
X2805000Y-10535476D02*
X2938333Y-10535476D01*
X2852619Y-10735476D01*
X3024048Y-10735476D02*
X3062143Y-10735476D01*
X3081190Y-10725952D01*
X3090714Y-10716429D01*
X3109762Y-10687857D01*
X3119286Y-10649762D01*
X3119286Y-10573571D01*
X3109762Y-10554524D01*
X3100238Y-10545000D01*
X3081190Y-10535476D01*
X3043095Y-10535476D01*
X3024048Y-10545000D01*
X3014524Y-10554524D01*
X3005000Y-10573571D01*
X3005000Y-10621190D01*
X3014524Y-10640238D01*
X3024048Y-10649762D01*
X3043095Y-10659286D01*
X3081190Y-10659286D01*
X3100238Y-10649762D01*
X3109762Y-10640238D01*
X3119286Y-10621190D01*
X3195476Y-10535476D02*
X3195476Y-10573571D01*
X3271667Y-10535476D02*
X3271667Y-10573571D01*
X3566905Y-10811667D02*
X3557381Y-10802143D01*
X3538333Y-10773571D01*
X3528809Y-10754524D01*
X3519286Y-10725952D01*
X3509762Y-10678333D01*
X3509762Y-10640238D01*
X3519286Y-10592619D01*
X3528809Y-10564048D01*
X3538333Y-10545000D01*
X3557381Y-10516429D01*
X3566905Y-10506905D01*
X3633571Y-10554524D02*
X3643095Y-10545000D01*
X3662143Y-10535476D01*
X3709762Y-10535476D01*
X3728809Y-10545000D01*
X3738333Y-10554524D01*
X3747857Y-10573571D01*
X3747857Y-10592619D01*
X3738333Y-10621190D01*
X3624048Y-10735476D01*
X3747857Y-10735476D01*
X3862143Y-10621190D02*
X3843095Y-10611667D01*
X3833571Y-10602143D01*
X3824048Y-10583095D01*
X3824048Y-10573571D01*
X3833571Y-10554524D01*
X3843095Y-10545000D01*
X3862143Y-10535476D01*
X3900238Y-10535476D01*
X3919286Y-10545000D01*
X3928809Y-10554524D01*
X3938333Y-10573571D01*
X3938333Y-10583095D01*
X3928809Y-10602143D01*
X3919286Y-10611667D01*
X3900238Y-10621190D01*
X3862143Y-10621190D01*
X3843095Y-10630714D01*
X3833571Y-10640238D01*
X3824048Y-10659286D01*
X3824048Y-10697381D01*
X3833571Y-10716429D01*
X3843095Y-10725952D01*
X3862143Y-10735476D01*
X3900238Y-10735476D01*
X3919286Y-10725952D01*
X3928809Y-10716429D01*
X3938333Y-10697381D01*
X3938333Y-10659286D01*
X3928809Y-10640238D01*
X3919286Y-10630714D01*
X3900238Y-10621190D01*
X4005000Y-10535476D02*
X4128809Y-10535476D01*
X4062143Y-10611667D01*
X4090714Y-10611667D01*
X4109762Y-10621190D01*
X4119286Y-10630714D01*
X4128809Y-10649762D01*
X4128809Y-10697381D01*
X4119286Y-10716429D01*
X4109762Y-10725952D01*
X4090714Y-10735476D01*
X4033571Y-10735476D01*
X4014524Y-10725952D01*
X4005000Y-10716429D01*
X4366905Y-10735476D02*
X4366905Y-10535476D01*
X4452619Y-10735476D02*
X4452619Y-10630714D01*
X4443095Y-10611667D01*
X4424048Y-10602143D01*
X4395476Y-10602143D01*
X4376429Y-10611667D01*
X4366905Y-10621190D01*
X4576429Y-10735476D02*
X4557381Y-10725952D01*
X4547857Y-10716429D01*
X4538333Y-10697381D01*
X4538333Y-10640238D01*
X4547857Y-10621190D01*
X4557381Y-10611667D01*
X4576429Y-10602143D01*
X4605000Y-10602143D01*
X4624048Y-10611667D01*
X4633571Y-10621190D01*
X4643095Y-10640238D01*
X4643095Y-10697381D01*
X4633571Y-10716429D01*
X4624048Y-10725952D01*
X4605000Y-10735476D01*
X4576429Y-10735476D01*
X4757381Y-10735476D02*
X4738333Y-10725952D01*
X4728810Y-10706905D01*
X4728810Y-10535476D01*
X4909762Y-10725952D02*
X4890714Y-10735476D01*
X4852619Y-10735476D01*
X4833571Y-10725952D01*
X4824048Y-10706905D01*
X4824048Y-10630714D01*
X4833571Y-10611667D01*
X4852619Y-10602143D01*
X4890714Y-10602143D01*
X4909762Y-10611667D01*
X4919286Y-10630714D01*
X4919286Y-10649762D01*
X4824048Y-10668810D01*
X4995476Y-10725952D02*
X5014524Y-10735476D01*
X5052619Y-10735476D01*
X5071667Y-10725952D01*
X5081190Y-10706905D01*
X5081190Y-10697381D01*
X5071667Y-10678333D01*
X5052619Y-10668810D01*
X5024048Y-10668810D01*
X5005000Y-10659286D01*
X4995476Y-10640238D01*
X4995476Y-10630714D01*
X5005000Y-10611667D01*
X5024048Y-10602143D01*
X5052619Y-10602143D01*
X5071667Y-10611667D01*
X5147857Y-10811667D02*
X5157381Y-10802143D01*
X5176429Y-10773571D01*
X5185952Y-10754524D01*
X5195476Y-10725952D01*
X5205000Y-10678333D01*
X5205000Y-10640238D01*
X5195476Y-10592619D01*
X5185952Y-10564048D01*
X5176429Y-10545000D01*
X5157381Y-10516429D01*
X5147857Y-10506905D01*
D13*
X-5000Y-10909000D02*
G75*
G03*
X-5000Y-10909000I-20000J0D01*
G01*
D11*
X290714Y-10799476D02*
X309762Y-10799476D01*
X328810Y-10809000D01*
X338333Y-10818524D01*
X347857Y-10837571D01*
X357381Y-10875667D01*
X357381Y-10923286D01*
X347857Y-10961381D01*
X338333Y-10980429D01*
X328810Y-10989952D01*
X309762Y-10999476D01*
X290714Y-10999476D01*
X271667Y-10989952D01*
X262143Y-10980429D01*
X252619Y-10961381D01*
X243095Y-10923286D01*
X243095Y-10875667D01*
X252619Y-10837571D01*
X262143Y-10818524D01*
X271667Y-10809000D01*
X290714Y-10799476D01*
X443095Y-10980429D02*
X452619Y-10989952D01*
X443095Y-10999476D01*
X433571Y-10989952D01*
X443095Y-10980429D01*
X443095Y-10999476D01*
X624048Y-10866143D02*
X624048Y-10999476D01*
X576429Y-10789952D02*
X528810Y-10932810D01*
X652619Y-10932810D01*
X766905Y-10799476D02*
X785952Y-10799476D01*
X805000Y-10809000D01*
X814524Y-10818524D01*
X824048Y-10837571D01*
X833571Y-10875667D01*
X833571Y-10923286D01*
X824048Y-10961381D01*
X814524Y-10980429D01*
X805000Y-10989952D01*
X785952Y-10999476D01*
X766905Y-10999476D01*
X747857Y-10989952D01*
X738333Y-10980429D01*
X728809Y-10961381D01*
X719286Y-10923286D01*
X719286Y-10875667D01*
X728809Y-10837571D01*
X738333Y-10818524D01*
X747857Y-10809000D01*
X766905Y-10799476D01*
X957381Y-10799476D02*
X976428Y-10799476D01*
X995476Y-10809000D01*
X1005000Y-10818524D01*
X1014524Y-10837571D01*
X1024048Y-10875667D01*
X1024048Y-10923286D01*
X1014524Y-10961381D01*
X1005000Y-10980429D01*
X995476Y-10989952D01*
X976428Y-10999476D01*
X957381Y-10999476D01*
X938333Y-10989952D01*
X928809Y-10980429D01*
X919286Y-10961381D01*
X909762Y-10923286D01*
X909762Y-10875667D01*
X919286Y-10837571D01*
X928809Y-10818524D01*
X938333Y-10809000D01*
X957381Y-10799476D01*
X1109762Y-10999476D02*
X1109762Y-10866143D01*
X1109762Y-10885190D02*
X1119286Y-10875667D01*
X1138333Y-10866143D01*
X1166905Y-10866143D01*
X1185952Y-10875667D01*
X1195476Y-10894714D01*
X1195476Y-10999476D01*
X1195476Y-10894714D02*
X1205000Y-10875667D01*
X1224048Y-10866143D01*
X1252619Y-10866143D01*
X1271667Y-10875667D01*
X1281190Y-10894714D01*
X1281190Y-10999476D01*
X1376429Y-10999476D02*
X1376429Y-10866143D01*
X1376429Y-10885190D02*
X1385952Y-10875667D01*
X1405000Y-10866143D01*
X1433571Y-10866143D01*
X1452619Y-10875667D01*
X1462143Y-10894714D01*
X1462143Y-10999476D01*
X1462143Y-10894714D02*
X1471667Y-10875667D01*
X1490714Y-10866143D01*
X1519286Y-10866143D01*
X1538333Y-10875667D01*
X1547857Y-10894714D01*
X1547857Y-10999476D01*
X1938333Y-10789952D02*
X1766905Y-11047095D01*
X2195476Y-10799476D02*
X2214524Y-10799476D01*
X2233571Y-10809000D01*
X2243095Y-10818524D01*
X2252619Y-10837571D01*
X2262143Y-10875667D01*
X2262143Y-10923286D01*
X2252619Y-10961381D01*
X2243095Y-10980429D01*
X2233571Y-10989952D01*
X2214524Y-10999476D01*
X2195476Y-10999476D01*
X2176429Y-10989952D01*
X2166905Y-10980429D01*
X2157381Y-10961381D01*
X2147857Y-10923286D01*
X2147857Y-10875667D01*
X2157381Y-10837571D01*
X2166905Y-10818524D01*
X2176429Y-10809000D01*
X2195476Y-10799476D01*
X2347857Y-10980429D02*
X2357381Y-10989952D01*
X2347857Y-10999476D01*
X2338333Y-10989952D01*
X2347857Y-10980429D01*
X2347857Y-10999476D01*
X2481190Y-10799476D02*
X2500238Y-10799476D01*
X2519286Y-10809000D01*
X2528810Y-10818524D01*
X2538333Y-10837571D01*
X2547857Y-10875667D01*
X2547857Y-10923286D01*
X2538333Y-10961381D01*
X2528810Y-10980429D01*
X2519286Y-10989952D01*
X2500238Y-10999476D01*
X2481190Y-10999476D01*
X2462143Y-10989952D01*
X2452619Y-10980429D01*
X2443095Y-10961381D01*
X2433571Y-10923286D01*
X2433571Y-10875667D01*
X2443095Y-10837571D01*
X2452619Y-10818524D01*
X2462143Y-10809000D01*
X2481190Y-10799476D01*
X2738333Y-10999476D02*
X2624048Y-10999476D01*
X2681190Y-10999476D02*
X2681190Y-10799476D01*
X2662143Y-10828048D01*
X2643095Y-10847095D01*
X2624048Y-10856619D01*
X2919286Y-10799476D02*
X2824048Y-10799476D01*
X2814524Y-10894714D01*
X2824048Y-10885190D01*
X2843095Y-10875667D01*
X2890714Y-10875667D01*
X2909762Y-10885190D01*
X2919286Y-10894714D01*
X2928809Y-10913762D01*
X2928809Y-10961381D01*
X2919286Y-10980429D01*
X2909762Y-10989952D01*
X2890714Y-10999476D01*
X2843095Y-10999476D01*
X2824048Y-10989952D01*
X2814524Y-10980429D01*
X2995476Y-10799476D02*
X3128809Y-10799476D01*
X3043095Y-10999476D01*
X3195476Y-10799476D02*
X3195476Y-10837571D01*
X3271667Y-10799476D02*
X3271667Y-10837571D01*
X3566905Y-11075667D02*
X3557381Y-11066143D01*
X3538333Y-11037571D01*
X3528809Y-11018524D01*
X3519286Y-10989952D01*
X3509762Y-10942333D01*
X3509762Y-10904238D01*
X3519286Y-10856619D01*
X3528809Y-10828048D01*
X3538333Y-10809000D01*
X3557381Y-10780429D01*
X3566905Y-10770905D01*
X3728809Y-10866143D02*
X3728809Y-10999476D01*
X3681190Y-10789952D02*
X3633571Y-10932810D01*
X3757381Y-10932810D01*
X3814524Y-10799476D02*
X3938333Y-10799476D01*
X3871667Y-10875667D01*
X3900238Y-10875667D01*
X3919286Y-10885190D01*
X3928809Y-10894714D01*
X3938333Y-10913762D01*
X3938333Y-10961381D01*
X3928809Y-10980429D01*
X3919286Y-10989952D01*
X3900238Y-10999476D01*
X3843095Y-10999476D01*
X3824048Y-10989952D01*
X3814524Y-10980429D01*
X4005000Y-10799476D02*
X4128809Y-10799476D01*
X4062143Y-10875667D01*
X4090714Y-10875667D01*
X4109762Y-10885190D01*
X4119286Y-10894714D01*
X4128809Y-10913762D01*
X4128809Y-10961381D01*
X4119286Y-10980429D01*
X4109762Y-10989952D01*
X4090714Y-10999476D01*
X4033571Y-10999476D01*
X4014524Y-10989952D01*
X4005000Y-10980429D01*
X4366905Y-10999476D02*
X4366905Y-10799476D01*
X4452619Y-10999476D02*
X4452619Y-10894714D01*
X4443095Y-10875667D01*
X4424048Y-10866143D01*
X4395476Y-10866143D01*
X4376429Y-10875667D01*
X4366905Y-10885190D01*
X4576429Y-10999476D02*
X4557381Y-10989952D01*
X4547857Y-10980429D01*
X4538333Y-10961381D01*
X4538333Y-10904238D01*
X4547857Y-10885190D01*
X4557381Y-10875667D01*
X4576429Y-10866143D01*
X4605000Y-10866143D01*
X4624048Y-10875667D01*
X4633571Y-10885190D01*
X4643095Y-10904238D01*
X4643095Y-10961381D01*
X4633571Y-10980429D01*
X4624048Y-10989952D01*
X4605000Y-10999476D01*
X4576429Y-10999476D01*
X4757381Y-10999476D02*
X4738333Y-10989952D01*
X4728810Y-10970905D01*
X4728810Y-10799476D01*
X4909762Y-10989952D02*
X4890714Y-10999476D01*
X4852619Y-10999476D01*
X4833571Y-10989952D01*
X4824048Y-10970905D01*
X4824048Y-10894714D01*
X4833571Y-10875667D01*
X4852619Y-10866143D01*
X4890714Y-10866143D01*
X4909762Y-10875667D01*
X4919286Y-10894714D01*
X4919286Y-10913762D01*
X4824048Y-10932810D01*
X4995476Y-10989952D02*
X5014524Y-10999476D01*
X5052619Y-10999476D01*
X5071667Y-10989952D01*
X5081190Y-10970905D01*
X5081190Y-10961381D01*
X5071667Y-10942333D01*
X5052619Y-10932810D01*
X5024048Y-10932810D01*
X5005000Y-10923286D01*
X4995476Y-10904238D01*
X4995476Y-10894714D01*
X5005000Y-10875667D01*
X5024048Y-10866143D01*
X5052619Y-10866143D01*
X5071667Y-10875667D01*
X5147857Y-11075667D02*
X5157381Y-11066143D01*
X5176429Y-11037571D01*
X5185952Y-11018524D01*
X5195476Y-10989952D01*
X5205000Y-10942333D01*
X5205000Y-10904238D01*
X5195476Y-10856619D01*
X5185952Y-10828048D01*
X5176429Y-10809000D01*
X5157381Y-10780429D01*
X5147857Y-10770905D01*
D14*
X-30000Y-11148000D02*
X-30000Y-11198000D01*
X-55000Y-11173000D02*
X-5000Y-11173000D01*
D11*
X290714Y-11063476D02*
X309762Y-11063476D01*
X328810Y-11073000D01*
X338333Y-11082524D01*
X347857Y-11101571D01*
X357381Y-11139667D01*
X357381Y-11187286D01*
X347857Y-11225381D01*
X338333Y-11244428D01*
X328810Y-11253952D01*
X309762Y-11263476D01*
X290714Y-11263476D01*
X271667Y-11253952D01*
X262143Y-11244428D01*
X252619Y-11225381D01*
X243095Y-11187286D01*
X243095Y-11139667D01*
X252619Y-11101571D01*
X262143Y-11082524D01*
X271667Y-11073000D01*
X290714Y-11063476D01*
X443095Y-11244428D02*
X452619Y-11253952D01*
X443095Y-11263476D01*
X433571Y-11253952D01*
X443095Y-11244428D01*
X443095Y-11263476D01*
X633571Y-11063476D02*
X538333Y-11063476D01*
X528810Y-11158714D01*
X538333Y-11149190D01*
X557381Y-11139667D01*
X605000Y-11139667D01*
X624048Y-11149190D01*
X633571Y-11158714D01*
X643095Y-11177762D01*
X643095Y-11225381D01*
X633571Y-11244428D01*
X624048Y-11253952D01*
X605000Y-11263476D01*
X557381Y-11263476D01*
X538333Y-11253952D01*
X528810Y-11244428D01*
X766905Y-11063476D02*
X785952Y-11063476D01*
X805000Y-11073000D01*
X814524Y-11082524D01*
X824048Y-11101571D01*
X833571Y-11139667D01*
X833571Y-11187286D01*
X824048Y-11225381D01*
X814524Y-11244428D01*
X805000Y-11253952D01*
X785952Y-11263476D01*
X766905Y-11263476D01*
X747857Y-11253952D01*
X738333Y-11244428D01*
X728809Y-11225381D01*
X719286Y-11187286D01*
X719286Y-11139667D01*
X728809Y-11101571D01*
X738333Y-11082524D01*
X747857Y-11073000D01*
X766905Y-11063476D01*
X957381Y-11063476D02*
X976428Y-11063476D01*
X995476Y-11073000D01*
X1005000Y-11082524D01*
X1014524Y-11101571D01*
X1024048Y-11139667D01*
X1024048Y-11187286D01*
X1014524Y-11225381D01*
X1005000Y-11244428D01*
X995476Y-11253952D01*
X976428Y-11263476D01*
X957381Y-11263476D01*
X938333Y-11253952D01*
X928809Y-11244428D01*
X919286Y-11225381D01*
X909762Y-11187286D01*
X909762Y-11139667D01*
X919286Y-11101571D01*
X928809Y-11082524D01*
X938333Y-11073000D01*
X957381Y-11063476D01*
X1109762Y-11263476D02*
X1109762Y-11130143D01*
X1109762Y-11149190D02*
X1119286Y-11139667D01*
X1138333Y-11130143D01*
X1166905Y-11130143D01*
X1185952Y-11139667D01*
X1195476Y-11158714D01*
X1195476Y-11263476D01*
X1195476Y-11158714D02*
X1205000Y-11139667D01*
X1224048Y-11130143D01*
X1252619Y-11130143D01*
X1271667Y-11139667D01*
X1281190Y-11158714D01*
X1281190Y-11263476D01*
X1376429Y-11263476D02*
X1376429Y-11130143D01*
X1376429Y-11149190D02*
X1385952Y-11139667D01*
X1405000Y-11130143D01*
X1433571Y-11130143D01*
X1452619Y-11139667D01*
X1462143Y-11158714D01*
X1462143Y-11263476D01*
X1462143Y-11158714D02*
X1471667Y-11139667D01*
X1490714Y-11130143D01*
X1519286Y-11130143D01*
X1538333Y-11139667D01*
X1547857Y-11158714D01*
X1547857Y-11263476D01*
X1938333Y-11053952D02*
X1766905Y-11311095D01*
X2195476Y-11063476D02*
X2214524Y-11063476D01*
X2233571Y-11073000D01*
X2243095Y-11082524D01*
X2252619Y-11101571D01*
X2262143Y-11139667D01*
X2262143Y-11187286D01*
X2252619Y-11225381D01*
X2243095Y-11244428D01*
X2233571Y-11253952D01*
X2214524Y-11263476D01*
X2195476Y-11263476D01*
X2176429Y-11253952D01*
X2166905Y-11244428D01*
X2157381Y-11225381D01*
X2147857Y-11187286D01*
X2147857Y-11139667D01*
X2157381Y-11101571D01*
X2166905Y-11082524D01*
X2176429Y-11073000D01*
X2195476Y-11063476D01*
X2347857Y-11244428D02*
X2357381Y-11253952D01*
X2347857Y-11263476D01*
X2338333Y-11253952D01*
X2347857Y-11244428D01*
X2347857Y-11263476D01*
X2481190Y-11063476D02*
X2500238Y-11063476D01*
X2519286Y-11073000D01*
X2528810Y-11082524D01*
X2538333Y-11101571D01*
X2547857Y-11139667D01*
X2547857Y-11187286D01*
X2538333Y-11225381D01*
X2528810Y-11244428D01*
X2519286Y-11253952D01*
X2500238Y-11263476D01*
X2481190Y-11263476D01*
X2462143Y-11253952D01*
X2452619Y-11244428D01*
X2443095Y-11225381D01*
X2433571Y-11187286D01*
X2433571Y-11139667D01*
X2443095Y-11101571D01*
X2452619Y-11082524D01*
X2462143Y-11073000D01*
X2481190Y-11063476D01*
X2738333Y-11263476D02*
X2624048Y-11263476D01*
X2681190Y-11263476D02*
X2681190Y-11063476D01*
X2662143Y-11092048D01*
X2643095Y-11111095D01*
X2624048Y-11120619D01*
X2833571Y-11263476D02*
X2871667Y-11263476D01*
X2890714Y-11253952D01*
X2900238Y-11244428D01*
X2919286Y-11215857D01*
X2928809Y-11177762D01*
X2928809Y-11101571D01*
X2919286Y-11082524D01*
X2909762Y-11073000D01*
X2890714Y-11063476D01*
X2852619Y-11063476D01*
X2833571Y-11073000D01*
X2824048Y-11082524D01*
X2814524Y-11101571D01*
X2814524Y-11149190D01*
X2824048Y-11168238D01*
X2833571Y-11177762D01*
X2852619Y-11187286D01*
X2890714Y-11187286D01*
X2909762Y-11177762D01*
X2919286Y-11168238D01*
X2928809Y-11149190D01*
X2995476Y-11063476D02*
X3128809Y-11063476D01*
X3043095Y-11263476D01*
X3195476Y-11063476D02*
X3195476Y-11101571D01*
X3271667Y-11063476D02*
X3271667Y-11101571D01*
X3566905Y-11339667D02*
X3557381Y-11330143D01*
X3538333Y-11301571D01*
X3528809Y-11282524D01*
X3519286Y-11253952D01*
X3509762Y-11206333D01*
X3509762Y-11168238D01*
X3519286Y-11120619D01*
X3528809Y-11092048D01*
X3538333Y-11073000D01*
X3557381Y-11044429D01*
X3566905Y-11034905D01*
X3624048Y-11063476D02*
X3747857Y-11063476D01*
X3681190Y-11139667D01*
X3709762Y-11139667D01*
X3728809Y-11149190D01*
X3738333Y-11158714D01*
X3747857Y-11177762D01*
X3747857Y-11225381D01*
X3738333Y-11244428D01*
X3728809Y-11253952D01*
X3709762Y-11263476D01*
X3652619Y-11263476D01*
X3633571Y-11253952D01*
X3624048Y-11244428D01*
X3824048Y-11082524D02*
X3833571Y-11073000D01*
X3852619Y-11063476D01*
X3900238Y-11063476D01*
X3919286Y-11073000D01*
X3928809Y-11082524D01*
X3938333Y-11101571D01*
X3938333Y-11120619D01*
X3928809Y-11149190D01*
X3814524Y-11263476D01*
X3938333Y-11263476D01*
X4176428Y-11263476D02*
X4176428Y-11063476D01*
X4262143Y-11263476D02*
X4262143Y-11158714D01*
X4252619Y-11139667D01*
X4233571Y-11130143D01*
X4205000Y-11130143D01*
X4185952Y-11139667D01*
X4176428Y-11149190D01*
X4385952Y-11263476D02*
X4366905Y-11253952D01*
X4357381Y-11244428D01*
X4347857Y-11225381D01*
X4347857Y-11168238D01*
X4357381Y-11149190D01*
X4366905Y-11139667D01*
X4385952Y-11130143D01*
X4414524Y-11130143D01*
X4433571Y-11139667D01*
X4443095Y-11149190D01*
X4452619Y-11168238D01*
X4452619Y-11225381D01*
X4443095Y-11244428D01*
X4433571Y-11253952D01*
X4414524Y-11263476D01*
X4385952Y-11263476D01*
X4566905Y-11263476D02*
X4547857Y-11253952D01*
X4538333Y-11234905D01*
X4538333Y-11063476D01*
X4719286Y-11253952D02*
X4700238Y-11263476D01*
X4662143Y-11263476D01*
X4643095Y-11253952D01*
X4633571Y-11234905D01*
X4633571Y-11158714D01*
X4643095Y-11139667D01*
X4662143Y-11130143D01*
X4700238Y-11130143D01*
X4719286Y-11139667D01*
X4728810Y-11158714D01*
X4728810Y-11177762D01*
X4633571Y-11196809D01*
X4805000Y-11253952D02*
X4824048Y-11263476D01*
X4862143Y-11263476D01*
X4881190Y-11253952D01*
X4890714Y-11234905D01*
X4890714Y-11225381D01*
X4881190Y-11206333D01*
X4862143Y-11196809D01*
X4833571Y-11196809D01*
X4814524Y-11187286D01*
X4805000Y-11168238D01*
X4805000Y-11158714D01*
X4814524Y-11139667D01*
X4833571Y-11130143D01*
X4862143Y-11130143D01*
X4881190Y-11139667D01*
X4957381Y-11339667D02*
X4966905Y-11330143D01*
X4985952Y-11301571D01*
X4995476Y-11282524D01*
X5005000Y-11253952D01*
X5014524Y-11206333D01*
X5014524Y-11168238D01*
X5005000Y-11120619D01*
X4995476Y-11092048D01*
X4985952Y-11073000D01*
X4966905Y-11044429D01*
X4957381Y-11034905D01*
D15*
X-13787Y-11458213D02*
X-13787Y-11415787D01*
X-56213Y-11415787D01*
X-56213Y-11458213D01*
X-13787Y-11458213D01*
D11*
X290714Y-11327476D02*
X309762Y-11327476D01*
X328810Y-11337000D01*
X338333Y-11346524D01*
X347857Y-11365571D01*
X357381Y-11403667D01*
X357381Y-11451286D01*
X347857Y-11489381D01*
X338333Y-11508428D01*
X328810Y-11517952D01*
X309762Y-11527476D01*
X290714Y-11527476D01*
X271667Y-11517952D01*
X262143Y-11508428D01*
X252619Y-11489381D01*
X243095Y-11451286D01*
X243095Y-11403667D01*
X252619Y-11365571D01*
X262143Y-11346524D01*
X271667Y-11337000D01*
X290714Y-11327476D01*
X443095Y-11508428D02*
X452619Y-11517952D01*
X443095Y-11527476D01*
X433571Y-11517952D01*
X443095Y-11508428D01*
X443095Y-11527476D01*
X624048Y-11327476D02*
X585952Y-11327476D01*
X566905Y-11337000D01*
X557381Y-11346524D01*
X538333Y-11375095D01*
X528810Y-11413190D01*
X528810Y-11489381D01*
X538333Y-11508428D01*
X547857Y-11517952D01*
X566905Y-11527476D01*
X605000Y-11527476D01*
X624048Y-11517952D01*
X633571Y-11508428D01*
X643095Y-11489381D01*
X643095Y-11441762D01*
X633571Y-11422714D01*
X624048Y-11413190D01*
X605000Y-11403667D01*
X566905Y-11403667D01*
X547857Y-11413190D01*
X538333Y-11422714D01*
X528810Y-11441762D01*
X766905Y-11327476D02*
X785952Y-11327476D01*
X805000Y-11337000D01*
X814524Y-11346524D01*
X824048Y-11365571D01*
X833571Y-11403667D01*
X833571Y-11451286D01*
X824048Y-11489381D01*
X814524Y-11508428D01*
X805000Y-11517952D01*
X785952Y-11527476D01*
X766905Y-11527476D01*
X747857Y-11517952D01*
X738333Y-11508428D01*
X728809Y-11489381D01*
X719286Y-11451286D01*
X719286Y-11403667D01*
X728809Y-11365571D01*
X738333Y-11346524D01*
X747857Y-11337000D01*
X766905Y-11327476D01*
X957381Y-11327476D02*
X976428Y-11327476D01*
X995476Y-11337000D01*
X1005000Y-11346524D01*
X1014524Y-11365571D01*
X1024048Y-11403667D01*
X1024048Y-11451286D01*
X1014524Y-11489381D01*
X1005000Y-11508428D01*
X995476Y-11517952D01*
X976428Y-11527476D01*
X957381Y-11527476D01*
X938333Y-11517952D01*
X928809Y-11508428D01*
X919286Y-11489381D01*
X909762Y-11451286D01*
X909762Y-11403667D01*
X919286Y-11365571D01*
X928809Y-11346524D01*
X938333Y-11337000D01*
X957381Y-11327476D01*
X1109762Y-11527476D02*
X1109762Y-11394143D01*
X1109762Y-11413190D02*
X1119286Y-11403667D01*
X1138333Y-11394143D01*
X1166905Y-11394143D01*
X1185952Y-11403667D01*
X1195476Y-11422714D01*
X1195476Y-11527476D01*
X1195476Y-11422714D02*
X1205000Y-11403667D01*
X1224048Y-11394143D01*
X1252619Y-11394143D01*
X1271667Y-11403667D01*
X1281190Y-11422714D01*
X1281190Y-11527476D01*
X1376429Y-11527476D02*
X1376429Y-11394143D01*
X1376429Y-11413190D02*
X1385952Y-11403667D01*
X1405000Y-11394143D01*
X1433571Y-11394143D01*
X1452619Y-11403667D01*
X1462143Y-11422714D01*
X1462143Y-11527476D01*
X1462143Y-11422714D02*
X1471667Y-11403667D01*
X1490714Y-11394143D01*
X1519286Y-11394143D01*
X1538333Y-11403667D01*
X1547857Y-11422714D01*
X1547857Y-11527476D01*
X1938333Y-11317952D02*
X1766905Y-11575095D01*
X2195476Y-11327476D02*
X2214524Y-11327476D01*
X2233571Y-11337000D01*
X2243095Y-11346524D01*
X2252619Y-11365571D01*
X2262143Y-11403667D01*
X2262143Y-11451286D01*
X2252619Y-11489381D01*
X2243095Y-11508428D01*
X2233571Y-11517952D01*
X2214524Y-11527476D01*
X2195476Y-11527476D01*
X2176429Y-11517952D01*
X2166905Y-11508428D01*
X2157381Y-11489381D01*
X2147857Y-11451286D01*
X2147857Y-11403667D01*
X2157381Y-11365571D01*
X2166905Y-11346524D01*
X2176429Y-11337000D01*
X2195476Y-11327476D01*
X2347857Y-11508428D02*
X2357381Y-11517952D01*
X2347857Y-11527476D01*
X2338333Y-11517952D01*
X2347857Y-11508428D01*
X2347857Y-11527476D01*
X2481190Y-11327476D02*
X2500238Y-11327476D01*
X2519286Y-11337000D01*
X2528810Y-11346524D01*
X2538333Y-11365571D01*
X2547857Y-11403667D01*
X2547857Y-11451286D01*
X2538333Y-11489381D01*
X2528810Y-11508428D01*
X2519286Y-11517952D01*
X2500238Y-11527476D01*
X2481190Y-11527476D01*
X2462143Y-11517952D01*
X2452619Y-11508428D01*
X2443095Y-11489381D01*
X2433571Y-11451286D01*
X2433571Y-11403667D01*
X2443095Y-11365571D01*
X2452619Y-11346524D01*
X2462143Y-11337000D01*
X2481190Y-11327476D01*
X2624048Y-11346524D02*
X2633571Y-11337000D01*
X2652619Y-11327476D01*
X2700238Y-11327476D01*
X2719286Y-11337000D01*
X2728810Y-11346524D01*
X2738333Y-11365571D01*
X2738333Y-11384619D01*
X2728810Y-11413190D01*
X2614524Y-11527476D01*
X2738333Y-11527476D01*
X2805000Y-11327476D02*
X2928809Y-11327476D01*
X2862143Y-11403667D01*
X2890714Y-11403667D01*
X2909762Y-11413190D01*
X2919286Y-11422714D01*
X2928809Y-11441762D01*
X2928809Y-11489381D01*
X2919286Y-11508428D01*
X2909762Y-11517952D01*
X2890714Y-11527476D01*
X2833571Y-11527476D01*
X2814524Y-11517952D01*
X2805000Y-11508428D01*
X3100238Y-11327476D02*
X3062143Y-11327476D01*
X3043095Y-11337000D01*
X3033571Y-11346524D01*
X3014524Y-11375095D01*
X3005000Y-11413190D01*
X3005000Y-11489381D01*
X3014524Y-11508428D01*
X3024048Y-11517952D01*
X3043095Y-11527476D01*
X3081190Y-11527476D01*
X3100238Y-11517952D01*
X3109762Y-11508428D01*
X3119286Y-11489381D01*
X3119286Y-11441762D01*
X3109762Y-11422714D01*
X3100238Y-11413190D01*
X3081190Y-11403667D01*
X3043095Y-11403667D01*
X3024048Y-11413190D01*
X3014524Y-11422714D01*
X3005000Y-11441762D01*
X3195476Y-11327476D02*
X3195476Y-11365571D01*
X3271667Y-11327476D02*
X3271667Y-11365571D01*
X3566905Y-11603667D02*
X3557381Y-11594143D01*
X3538333Y-11565571D01*
X3528809Y-11546524D01*
X3519286Y-11517952D01*
X3509762Y-11470333D01*
X3509762Y-11432238D01*
X3519286Y-11384619D01*
X3528809Y-11356048D01*
X3538333Y-11337000D01*
X3557381Y-11308428D01*
X3566905Y-11298905D01*
X3681190Y-11327476D02*
X3700238Y-11327476D01*
X3719286Y-11337000D01*
X3728809Y-11346524D01*
X3738333Y-11365571D01*
X3747857Y-11403667D01*
X3747857Y-11451286D01*
X3738333Y-11489381D01*
X3728809Y-11508428D01*
X3719286Y-11517952D01*
X3700238Y-11527476D01*
X3681190Y-11527476D01*
X3662143Y-11517952D01*
X3652619Y-11508428D01*
X3643095Y-11489381D01*
X3633571Y-11451286D01*
X3633571Y-11403667D01*
X3643095Y-11365571D01*
X3652619Y-11346524D01*
X3662143Y-11337000D01*
X3681190Y-11327476D01*
X3985952Y-11527476D02*
X3985952Y-11327476D01*
X4071667Y-11527476D02*
X4071667Y-11422714D01*
X4062143Y-11403667D01*
X4043095Y-11394143D01*
X4014524Y-11394143D01*
X3995476Y-11403667D01*
X3985952Y-11413190D01*
X4195476Y-11527476D02*
X4176428Y-11517952D01*
X4166905Y-11508428D01*
X4157381Y-11489381D01*
X4157381Y-11432238D01*
X4166905Y-11413190D01*
X4176428Y-11403667D01*
X4195476Y-11394143D01*
X4224048Y-11394143D01*
X4243095Y-11403667D01*
X4252619Y-11413190D01*
X4262143Y-11432238D01*
X4262143Y-11489381D01*
X4252619Y-11508428D01*
X4243095Y-11517952D01*
X4224048Y-11527476D01*
X4195476Y-11527476D01*
X4376429Y-11527476D02*
X4357381Y-11517952D01*
X4347857Y-11498905D01*
X4347857Y-11327476D01*
X4528810Y-11517952D02*
X4509762Y-11527476D01*
X4471667Y-11527476D01*
X4452619Y-11517952D01*
X4443095Y-11498905D01*
X4443095Y-11422714D01*
X4452619Y-11403667D01*
X4471667Y-11394143D01*
X4509762Y-11394143D01*
X4528810Y-11403667D01*
X4538333Y-11422714D01*
X4538333Y-11441762D01*
X4443095Y-11460809D01*
X4614524Y-11517952D02*
X4633571Y-11527476D01*
X4671667Y-11527476D01*
X4690714Y-11517952D01*
X4700238Y-11498905D01*
X4700238Y-11489381D01*
X4690714Y-11470333D01*
X4671667Y-11460809D01*
X4643095Y-11460809D01*
X4624048Y-11451286D01*
X4614524Y-11432238D01*
X4614524Y-11422714D01*
X4624048Y-11403667D01*
X4643095Y-11394143D01*
X4671667Y-11394143D01*
X4690714Y-11403667D01*
X4938333Y-11451286D02*
X5090714Y-11451286D01*
X5014524Y-11527476D02*
X5014524Y-11375095D01*
X5424048Y-11394143D02*
X5424048Y-11527476D01*
X5376429Y-11317952D02*
X5328810Y-11460809D01*
X5452619Y-11460809D01*
X5671667Y-11517952D02*
X5690714Y-11527476D01*
X5728809Y-11527476D01*
X5747857Y-11517952D01*
X5757381Y-11498905D01*
X5757381Y-11489381D01*
X5747857Y-11470333D01*
X5728809Y-11460809D01*
X5700238Y-11460809D01*
X5681190Y-11451286D01*
X5671667Y-11432238D01*
X5671667Y-11422714D01*
X5681190Y-11403667D01*
X5700238Y-11394143D01*
X5728809Y-11394143D01*
X5747857Y-11403667D01*
X5871667Y-11527476D02*
X5852619Y-11517952D01*
X5843095Y-11498905D01*
X5843095Y-11327476D01*
X5976428Y-11527476D02*
X5957381Y-11517952D01*
X5947857Y-11508428D01*
X5938333Y-11489381D01*
X5938333Y-11432238D01*
X5947857Y-11413190D01*
X5957381Y-11403667D01*
X5976428Y-11394143D01*
X6005000Y-11394143D01*
X6024048Y-11403667D01*
X6033571Y-11413190D01*
X6043095Y-11432238D01*
X6043095Y-11489381D01*
X6033571Y-11508428D01*
X6024048Y-11517952D01*
X6005000Y-11527476D01*
X5976428Y-11527476D01*
X6100238Y-11394143D02*
X6176428Y-11394143D01*
X6128809Y-11327476D02*
X6128809Y-11498905D01*
X6138333Y-11517952D01*
X6157381Y-11527476D01*
X6176428Y-11527476D01*
X6233571Y-11517952D02*
X6252619Y-11527476D01*
X6290714Y-11527476D01*
X6309762Y-11517952D01*
X6319286Y-11498905D01*
X6319286Y-11489381D01*
X6309762Y-11470333D01*
X6290714Y-11460809D01*
X6262143Y-11460809D01*
X6243095Y-11451286D01*
X6233571Y-11432238D01*
X6233571Y-11422714D01*
X6243095Y-11403667D01*
X6262143Y-11394143D01*
X6290714Y-11394143D01*
X6309762Y-11403667D01*
X6385952Y-11603667D02*
X6395476Y-11594143D01*
X6414524Y-11565571D01*
X6424048Y-11546524D01*
X6433571Y-11517952D01*
X6443095Y-11470333D01*
X6443095Y-11432238D01*
X6433571Y-11384619D01*
X6424048Y-11356048D01*
X6414524Y-11337000D01*
X6395476Y-11308428D01*
X6385952Y-11298905D01*
D16*
X-50000Y-11746000D02*
X-5000Y-11701000D01*
X-50000Y-11656000D01*
X-95000Y-11701000D01*
X-50000Y-11746000D01*
D11*
X290714Y-11591476D02*
X309762Y-11591476D01*
X328810Y-11601000D01*
X338333Y-11610524D01*
X347857Y-11629571D01*
X357381Y-11667667D01*
X357381Y-11715286D01*
X347857Y-11753381D01*
X338333Y-11772428D01*
X328810Y-11781952D01*
X309762Y-11791476D01*
X290714Y-11791476D01*
X271667Y-11781952D01*
X262143Y-11772428D01*
X252619Y-11753381D01*
X243095Y-11715286D01*
X243095Y-11667667D01*
X252619Y-11629571D01*
X262143Y-11610524D01*
X271667Y-11601000D01*
X290714Y-11591476D01*
X443095Y-11772428D02*
X452619Y-11781952D01*
X443095Y-11791476D01*
X433571Y-11781952D01*
X443095Y-11772428D01*
X443095Y-11791476D01*
X547857Y-11791476D02*
X585952Y-11791476D01*
X605000Y-11781952D01*
X614524Y-11772428D01*
X633571Y-11743857D01*
X643095Y-11705762D01*
X643095Y-11629571D01*
X633571Y-11610524D01*
X624048Y-11601000D01*
X605000Y-11591476D01*
X566905Y-11591476D01*
X547857Y-11601000D01*
X538333Y-11610524D01*
X528810Y-11629571D01*
X528810Y-11677190D01*
X538333Y-11696238D01*
X547857Y-11705762D01*
X566905Y-11715286D01*
X605000Y-11715286D01*
X624048Y-11705762D01*
X633571Y-11696238D01*
X643095Y-11677190D01*
X766905Y-11591476D02*
X785952Y-11591476D01*
X805000Y-11601000D01*
X814524Y-11610524D01*
X824048Y-11629571D01*
X833571Y-11667667D01*
X833571Y-11715286D01*
X824048Y-11753381D01*
X814524Y-11772428D01*
X805000Y-11781952D01*
X785952Y-11791476D01*
X766905Y-11791476D01*
X747857Y-11781952D01*
X738333Y-11772428D01*
X728809Y-11753381D01*
X719286Y-11715286D01*
X719286Y-11667667D01*
X728809Y-11629571D01*
X738333Y-11610524D01*
X747857Y-11601000D01*
X766905Y-11591476D01*
X957381Y-11591476D02*
X976428Y-11591476D01*
X995476Y-11601000D01*
X1005000Y-11610524D01*
X1014524Y-11629571D01*
X1024048Y-11667667D01*
X1024048Y-11715286D01*
X1014524Y-11753381D01*
X1005000Y-11772428D01*
X995476Y-11781952D01*
X976428Y-11791476D01*
X957381Y-11791476D01*
X938333Y-11781952D01*
X928809Y-11772428D01*
X919286Y-11753381D01*
X909762Y-11715286D01*
X909762Y-11667667D01*
X919286Y-11629571D01*
X928809Y-11610524D01*
X938333Y-11601000D01*
X957381Y-11591476D01*
X1109762Y-11791476D02*
X1109762Y-11658143D01*
X1109762Y-11677190D02*
X1119286Y-11667667D01*
X1138333Y-11658143D01*
X1166905Y-11658143D01*
X1185952Y-11667667D01*
X1195476Y-11686714D01*
X1195476Y-11791476D01*
X1195476Y-11686714D02*
X1205000Y-11667667D01*
X1224048Y-11658143D01*
X1252619Y-11658143D01*
X1271667Y-11667667D01*
X1281190Y-11686714D01*
X1281190Y-11791476D01*
X1376429Y-11791476D02*
X1376429Y-11658143D01*
X1376429Y-11677190D02*
X1385952Y-11667667D01*
X1405000Y-11658143D01*
X1433571Y-11658143D01*
X1452619Y-11667667D01*
X1462143Y-11686714D01*
X1462143Y-11791476D01*
X1462143Y-11686714D02*
X1471667Y-11667667D01*
X1490714Y-11658143D01*
X1519286Y-11658143D01*
X1538333Y-11667667D01*
X1547857Y-11686714D01*
X1547857Y-11791476D01*
X1938333Y-11581952D02*
X1766905Y-11839095D01*
X2195476Y-11591476D02*
X2214524Y-11591476D01*
X2233571Y-11601000D01*
X2243095Y-11610524D01*
X2252619Y-11629571D01*
X2262143Y-11667667D01*
X2262143Y-11715286D01*
X2252619Y-11753381D01*
X2243095Y-11772428D01*
X2233571Y-11781952D01*
X2214524Y-11791476D01*
X2195476Y-11791476D01*
X2176429Y-11781952D01*
X2166905Y-11772428D01*
X2157381Y-11753381D01*
X2147857Y-11715286D01*
X2147857Y-11667667D01*
X2157381Y-11629571D01*
X2166905Y-11610524D01*
X2176429Y-11601000D01*
X2195476Y-11591476D01*
X2347857Y-11772428D02*
X2357381Y-11781952D01*
X2347857Y-11791476D01*
X2338333Y-11781952D01*
X2347857Y-11772428D01*
X2347857Y-11791476D01*
X2481190Y-11591476D02*
X2500238Y-11591476D01*
X2519286Y-11601000D01*
X2528810Y-11610524D01*
X2538333Y-11629571D01*
X2547857Y-11667667D01*
X2547857Y-11715286D01*
X2538333Y-11753381D01*
X2528810Y-11772428D01*
X2519286Y-11781952D01*
X2500238Y-11791476D01*
X2481190Y-11791476D01*
X2462143Y-11781952D01*
X2452619Y-11772428D01*
X2443095Y-11753381D01*
X2433571Y-11715286D01*
X2433571Y-11667667D01*
X2443095Y-11629571D01*
X2452619Y-11610524D01*
X2462143Y-11601000D01*
X2481190Y-11591476D01*
X2614524Y-11591476D02*
X2738333Y-11591476D01*
X2671667Y-11667667D01*
X2700238Y-11667667D01*
X2719286Y-11677190D01*
X2728810Y-11686714D01*
X2738333Y-11705762D01*
X2738333Y-11753381D01*
X2728810Y-11772428D01*
X2719286Y-11781952D01*
X2700238Y-11791476D01*
X2643095Y-11791476D01*
X2624048Y-11781952D01*
X2614524Y-11772428D01*
X2919286Y-11591476D02*
X2824048Y-11591476D01*
X2814524Y-11686714D01*
X2824048Y-11677190D01*
X2843095Y-11667667D01*
X2890714Y-11667667D01*
X2909762Y-11677190D01*
X2919286Y-11686714D01*
X2928809Y-11705762D01*
X2928809Y-11753381D01*
X2919286Y-11772428D01*
X2909762Y-11781952D01*
X2890714Y-11791476D01*
X2843095Y-11791476D01*
X2824048Y-11781952D01*
X2814524Y-11772428D01*
X3100238Y-11658143D02*
X3100238Y-11791476D01*
X3052619Y-11581952D02*
X3005000Y-11724809D01*
X3128809Y-11724809D01*
X3195476Y-11591476D02*
X3195476Y-11629571D01*
X3271667Y-11591476D02*
X3271667Y-11629571D01*
X3566905Y-11867667D02*
X3557381Y-11858143D01*
X3538333Y-11829571D01*
X3528809Y-11810524D01*
X3519286Y-11781952D01*
X3509762Y-11734333D01*
X3509762Y-11696238D01*
X3519286Y-11648619D01*
X3528809Y-11620048D01*
X3538333Y-11601000D01*
X3557381Y-11572428D01*
X3566905Y-11562905D01*
X3652619Y-11791476D02*
X3690714Y-11791476D01*
X3709762Y-11781952D01*
X3719286Y-11772428D01*
X3738333Y-11743857D01*
X3747857Y-11705762D01*
X3747857Y-11629571D01*
X3738333Y-11610524D01*
X3728809Y-11601000D01*
X3709762Y-11591476D01*
X3671667Y-11591476D01*
X3652619Y-11601000D01*
X3643095Y-11610524D01*
X3633571Y-11629571D01*
X3633571Y-11677190D01*
X3643095Y-11696238D01*
X3652619Y-11705762D01*
X3671667Y-11715286D01*
X3709762Y-11715286D01*
X3728809Y-11705762D01*
X3738333Y-11696238D01*
X3747857Y-11677190D01*
X3985952Y-11791476D02*
X3985952Y-11591476D01*
X4071667Y-11791476D02*
X4071667Y-11686714D01*
X4062143Y-11667667D01*
X4043095Y-11658143D01*
X4014524Y-11658143D01*
X3995476Y-11667667D01*
X3985952Y-11677190D01*
X4195476Y-11791476D02*
X4176428Y-11781952D01*
X4166905Y-11772428D01*
X4157381Y-11753381D01*
X4157381Y-11696238D01*
X4166905Y-11677190D01*
X4176428Y-11667667D01*
X4195476Y-11658143D01*
X4224048Y-11658143D01*
X4243095Y-11667667D01*
X4252619Y-11677190D01*
X4262143Y-11696238D01*
X4262143Y-11753381D01*
X4252619Y-11772428D01*
X4243095Y-11781952D01*
X4224048Y-11791476D01*
X4195476Y-11791476D01*
X4376429Y-11791476D02*
X4357381Y-11781952D01*
X4347857Y-11762905D01*
X4347857Y-11591476D01*
X4528810Y-11781952D02*
X4509762Y-11791476D01*
X4471667Y-11791476D01*
X4452619Y-11781952D01*
X4443095Y-11762905D01*
X4443095Y-11686714D01*
X4452619Y-11667667D01*
X4471667Y-11658143D01*
X4509762Y-11658143D01*
X4528810Y-11667667D01*
X4538333Y-11686714D01*
X4538333Y-11705762D01*
X4443095Y-11724809D01*
X4614524Y-11781952D02*
X4633571Y-11791476D01*
X4671667Y-11791476D01*
X4690714Y-11781952D01*
X4700238Y-11762905D01*
X4700238Y-11753381D01*
X4690714Y-11734333D01*
X4671667Y-11724809D01*
X4643095Y-11724809D01*
X4624048Y-11715286D01*
X4614524Y-11696238D01*
X4614524Y-11686714D01*
X4624048Y-11667667D01*
X4643095Y-11658143D01*
X4671667Y-11658143D01*
X4690714Y-11667667D01*
X4766905Y-11867667D02*
X4776429Y-11858143D01*
X4795476Y-11829571D01*
X4805000Y-11810524D01*
X4814524Y-11781952D01*
X4824048Y-11734333D01*
X4824048Y-11696238D01*
X4814524Y-11648619D01*
X4805000Y-11620048D01*
X4795476Y-11601000D01*
X4776429Y-11572428D01*
X4766905Y-11562905D01*
D17*
X-105000Y-11915000D02*
X-5000Y-12015000D01*
X-5000Y-11915000D02*
X-105000Y-12015000D01*
X-5000Y-11965000D02*
G75*
G03*
X-5000Y-11965000I-50000J0D01*
G01*
D11*
X357381Y-12055476D02*
X243095Y-12055476D01*
X300238Y-12055476D02*
X300238Y-11855476D01*
X281190Y-11884048D01*
X262143Y-11903095D01*
X243095Y-11912619D01*
X443095Y-12036428D02*
X452619Y-12045952D01*
X443095Y-12055476D01*
X433571Y-12045952D01*
X443095Y-12036428D01*
X443095Y-12055476D01*
X576429Y-11855476D02*
X595476Y-11855476D01*
X614524Y-11865000D01*
X624048Y-11874524D01*
X633571Y-11893571D01*
X643095Y-11931667D01*
X643095Y-11979286D01*
X633571Y-12017381D01*
X624048Y-12036428D01*
X614524Y-12045952D01*
X595476Y-12055476D01*
X576429Y-12055476D01*
X557381Y-12045952D01*
X547857Y-12036428D01*
X538333Y-12017381D01*
X528810Y-11979286D01*
X528810Y-11931667D01*
X538333Y-11893571D01*
X547857Y-11874524D01*
X557381Y-11865000D01*
X576429Y-11855476D01*
X766905Y-11855476D02*
X785952Y-11855476D01*
X805000Y-11865000D01*
X814524Y-11874524D01*
X824048Y-11893571D01*
X833571Y-11931667D01*
X833571Y-11979286D01*
X824048Y-12017381D01*
X814524Y-12036428D01*
X805000Y-12045952D01*
X785952Y-12055476D01*
X766905Y-12055476D01*
X747857Y-12045952D01*
X738333Y-12036428D01*
X728809Y-12017381D01*
X719286Y-11979286D01*
X719286Y-11931667D01*
X728809Y-11893571D01*
X738333Y-11874524D01*
X747857Y-11865000D01*
X766905Y-11855476D01*
X957381Y-11855476D02*
X976428Y-11855476D01*
X995476Y-11865000D01*
X1005000Y-11874524D01*
X1014524Y-11893571D01*
X1024048Y-11931667D01*
X1024048Y-11979286D01*
X1014524Y-12017381D01*
X1005000Y-12036428D01*
X995476Y-12045952D01*
X976428Y-12055476D01*
X957381Y-12055476D01*
X938333Y-12045952D01*
X928809Y-12036428D01*
X919286Y-12017381D01*
X909762Y-11979286D01*
X909762Y-11931667D01*
X919286Y-11893571D01*
X928809Y-11874524D01*
X938333Y-11865000D01*
X957381Y-11855476D01*
X1109762Y-12055476D02*
X1109762Y-11922143D01*
X1109762Y-11941190D02*
X1119286Y-11931667D01*
X1138333Y-11922143D01*
X1166905Y-11922143D01*
X1185952Y-11931667D01*
X1195476Y-11950714D01*
X1195476Y-12055476D01*
X1195476Y-11950714D02*
X1205000Y-11931667D01*
X1224048Y-11922143D01*
X1252619Y-11922143D01*
X1271667Y-11931667D01*
X1281190Y-11950714D01*
X1281190Y-12055476D01*
X1376429Y-12055476D02*
X1376429Y-11922143D01*
X1376429Y-11941190D02*
X1385952Y-11931667D01*
X1405000Y-11922143D01*
X1433571Y-11922143D01*
X1452619Y-11931667D01*
X1462143Y-11950714D01*
X1462143Y-12055476D01*
X1462143Y-11950714D02*
X1471667Y-11931667D01*
X1490714Y-11922143D01*
X1519286Y-11922143D01*
X1538333Y-11931667D01*
X1547857Y-11950714D01*
X1547857Y-12055476D01*
X1938333Y-11845952D02*
X1766905Y-12103095D01*
X2195476Y-11855476D02*
X2214524Y-11855476D01*
X2233571Y-11865000D01*
X2243095Y-11874524D01*
X2252619Y-11893571D01*
X2262143Y-11931667D01*
X2262143Y-11979286D01*
X2252619Y-12017381D01*
X2243095Y-12036428D01*
X2233571Y-12045952D01*
X2214524Y-12055476D01*
X2195476Y-12055476D01*
X2176429Y-12045952D01*
X2166905Y-12036428D01*
X2157381Y-12017381D01*
X2147857Y-11979286D01*
X2147857Y-11931667D01*
X2157381Y-11893571D01*
X2166905Y-11874524D01*
X2176429Y-11865000D01*
X2195476Y-11855476D01*
X2347857Y-12036428D02*
X2357381Y-12045952D01*
X2347857Y-12055476D01*
X2338333Y-12045952D01*
X2347857Y-12036428D01*
X2347857Y-12055476D01*
X2481190Y-11855476D02*
X2500238Y-11855476D01*
X2519286Y-11865000D01*
X2528810Y-11874524D01*
X2538333Y-11893571D01*
X2547857Y-11931667D01*
X2547857Y-11979286D01*
X2538333Y-12017381D01*
X2528810Y-12036428D01*
X2519286Y-12045952D01*
X2500238Y-12055476D01*
X2481190Y-12055476D01*
X2462143Y-12045952D01*
X2452619Y-12036428D01*
X2443095Y-12017381D01*
X2433571Y-11979286D01*
X2433571Y-11931667D01*
X2443095Y-11893571D01*
X2452619Y-11874524D01*
X2462143Y-11865000D01*
X2481190Y-11855476D01*
X2614524Y-11855476D02*
X2738333Y-11855476D01*
X2671667Y-11931667D01*
X2700238Y-11931667D01*
X2719286Y-11941190D01*
X2728810Y-11950714D01*
X2738333Y-11969762D01*
X2738333Y-12017381D01*
X2728810Y-12036428D01*
X2719286Y-12045952D01*
X2700238Y-12055476D01*
X2643095Y-12055476D01*
X2624048Y-12045952D01*
X2614524Y-12036428D01*
X2833571Y-12055476D02*
X2871667Y-12055476D01*
X2890714Y-12045952D01*
X2900238Y-12036428D01*
X2919286Y-12007857D01*
X2928809Y-11969762D01*
X2928809Y-11893571D01*
X2919286Y-11874524D01*
X2909762Y-11865000D01*
X2890714Y-11855476D01*
X2852619Y-11855476D01*
X2833571Y-11865000D01*
X2824048Y-11874524D01*
X2814524Y-11893571D01*
X2814524Y-11941190D01*
X2824048Y-11960238D01*
X2833571Y-11969762D01*
X2852619Y-11979286D01*
X2890714Y-11979286D01*
X2909762Y-11969762D01*
X2919286Y-11960238D01*
X2928809Y-11941190D01*
X3100238Y-11922143D02*
X3100238Y-12055476D01*
X3052619Y-11845952D02*
X3005000Y-11988809D01*
X3128809Y-11988809D01*
X3195476Y-11855476D02*
X3195476Y-11893571D01*
X3271667Y-11855476D02*
X3271667Y-11893571D01*
X3566905Y-12131667D02*
X3557381Y-12122143D01*
X3538333Y-12093571D01*
X3528809Y-12074524D01*
X3519286Y-12045952D01*
X3509762Y-11998333D01*
X3509762Y-11960238D01*
X3519286Y-11912619D01*
X3528809Y-11884048D01*
X3538333Y-11865000D01*
X3557381Y-11836428D01*
X3566905Y-11826905D01*
X3728809Y-11855476D02*
X3690714Y-11855476D01*
X3671667Y-11865000D01*
X3662143Y-11874524D01*
X3643095Y-11903095D01*
X3633571Y-11941190D01*
X3633571Y-12017381D01*
X3643095Y-12036428D01*
X3652619Y-12045952D01*
X3671667Y-12055476D01*
X3709762Y-12055476D01*
X3728809Y-12045952D01*
X3738333Y-12036428D01*
X3747857Y-12017381D01*
X3747857Y-11969762D01*
X3738333Y-11950714D01*
X3728809Y-11941190D01*
X3709762Y-11931667D01*
X3671667Y-11931667D01*
X3652619Y-11941190D01*
X3643095Y-11950714D01*
X3633571Y-11969762D01*
X3985952Y-12055476D02*
X3985952Y-11855476D01*
X4071667Y-12055476D02*
X4071667Y-11950714D01*
X4062143Y-11931667D01*
X4043095Y-11922143D01*
X4014524Y-11922143D01*
X3995476Y-11931667D01*
X3985952Y-11941190D01*
X4195476Y-12055476D02*
X4176428Y-12045952D01*
X4166905Y-12036428D01*
X4157381Y-12017381D01*
X4157381Y-11960238D01*
X4166905Y-11941190D01*
X4176428Y-11931667D01*
X4195476Y-11922143D01*
X4224048Y-11922143D01*
X4243095Y-11931667D01*
X4252619Y-11941190D01*
X4262143Y-11960238D01*
X4262143Y-12017381D01*
X4252619Y-12036428D01*
X4243095Y-12045952D01*
X4224048Y-12055476D01*
X4195476Y-12055476D01*
X4376429Y-12055476D02*
X4357381Y-12045952D01*
X4347857Y-12026905D01*
X4347857Y-11855476D01*
X4528810Y-12045952D02*
X4509762Y-12055476D01*
X4471667Y-12055476D01*
X4452619Y-12045952D01*
X4443095Y-12026905D01*
X4443095Y-11950714D01*
X4452619Y-11931667D01*
X4471667Y-11922143D01*
X4509762Y-11922143D01*
X4528810Y-11931667D01*
X4538333Y-11950714D01*
X4538333Y-11969762D01*
X4443095Y-11988809D01*
X4614524Y-12045952D02*
X4633571Y-12055476D01*
X4671667Y-12055476D01*
X4690714Y-12045952D01*
X4700238Y-12026905D01*
X4700238Y-12017381D01*
X4690714Y-11998333D01*
X4671667Y-11988809D01*
X4643095Y-11988809D01*
X4624048Y-11979286D01*
X4614524Y-11960238D01*
X4614524Y-11950714D01*
X4624048Y-11931667D01*
X4643095Y-11922143D01*
X4671667Y-11922143D01*
X4690714Y-11931667D01*
X4938333Y-11979286D02*
X5090714Y-11979286D01*
X5014524Y-12055476D02*
X5014524Y-11903095D01*
X5424048Y-11922143D02*
X5424048Y-12055476D01*
X5376429Y-11845952D02*
X5328810Y-11988809D01*
X5452619Y-11988809D01*
X5671667Y-12045952D02*
X5690714Y-12055476D01*
X5728809Y-12055476D01*
X5747857Y-12045952D01*
X5757381Y-12026905D01*
X5757381Y-12017381D01*
X5747857Y-11998333D01*
X5728809Y-11988809D01*
X5700238Y-11988809D01*
X5681190Y-11979286D01*
X5671667Y-11960238D01*
X5671667Y-11950714D01*
X5681190Y-11931667D01*
X5700238Y-11922143D01*
X5728809Y-11922143D01*
X5747857Y-11931667D01*
X5871667Y-12055476D02*
X5852619Y-12045952D01*
X5843095Y-12026905D01*
X5843095Y-11855476D01*
X5976428Y-12055476D02*
X5957381Y-12045952D01*
X5947857Y-12036428D01*
X5938333Y-12017381D01*
X5938333Y-11960238D01*
X5947857Y-11941190D01*
X5957381Y-11931667D01*
X5976428Y-11922143D01*
X6005000Y-11922143D01*
X6024048Y-11931667D01*
X6033571Y-11941190D01*
X6043095Y-11960238D01*
X6043095Y-12017381D01*
X6033571Y-12036428D01*
X6024048Y-12045952D01*
X6005000Y-12055476D01*
X5976428Y-12055476D01*
X6100238Y-11922143D02*
X6176428Y-11922143D01*
X6128809Y-11855476D02*
X6128809Y-12026905D01*
X6138333Y-12045952D01*
X6157381Y-12055476D01*
X6176428Y-12055476D01*
X6233571Y-12045952D02*
X6252619Y-12055476D01*
X6290714Y-12055476D01*
X6309762Y-12045952D01*
X6319286Y-12026905D01*
X6319286Y-12017381D01*
X6309762Y-11998333D01*
X6290714Y-11988809D01*
X6262143Y-11988809D01*
X6243095Y-11979286D01*
X6233571Y-11960238D01*
X6233571Y-11950714D01*
X6243095Y-11931667D01*
X6262143Y-11922143D01*
X6290714Y-11922143D01*
X6309762Y-11931667D01*
X6385952Y-12131667D02*
X6395476Y-12122143D01*
X6414524Y-12093571D01*
X6424048Y-12074524D01*
X6433571Y-12045952D01*
X6443095Y-11998333D01*
X6443095Y-11960238D01*
X6433571Y-11912619D01*
X6424048Y-11884048D01*
X6414524Y-11865000D01*
X6395476Y-11836428D01*
X6385952Y-11826905D01*
D18*
X-115000Y-12174000D02*
X-5000Y-12284000D01*
X-5000Y-12174000D02*
X-115000Y-12284000D01*
X-60000Y-12174000D02*
X-60000Y-12284000D01*
X-115000Y-12229000D02*
X-5000Y-12229000D01*
D11*
X357381Y-12319476D02*
X243095Y-12319476D01*
X300238Y-12319476D02*
X300238Y-12119476D01*
X281190Y-12148048D01*
X262143Y-12167095D01*
X243095Y-12176619D01*
X443095Y-12300428D02*
X452619Y-12309952D01*
X443095Y-12319476D01*
X433571Y-12309952D01*
X443095Y-12300428D01*
X443095Y-12319476D01*
X643095Y-12319476D02*
X528810Y-12319476D01*
X585952Y-12319476D02*
X585952Y-12119476D01*
X566905Y-12148048D01*
X547857Y-12167095D01*
X528810Y-12176619D01*
X766905Y-12119476D02*
X785952Y-12119476D01*
X805000Y-12129000D01*
X814524Y-12138524D01*
X824048Y-12157571D01*
X833571Y-12195667D01*
X833571Y-12243286D01*
X824048Y-12281381D01*
X814524Y-12300428D01*
X805000Y-12309952D01*
X785952Y-12319476D01*
X766905Y-12319476D01*
X747857Y-12309952D01*
X738333Y-12300428D01*
X728809Y-12281381D01*
X719286Y-12243286D01*
X719286Y-12195667D01*
X728809Y-12157571D01*
X738333Y-12138524D01*
X747857Y-12129000D01*
X766905Y-12119476D01*
X957381Y-12119476D02*
X976428Y-12119476D01*
X995476Y-12129000D01*
X1005000Y-12138524D01*
X1014524Y-12157571D01*
X1024048Y-12195667D01*
X1024048Y-12243286D01*
X1014524Y-12281381D01*
X1005000Y-12300428D01*
X995476Y-12309952D01*
X976428Y-12319476D01*
X957381Y-12319476D01*
X938333Y-12309952D01*
X928809Y-12300428D01*
X919286Y-12281381D01*
X909762Y-12243286D01*
X909762Y-12195667D01*
X919286Y-12157571D01*
X928809Y-12138524D01*
X938333Y-12129000D01*
X957381Y-12119476D01*
X1109762Y-12319476D02*
X1109762Y-12186143D01*
X1109762Y-12205190D02*
X1119286Y-12195667D01*
X1138333Y-12186143D01*
X1166905Y-12186143D01*
X1185952Y-12195667D01*
X1195476Y-12214714D01*
X1195476Y-12319476D01*
X1195476Y-12214714D02*
X1205000Y-12195667D01*
X1224048Y-12186143D01*
X1252619Y-12186143D01*
X1271667Y-12195667D01*
X1281190Y-12214714D01*
X1281190Y-12319476D01*
X1376429Y-12319476D02*
X1376429Y-12186143D01*
X1376429Y-12205190D02*
X1385952Y-12195667D01*
X1405000Y-12186143D01*
X1433571Y-12186143D01*
X1452619Y-12195667D01*
X1462143Y-12214714D01*
X1462143Y-12319476D01*
X1462143Y-12214714D02*
X1471667Y-12195667D01*
X1490714Y-12186143D01*
X1519286Y-12186143D01*
X1538333Y-12195667D01*
X1547857Y-12214714D01*
X1547857Y-12319476D01*
X1938333Y-12109952D02*
X1766905Y-12367095D01*
X2195476Y-12119476D02*
X2214524Y-12119476D01*
X2233571Y-12129000D01*
X2243095Y-12138524D01*
X2252619Y-12157571D01*
X2262143Y-12195667D01*
X2262143Y-12243286D01*
X2252619Y-12281381D01*
X2243095Y-12300428D01*
X2233571Y-12309952D01*
X2214524Y-12319476D01*
X2195476Y-12319476D01*
X2176429Y-12309952D01*
X2166905Y-12300428D01*
X2157381Y-12281381D01*
X2147857Y-12243286D01*
X2147857Y-12195667D01*
X2157381Y-12157571D01*
X2166905Y-12138524D01*
X2176429Y-12129000D01*
X2195476Y-12119476D01*
X2347857Y-12300428D02*
X2357381Y-12309952D01*
X2347857Y-12319476D01*
X2338333Y-12309952D01*
X2347857Y-12300428D01*
X2347857Y-12319476D01*
X2481190Y-12119476D02*
X2500238Y-12119476D01*
X2519286Y-12129000D01*
X2528810Y-12138524D01*
X2538333Y-12157571D01*
X2547857Y-12195667D01*
X2547857Y-12243286D01*
X2538333Y-12281381D01*
X2528810Y-12300428D01*
X2519286Y-12309952D01*
X2500238Y-12319476D01*
X2481190Y-12319476D01*
X2462143Y-12309952D01*
X2452619Y-12300428D01*
X2443095Y-12281381D01*
X2433571Y-12243286D01*
X2433571Y-12195667D01*
X2443095Y-12157571D01*
X2452619Y-12138524D01*
X2462143Y-12129000D01*
X2481190Y-12119476D01*
X2719286Y-12186143D02*
X2719286Y-12319476D01*
X2671667Y-12109952D02*
X2624048Y-12252809D01*
X2747857Y-12252809D01*
X2805000Y-12119476D02*
X2928809Y-12119476D01*
X2862143Y-12195667D01*
X2890714Y-12195667D01*
X2909762Y-12205190D01*
X2919286Y-12214714D01*
X2928809Y-12233762D01*
X2928809Y-12281381D01*
X2919286Y-12300428D01*
X2909762Y-12309952D01*
X2890714Y-12319476D01*
X2833571Y-12319476D01*
X2814524Y-12309952D01*
X2805000Y-12300428D01*
X2995476Y-12119476D02*
X3119286Y-12119476D01*
X3052619Y-12195667D01*
X3081190Y-12195667D01*
X3100238Y-12205190D01*
X3109762Y-12214714D01*
X3119286Y-12233762D01*
X3119286Y-12281381D01*
X3109762Y-12300428D01*
X3100238Y-12309952D01*
X3081190Y-12319476D01*
X3024048Y-12319476D01*
X3005000Y-12309952D01*
X2995476Y-12300428D01*
X3195476Y-12119476D02*
X3195476Y-12157571D01*
X3271667Y-12119476D02*
X3271667Y-12157571D01*
X3566905Y-12395667D02*
X3557381Y-12386143D01*
X3538333Y-12357571D01*
X3528809Y-12338524D01*
X3519286Y-12309952D01*
X3509762Y-12262333D01*
X3509762Y-12224238D01*
X3519286Y-12176619D01*
X3528809Y-12148048D01*
X3538333Y-12129000D01*
X3557381Y-12100428D01*
X3566905Y-12090905D01*
X3747857Y-12319476D02*
X3633571Y-12319476D01*
X3690714Y-12319476D02*
X3690714Y-12119476D01*
X3671667Y-12148048D01*
X3652619Y-12167095D01*
X3633571Y-12176619D01*
X3871667Y-12119476D02*
X3890714Y-12119476D01*
X3909762Y-12129000D01*
X3919286Y-12138524D01*
X3928809Y-12157571D01*
X3938333Y-12195667D01*
X3938333Y-12243286D01*
X3928809Y-12281381D01*
X3919286Y-12300428D01*
X3909762Y-12309952D01*
X3890714Y-12319476D01*
X3871667Y-12319476D01*
X3852619Y-12309952D01*
X3843095Y-12300428D01*
X3833571Y-12281381D01*
X3824048Y-12243286D01*
X3824048Y-12195667D01*
X3833571Y-12157571D01*
X3843095Y-12138524D01*
X3852619Y-12129000D01*
X3871667Y-12119476D01*
X4176428Y-12319476D02*
X4176428Y-12119476D01*
X4262143Y-12319476D02*
X4262143Y-12214714D01*
X4252619Y-12195667D01*
X4233571Y-12186143D01*
X4205000Y-12186143D01*
X4185952Y-12195667D01*
X4176428Y-12205190D01*
X4385952Y-12319476D02*
X4366905Y-12309952D01*
X4357381Y-12300428D01*
X4347857Y-12281381D01*
X4347857Y-12224238D01*
X4357381Y-12205190D01*
X4366905Y-12195667D01*
X4385952Y-12186143D01*
X4414524Y-12186143D01*
X4433571Y-12195667D01*
X4443095Y-12205190D01*
X4452619Y-12224238D01*
X4452619Y-12281381D01*
X4443095Y-12300428D01*
X4433571Y-12309952D01*
X4414524Y-12319476D01*
X4385952Y-12319476D01*
X4566905Y-12319476D02*
X4547857Y-12309952D01*
X4538333Y-12290905D01*
X4538333Y-12119476D01*
X4719286Y-12309952D02*
X4700238Y-12319476D01*
X4662143Y-12319476D01*
X4643095Y-12309952D01*
X4633571Y-12290905D01*
X4633571Y-12214714D01*
X4643095Y-12195667D01*
X4662143Y-12186143D01*
X4700238Y-12186143D01*
X4719286Y-12195667D01*
X4728810Y-12214714D01*
X4728810Y-12233762D01*
X4633571Y-12252809D01*
X4805000Y-12309952D02*
X4824048Y-12319476D01*
X4862143Y-12319476D01*
X4881190Y-12309952D01*
X4890714Y-12290905D01*
X4890714Y-12281381D01*
X4881190Y-12262333D01*
X4862143Y-12252809D01*
X4833571Y-12252809D01*
X4814524Y-12243286D01*
X4805000Y-12224238D01*
X4805000Y-12214714D01*
X4814524Y-12195667D01*
X4833571Y-12186143D01*
X4862143Y-12186143D01*
X4881190Y-12195667D01*
X4957381Y-12395667D02*
X4966905Y-12386143D01*
X4985952Y-12357571D01*
X4995476Y-12338524D01*
X5005000Y-12309952D01*
X5014524Y-12262333D01*
X5014524Y-12224238D01*
X5005000Y-12176619D01*
X4995476Y-12148048D01*
X4985952Y-12129000D01*
X4966905Y-12100428D01*
X4957381Y-12090905D01*
D19*
X-155000Y-12418000D02*
X-5000Y-12568000D01*
X-5000Y-12418000D02*
X-155000Y-12568000D01*
X-26966Y-12546033D02*
X-26966Y-12439966D01*
X-133034Y-12439966D01*
X-133034Y-12546033D01*
X-26966Y-12546033D01*
D11*
X357381Y-12583476D02*
X243095Y-12583476D01*
X300238Y-12583476D02*
X300238Y-12383476D01*
X281190Y-12412048D01*
X262143Y-12431095D01*
X243095Y-12440619D01*
X443095Y-12564428D02*
X452619Y-12573952D01*
X443095Y-12583476D01*
X433571Y-12573952D01*
X443095Y-12564428D01*
X443095Y-12583476D01*
X633571Y-12383476D02*
X538333Y-12383476D01*
X528810Y-12478714D01*
X538333Y-12469190D01*
X557381Y-12459667D01*
X605000Y-12459667D01*
X624048Y-12469190D01*
X633571Y-12478714D01*
X643095Y-12497762D01*
X643095Y-12545381D01*
X633571Y-12564428D01*
X624048Y-12573952D01*
X605000Y-12583476D01*
X557381Y-12583476D01*
X538333Y-12573952D01*
X528810Y-12564428D01*
X766905Y-12383476D02*
X785952Y-12383476D01*
X805000Y-12393000D01*
X814524Y-12402524D01*
X824048Y-12421571D01*
X833571Y-12459667D01*
X833571Y-12507286D01*
X824048Y-12545381D01*
X814524Y-12564428D01*
X805000Y-12573952D01*
X785952Y-12583476D01*
X766905Y-12583476D01*
X747857Y-12573952D01*
X738333Y-12564428D01*
X728809Y-12545381D01*
X719286Y-12507286D01*
X719286Y-12459667D01*
X728809Y-12421571D01*
X738333Y-12402524D01*
X747857Y-12393000D01*
X766905Y-12383476D01*
X957381Y-12383476D02*
X976428Y-12383476D01*
X995476Y-12393000D01*
X1005000Y-12402524D01*
X1014524Y-12421571D01*
X1024048Y-12459667D01*
X1024048Y-12507286D01*
X1014524Y-12545381D01*
X1005000Y-12564428D01*
X995476Y-12573952D01*
X976428Y-12583476D01*
X957381Y-12583476D01*
X938333Y-12573952D01*
X928809Y-12564428D01*
X919286Y-12545381D01*
X909762Y-12507286D01*
X909762Y-12459667D01*
X919286Y-12421571D01*
X928809Y-12402524D01*
X938333Y-12393000D01*
X957381Y-12383476D01*
X1109762Y-12583476D02*
X1109762Y-12450143D01*
X1109762Y-12469190D02*
X1119286Y-12459667D01*
X1138333Y-12450143D01*
X1166905Y-12450143D01*
X1185952Y-12459667D01*
X1195476Y-12478714D01*
X1195476Y-12583476D01*
X1195476Y-12478714D02*
X1205000Y-12459667D01*
X1224048Y-12450143D01*
X1252619Y-12450143D01*
X1271667Y-12459667D01*
X1281190Y-12478714D01*
X1281190Y-12583476D01*
X1376429Y-12583476D02*
X1376429Y-12450143D01*
X1376429Y-12469190D02*
X1385952Y-12459667D01*
X1405000Y-12450143D01*
X1433571Y-12450143D01*
X1452619Y-12459667D01*
X1462143Y-12478714D01*
X1462143Y-12583476D01*
X1462143Y-12478714D02*
X1471667Y-12459667D01*
X1490714Y-12450143D01*
X1519286Y-12450143D01*
X1538333Y-12459667D01*
X1547857Y-12478714D01*
X1547857Y-12583476D01*
X1938333Y-12373952D02*
X1766905Y-12631095D01*
X2195476Y-12383476D02*
X2214524Y-12383476D01*
X2233571Y-12393000D01*
X2243095Y-12402524D01*
X2252619Y-12421571D01*
X2262143Y-12459667D01*
X2262143Y-12507286D01*
X2252619Y-12545381D01*
X2243095Y-12564428D01*
X2233571Y-12573952D01*
X2214524Y-12583476D01*
X2195476Y-12583476D01*
X2176429Y-12573952D01*
X2166905Y-12564428D01*
X2157381Y-12545381D01*
X2147857Y-12507286D01*
X2147857Y-12459667D01*
X2157381Y-12421571D01*
X2166905Y-12402524D01*
X2176429Y-12393000D01*
X2195476Y-12383476D01*
X2347857Y-12564428D02*
X2357381Y-12573952D01*
X2347857Y-12583476D01*
X2338333Y-12573952D01*
X2347857Y-12564428D01*
X2347857Y-12583476D01*
X2481190Y-12383476D02*
X2500238Y-12383476D01*
X2519286Y-12393000D01*
X2528810Y-12402524D01*
X2538333Y-12421571D01*
X2547857Y-12459667D01*
X2547857Y-12507286D01*
X2538333Y-12545381D01*
X2528810Y-12564428D01*
X2519286Y-12573952D01*
X2500238Y-12583476D01*
X2481190Y-12583476D01*
X2462143Y-12573952D01*
X2452619Y-12564428D01*
X2443095Y-12545381D01*
X2433571Y-12507286D01*
X2433571Y-12459667D01*
X2443095Y-12421571D01*
X2452619Y-12402524D01*
X2462143Y-12393000D01*
X2481190Y-12383476D01*
X2728810Y-12383476D02*
X2633571Y-12383476D01*
X2624048Y-12478714D01*
X2633571Y-12469190D01*
X2652619Y-12459667D01*
X2700238Y-12459667D01*
X2719286Y-12469190D01*
X2728810Y-12478714D01*
X2738333Y-12497762D01*
X2738333Y-12545381D01*
X2728810Y-12564428D01*
X2719286Y-12573952D01*
X2700238Y-12583476D01*
X2652619Y-12583476D01*
X2633571Y-12573952D01*
X2624048Y-12564428D01*
X2833571Y-12583476D02*
X2871667Y-12583476D01*
X2890714Y-12573952D01*
X2900238Y-12564428D01*
X2919286Y-12535857D01*
X2928809Y-12497762D01*
X2928809Y-12421571D01*
X2919286Y-12402524D01*
X2909762Y-12393000D01*
X2890714Y-12383476D01*
X2852619Y-12383476D01*
X2833571Y-12393000D01*
X2824048Y-12402524D01*
X2814524Y-12421571D01*
X2814524Y-12469190D01*
X2824048Y-12488238D01*
X2833571Y-12497762D01*
X2852619Y-12507286D01*
X2890714Y-12507286D01*
X2909762Y-12497762D01*
X2919286Y-12488238D01*
X2928809Y-12469190D01*
X3119286Y-12583476D02*
X3005000Y-12583476D01*
X3062143Y-12583476D02*
X3062143Y-12383476D01*
X3043095Y-12412048D01*
X3024048Y-12431095D01*
X3005000Y-12440619D01*
X3195476Y-12383476D02*
X3195476Y-12421571D01*
X3271667Y-12383476D02*
X3271667Y-12421571D01*
X3566905Y-12659667D02*
X3557381Y-12650143D01*
X3538333Y-12621571D01*
X3528809Y-12602524D01*
X3519286Y-12573952D01*
X3509762Y-12526333D01*
X3509762Y-12488238D01*
X3519286Y-12440619D01*
X3528809Y-12412048D01*
X3538333Y-12393000D01*
X3557381Y-12364428D01*
X3566905Y-12354905D01*
X3747857Y-12583476D02*
X3633571Y-12583476D01*
X3690714Y-12583476D02*
X3690714Y-12383476D01*
X3671667Y-12412048D01*
X3652619Y-12431095D01*
X3633571Y-12440619D01*
X3985952Y-12583476D02*
X3985952Y-12383476D01*
X4071667Y-12583476D02*
X4071667Y-12478714D01*
X4062143Y-12459667D01*
X4043095Y-12450143D01*
X4014524Y-12450143D01*
X3995476Y-12459667D01*
X3985952Y-12469190D01*
X4195476Y-12583476D02*
X4176428Y-12573952D01*
X4166905Y-12564428D01*
X4157381Y-12545381D01*
X4157381Y-12488238D01*
X4166905Y-12469190D01*
X4176428Y-12459667D01*
X4195476Y-12450143D01*
X4224048Y-12450143D01*
X4243095Y-12459667D01*
X4252619Y-12469190D01*
X4262143Y-12488238D01*
X4262143Y-12545381D01*
X4252619Y-12564428D01*
X4243095Y-12573952D01*
X4224048Y-12583476D01*
X4195476Y-12583476D01*
X4376429Y-12583476D02*
X4357381Y-12573952D01*
X4347857Y-12554905D01*
X4347857Y-12383476D01*
X4528810Y-12573952D02*
X4509762Y-12583476D01*
X4471667Y-12583476D01*
X4452619Y-12573952D01*
X4443095Y-12554905D01*
X4443095Y-12478714D01*
X4452619Y-12459667D01*
X4471667Y-12450143D01*
X4509762Y-12450143D01*
X4528810Y-12459667D01*
X4538333Y-12478714D01*
X4538333Y-12497762D01*
X4443095Y-12516809D01*
X4605000Y-12659667D02*
X4614524Y-12650143D01*
X4633571Y-12621571D01*
X4643095Y-12602524D01*
X4652619Y-12573952D01*
X4662143Y-12526333D01*
X4662143Y-12488238D01*
X4652619Y-12440619D01*
X4643095Y-12412048D01*
X4633571Y-12393000D01*
X4614524Y-12364428D01*
X4605000Y-12354905D01*
D20*
X-175000Y-12678000D02*
X-5000Y-12848000D01*
X-5000Y-12678000D02*
X-175000Y-12848000D01*
X-90000Y-12848000D02*
X-5000Y-12763000D01*
X-90000Y-12678000D01*
X-175000Y-12763000D01*
X-90000Y-12848000D01*
D11*
X357381Y-12853476D02*
X243095Y-12853476D01*
X300238Y-12853476D02*
X300238Y-12653476D01*
X281190Y-12682048D01*
X262143Y-12701095D01*
X243095Y-12710619D01*
X443095Y-12834428D02*
X452619Y-12843952D01*
X443095Y-12853476D01*
X433571Y-12843952D01*
X443095Y-12834428D01*
X443095Y-12853476D01*
X519286Y-12653476D02*
X652619Y-12653476D01*
X566905Y-12853476D01*
X766905Y-12653476D02*
X785952Y-12653476D01*
X805000Y-12663000D01*
X814524Y-12672524D01*
X824048Y-12691571D01*
X833571Y-12729667D01*
X833571Y-12777286D01*
X824048Y-12815381D01*
X814524Y-12834428D01*
X805000Y-12843952D01*
X785952Y-12853476D01*
X766905Y-12853476D01*
X747857Y-12843952D01*
X738333Y-12834428D01*
X728809Y-12815381D01*
X719286Y-12777286D01*
X719286Y-12729667D01*
X728809Y-12691571D01*
X738333Y-12672524D01*
X747857Y-12663000D01*
X766905Y-12653476D01*
X957381Y-12653476D02*
X976428Y-12653476D01*
X995476Y-12663000D01*
X1005000Y-12672524D01*
X1014524Y-12691571D01*
X1024048Y-12729667D01*
X1024048Y-12777286D01*
X1014524Y-12815381D01*
X1005000Y-12834428D01*
X995476Y-12843952D01*
X976428Y-12853476D01*
X957381Y-12853476D01*
X938333Y-12843952D01*
X928809Y-12834428D01*
X919286Y-12815381D01*
X909762Y-12777286D01*
X909762Y-12729667D01*
X919286Y-12691571D01*
X928809Y-12672524D01*
X938333Y-12663000D01*
X957381Y-12653476D01*
X1109762Y-12853476D02*
X1109762Y-12720143D01*
X1109762Y-12739190D02*
X1119286Y-12729667D01*
X1138333Y-12720143D01*
X1166905Y-12720143D01*
X1185952Y-12729667D01*
X1195476Y-12748714D01*
X1195476Y-12853476D01*
X1195476Y-12748714D02*
X1205000Y-12729667D01*
X1224048Y-12720143D01*
X1252619Y-12720143D01*
X1271667Y-12729667D01*
X1281190Y-12748714D01*
X1281190Y-12853476D01*
X1376429Y-12853476D02*
X1376429Y-12720143D01*
X1376429Y-12739190D02*
X1385952Y-12729667D01*
X1405000Y-12720143D01*
X1433571Y-12720143D01*
X1452619Y-12729667D01*
X1462143Y-12748714D01*
X1462143Y-12853476D01*
X1462143Y-12748714D02*
X1471667Y-12729667D01*
X1490714Y-12720143D01*
X1519286Y-12720143D01*
X1538333Y-12729667D01*
X1547857Y-12748714D01*
X1547857Y-12853476D01*
X1938333Y-12643952D02*
X1766905Y-12901095D01*
X2195476Y-12653476D02*
X2214524Y-12653476D01*
X2233571Y-12663000D01*
X2243095Y-12672524D01*
X2252619Y-12691571D01*
X2262143Y-12729667D01*
X2262143Y-12777286D01*
X2252619Y-12815381D01*
X2243095Y-12834428D01*
X2233571Y-12843952D01*
X2214524Y-12853476D01*
X2195476Y-12853476D01*
X2176429Y-12843952D01*
X2166905Y-12834428D01*
X2157381Y-12815381D01*
X2147857Y-12777286D01*
X2147857Y-12729667D01*
X2157381Y-12691571D01*
X2166905Y-12672524D01*
X2176429Y-12663000D01*
X2195476Y-12653476D01*
X2347857Y-12834428D02*
X2357381Y-12843952D01*
X2347857Y-12853476D01*
X2338333Y-12843952D01*
X2347857Y-12834428D01*
X2347857Y-12853476D01*
X2481190Y-12653476D02*
X2500238Y-12653476D01*
X2519286Y-12663000D01*
X2528810Y-12672524D01*
X2538333Y-12691571D01*
X2547857Y-12729667D01*
X2547857Y-12777286D01*
X2538333Y-12815381D01*
X2528810Y-12834428D01*
X2519286Y-12843952D01*
X2500238Y-12853476D01*
X2481190Y-12853476D01*
X2462143Y-12843952D01*
X2452619Y-12834428D01*
X2443095Y-12815381D01*
X2433571Y-12777286D01*
X2433571Y-12729667D01*
X2443095Y-12691571D01*
X2452619Y-12672524D01*
X2462143Y-12663000D01*
X2481190Y-12653476D01*
X2719286Y-12653476D02*
X2681190Y-12653476D01*
X2662143Y-12663000D01*
X2652619Y-12672524D01*
X2633571Y-12701095D01*
X2624048Y-12739190D01*
X2624048Y-12815381D01*
X2633571Y-12834428D01*
X2643095Y-12843952D01*
X2662143Y-12853476D01*
X2700238Y-12853476D01*
X2719286Y-12843952D01*
X2728810Y-12834428D01*
X2738333Y-12815381D01*
X2738333Y-12767762D01*
X2728810Y-12748714D01*
X2719286Y-12739190D01*
X2700238Y-12729667D01*
X2662143Y-12729667D01*
X2643095Y-12739190D01*
X2633571Y-12748714D01*
X2624048Y-12767762D01*
X2909762Y-12653476D02*
X2871667Y-12653476D01*
X2852619Y-12663000D01*
X2843095Y-12672524D01*
X2824048Y-12701095D01*
X2814524Y-12739190D01*
X2814524Y-12815381D01*
X2824048Y-12834428D01*
X2833571Y-12843952D01*
X2852619Y-12853476D01*
X2890714Y-12853476D01*
X2909762Y-12843952D01*
X2919286Y-12834428D01*
X2928809Y-12815381D01*
X2928809Y-12767762D01*
X2919286Y-12748714D01*
X2909762Y-12739190D01*
X2890714Y-12729667D01*
X2852619Y-12729667D01*
X2833571Y-12739190D01*
X2824048Y-12748714D01*
X2814524Y-12767762D01*
X3024048Y-12853476D02*
X3062143Y-12853476D01*
X3081190Y-12843952D01*
X3090714Y-12834428D01*
X3109762Y-12805857D01*
X3119286Y-12767762D01*
X3119286Y-12691571D01*
X3109762Y-12672524D01*
X3100238Y-12663000D01*
X3081190Y-12653476D01*
X3043095Y-12653476D01*
X3024048Y-12663000D01*
X3014524Y-12672524D01*
X3005000Y-12691571D01*
X3005000Y-12739190D01*
X3014524Y-12758238D01*
X3024048Y-12767762D01*
X3043095Y-12777286D01*
X3081190Y-12777286D01*
X3100238Y-12767762D01*
X3109762Y-12758238D01*
X3119286Y-12739190D01*
X3195476Y-12653476D02*
X3195476Y-12691571D01*
X3271667Y-12653476D02*
X3271667Y-12691571D01*
X3566905Y-12929667D02*
X3557381Y-12920143D01*
X3538333Y-12891571D01*
X3528809Y-12872524D01*
X3519286Y-12843952D01*
X3509762Y-12796333D01*
X3509762Y-12758238D01*
X3519286Y-12710619D01*
X3528809Y-12682048D01*
X3538333Y-12663000D01*
X3557381Y-12634428D01*
X3566905Y-12624905D01*
X3728809Y-12653476D02*
X3690714Y-12653476D01*
X3671667Y-12663000D01*
X3662143Y-12672524D01*
X3643095Y-12701095D01*
X3633571Y-12739190D01*
X3633571Y-12815381D01*
X3643095Y-12834428D01*
X3652619Y-12843952D01*
X3671667Y-12853476D01*
X3709762Y-12853476D01*
X3728809Y-12843952D01*
X3738333Y-12834428D01*
X3747857Y-12815381D01*
X3747857Y-12767762D01*
X3738333Y-12748714D01*
X3728809Y-12739190D01*
X3709762Y-12729667D01*
X3671667Y-12729667D01*
X3652619Y-12739190D01*
X3643095Y-12748714D01*
X3633571Y-12767762D01*
X3985952Y-12853476D02*
X3985952Y-12653476D01*
X4071667Y-12853476D02*
X4071667Y-12748714D01*
X4062143Y-12729667D01*
X4043095Y-12720143D01*
X4014524Y-12720143D01*
X3995476Y-12729667D01*
X3985952Y-12739190D01*
X4195476Y-12853476D02*
X4176428Y-12843952D01*
X4166905Y-12834428D01*
X4157381Y-12815381D01*
X4157381Y-12758238D01*
X4166905Y-12739190D01*
X4176428Y-12729667D01*
X4195476Y-12720143D01*
X4224048Y-12720143D01*
X4243095Y-12729667D01*
X4252619Y-12739190D01*
X4262143Y-12758238D01*
X4262143Y-12815381D01*
X4252619Y-12834428D01*
X4243095Y-12843952D01*
X4224048Y-12853476D01*
X4195476Y-12853476D01*
X4376429Y-12853476D02*
X4357381Y-12843952D01*
X4347857Y-12824905D01*
X4347857Y-12653476D01*
X4528810Y-12843952D02*
X4509762Y-12853476D01*
X4471667Y-12853476D01*
X4452619Y-12843952D01*
X4443095Y-12824905D01*
X4443095Y-12748714D01*
X4452619Y-12729667D01*
X4471667Y-12720143D01*
X4509762Y-12720143D01*
X4528810Y-12729667D01*
X4538333Y-12748714D01*
X4538333Y-12767762D01*
X4443095Y-12786809D01*
X4614524Y-12843952D02*
X4633571Y-12853476D01*
X4671667Y-12853476D01*
X4690714Y-12843952D01*
X4700238Y-12824905D01*
X4700238Y-12815381D01*
X4690714Y-12796333D01*
X4671667Y-12786809D01*
X4643095Y-12786809D01*
X4624048Y-12777286D01*
X4614524Y-12758238D01*
X4614524Y-12748714D01*
X4624048Y-12729667D01*
X4643095Y-12720143D01*
X4671667Y-12720143D01*
X4690714Y-12729667D01*
X4766905Y-12929667D02*
X4776429Y-12920143D01*
X4795476Y-12891571D01*
X4805000Y-12872524D01*
X4814524Y-12843952D01*
X4824048Y-12796333D01*
X4824048Y-12758238D01*
X4814524Y-12710619D01*
X4805000Y-12682048D01*
X4795476Y-12663000D01*
X4776429Y-12634428D01*
X4766905Y-12624905D01*
X-105000Y-12953000D02*
X-105000Y-13153000D01*
X-205000Y-13053000D02*
X-5000Y-13053000D01*
X-5000Y-13053000D02*
G75*
G03*
X-5000Y-13053000I-100000J0D01*
G01*
X243095Y-12962524D02*
X252619Y-12953000D01*
X271667Y-12943476D01*
X319286Y-12943476D01*
X338333Y-12953000D01*
X347857Y-12962524D01*
X357381Y-12981571D01*
X357381Y-13000619D01*
X347857Y-13029190D01*
X233571Y-13143476D01*
X357381Y-13143476D01*
X443095Y-13124428D02*
X452619Y-13133952D01*
X443095Y-13143476D01*
X433571Y-13133952D01*
X443095Y-13124428D01*
X443095Y-13143476D01*
X519286Y-12943476D02*
X652619Y-12943476D01*
X566905Y-13143476D01*
X766905Y-12943476D02*
X785952Y-12943476D01*
X805000Y-12953000D01*
X814524Y-12962524D01*
X824048Y-12981571D01*
X833571Y-13019667D01*
X833571Y-13067286D01*
X824048Y-13105381D01*
X814524Y-13124428D01*
X805000Y-13133952D01*
X785952Y-13143476D01*
X766905Y-13143476D01*
X747857Y-13133952D01*
X738333Y-13124428D01*
X728809Y-13105381D01*
X719286Y-13067286D01*
X719286Y-13019667D01*
X728809Y-12981571D01*
X738333Y-12962524D01*
X747857Y-12953000D01*
X766905Y-12943476D01*
X957381Y-12943476D02*
X976428Y-12943476D01*
X995476Y-12953000D01*
X1005000Y-12962524D01*
X1014524Y-12981571D01*
X1024048Y-13019667D01*
X1024048Y-13067286D01*
X1014524Y-13105381D01*
X1005000Y-13124428D01*
X995476Y-13133952D01*
X976428Y-13143476D01*
X957381Y-13143476D01*
X938333Y-13133952D01*
X928809Y-13124428D01*
X919286Y-13105381D01*
X909762Y-13067286D01*
X909762Y-13019667D01*
X919286Y-12981571D01*
X928809Y-12962524D01*
X938333Y-12953000D01*
X957381Y-12943476D01*
X1109762Y-13143476D02*
X1109762Y-13010143D01*
X1109762Y-13029190D02*
X1119286Y-13019667D01*
X1138333Y-13010143D01*
X1166905Y-13010143D01*
X1185952Y-13019667D01*
X1195476Y-13038714D01*
X1195476Y-13143476D01*
X1195476Y-13038714D02*
X1205000Y-13019667D01*
X1224048Y-13010143D01*
X1252619Y-13010143D01*
X1271667Y-13019667D01*
X1281190Y-13038714D01*
X1281190Y-13143476D01*
X1376429Y-13143476D02*
X1376429Y-13010143D01*
X1376429Y-13029190D02*
X1385952Y-13019667D01*
X1405000Y-13010143D01*
X1433571Y-13010143D01*
X1452619Y-13019667D01*
X1462143Y-13038714D01*
X1462143Y-13143476D01*
X1462143Y-13038714D02*
X1471667Y-13019667D01*
X1490714Y-13010143D01*
X1519286Y-13010143D01*
X1538333Y-13019667D01*
X1547857Y-13038714D01*
X1547857Y-13143476D01*
X1938333Y-12933952D02*
X1766905Y-13191095D01*
X2195476Y-12943476D02*
X2214524Y-12943476D01*
X2233571Y-12953000D01*
X2243095Y-12962524D01*
X2252619Y-12981571D01*
X2262143Y-13019667D01*
X2262143Y-13067286D01*
X2252619Y-13105381D01*
X2243095Y-13124428D01*
X2233571Y-13133952D01*
X2214524Y-13143476D01*
X2195476Y-13143476D01*
X2176429Y-13133952D01*
X2166905Y-13124428D01*
X2157381Y-13105381D01*
X2147857Y-13067286D01*
X2147857Y-13019667D01*
X2157381Y-12981571D01*
X2166905Y-12962524D01*
X2176429Y-12953000D01*
X2195476Y-12943476D01*
X2347857Y-13124428D02*
X2357381Y-13133952D01*
X2347857Y-13143476D01*
X2338333Y-13133952D01*
X2347857Y-13124428D01*
X2347857Y-13143476D01*
X2547857Y-13143476D02*
X2433571Y-13143476D01*
X2490714Y-13143476D02*
X2490714Y-12943476D01*
X2471667Y-12972048D01*
X2452619Y-12991095D01*
X2433571Y-13000619D01*
X2671667Y-12943476D02*
X2690714Y-12943476D01*
X2709762Y-12953000D01*
X2719286Y-12962524D01*
X2728810Y-12981571D01*
X2738333Y-13019667D01*
X2738333Y-13067286D01*
X2728810Y-13105381D01*
X2719286Y-13124428D01*
X2709762Y-13133952D01*
X2690714Y-13143476D01*
X2671667Y-13143476D01*
X2652619Y-13133952D01*
X2643095Y-13124428D01*
X2633571Y-13105381D01*
X2624048Y-13067286D01*
X2624048Y-13019667D01*
X2633571Y-12981571D01*
X2643095Y-12962524D01*
X2652619Y-12953000D01*
X2671667Y-12943476D01*
X2909762Y-12943476D02*
X2871667Y-12943476D01*
X2852619Y-12953000D01*
X2843095Y-12962524D01*
X2824048Y-12991095D01*
X2814524Y-13029190D01*
X2814524Y-13105381D01*
X2824048Y-13124428D01*
X2833571Y-13133952D01*
X2852619Y-13143476D01*
X2890714Y-13143476D01*
X2909762Y-13133952D01*
X2919286Y-13124428D01*
X2928809Y-13105381D01*
X2928809Y-13057762D01*
X2919286Y-13038714D01*
X2909762Y-13029190D01*
X2890714Y-13019667D01*
X2852619Y-13019667D01*
X2833571Y-13029190D01*
X2824048Y-13038714D01*
X2814524Y-13057762D01*
X2995476Y-12943476D02*
X3119286Y-12943476D01*
X3052619Y-13019667D01*
X3081190Y-13019667D01*
X3100238Y-13029190D01*
X3109762Y-13038714D01*
X3119286Y-13057762D01*
X3119286Y-13105381D01*
X3109762Y-13124428D01*
X3100238Y-13133952D01*
X3081190Y-13143476D01*
X3024048Y-13143476D01*
X3005000Y-13133952D01*
X2995476Y-13124428D01*
X3195476Y-12943476D02*
X3195476Y-12981571D01*
X3271667Y-12943476D02*
X3271667Y-12981571D01*
X3566905Y-13219667D02*
X3557381Y-13210143D01*
X3538333Y-13181571D01*
X3528809Y-13162524D01*
X3519286Y-13133952D01*
X3509762Y-13086333D01*
X3509762Y-13048238D01*
X3519286Y-13000619D01*
X3528809Y-12972048D01*
X3538333Y-12953000D01*
X3557381Y-12924428D01*
X3566905Y-12914905D01*
X3728809Y-13010143D02*
X3728809Y-13143476D01*
X3681190Y-12933952D02*
X3633571Y-13076809D01*
X3757381Y-13076809D01*
X3985952Y-13143476D02*
X3985952Y-12943476D01*
X4071667Y-13143476D02*
X4071667Y-13038714D01*
X4062143Y-13019667D01*
X4043095Y-13010143D01*
X4014524Y-13010143D01*
X3995476Y-13019667D01*
X3985952Y-13029190D01*
X4195476Y-13143476D02*
X4176428Y-13133952D01*
X4166905Y-13124428D01*
X4157381Y-13105381D01*
X4157381Y-13048238D01*
X4166905Y-13029190D01*
X4176428Y-13019667D01*
X4195476Y-13010143D01*
X4224048Y-13010143D01*
X4243095Y-13019667D01*
X4252619Y-13029190D01*
X4262143Y-13048238D01*
X4262143Y-13105381D01*
X4252619Y-13124428D01*
X4243095Y-13133952D01*
X4224048Y-13143476D01*
X4195476Y-13143476D01*
X4376429Y-13143476D02*
X4357381Y-13133952D01*
X4347857Y-13114905D01*
X4347857Y-12943476D01*
X4528810Y-13133952D02*
X4509762Y-13143476D01*
X4471667Y-13143476D01*
X4452619Y-13133952D01*
X4443095Y-13114905D01*
X4443095Y-13038714D01*
X4452619Y-13019667D01*
X4471667Y-13010143D01*
X4509762Y-13010143D01*
X4528810Y-13019667D01*
X4538333Y-13038714D01*
X4538333Y-13057762D01*
X4443095Y-13076809D01*
X4614524Y-13133952D02*
X4633571Y-13143476D01*
X4671667Y-13143476D01*
X4690714Y-13133952D01*
X4700238Y-13114905D01*
X4700238Y-13105381D01*
X4690714Y-13086333D01*
X4671667Y-13076809D01*
X4643095Y-13076809D01*
X4624048Y-13067286D01*
X4614524Y-13048238D01*
X4614524Y-13038714D01*
X4624048Y-13019667D01*
X4643095Y-13010143D01*
X4671667Y-13010143D01*
X4690714Y-13019667D01*
X4766905Y-13219667D02*
X4776429Y-13210143D01*
X4795476Y-13181571D01*
X4805000Y-13162524D01*
X4814524Y-13133952D01*
X4824048Y-13086333D01*
X4824048Y-13048238D01*
X4814524Y-13000619D01*
X4805000Y-12972048D01*
X4795476Y-12953000D01*
X4776429Y-12924428D01*
X4766905Y-12914905D01*
M02*
