G04 #@! TF.GenerationSoftware,KiCad,Pcbnew,(6.0.0)*
G04 #@! TF.CreationDate,2022-07-08T19:13:56+08:00*
G04 #@! TF.ProjectId,kirdy,6b697264-792e-46b6-9963-61645f706362,rev?*
G04 #@! TF.SameCoordinates,Original*
G04 #@! TF.FileFunction,Paste,Top*
G04 #@! TF.FilePolarity,Positive*
%FSLAX46Y46*%
G04 Gerber Fmt 4.6, Leading zero omitted, Abs format (unit mm)*
G04 Created by KiCad (PCBNEW (6.0.0)) date 2022-07-08 19:13:56*
%MOMM*%
%LPD*%
G01*
G04 APERTURE LIST*
G04 Aperture macros list*
%AMRoundRect*
0 Rectangle with rounded corners*
0 $1 Rounding radius*
0 $2 $3 $4 $5 $6 $7 $8 $9 X,Y pos of 4 corners*
0 Add a 4 corners polygon primitive as box body*
4,1,4,$2,$3,$4,$5,$6,$7,$8,$9,$2,$3,0*
0 Add four circle primitives for the rounded corners*
1,1,$1+$1,$2,$3*
1,1,$1+$1,$4,$5*
1,1,$1+$1,$6,$7*
1,1,$1+$1,$8,$9*
0 Add four rect primitives between the rounded corners*
20,1,$1+$1,$2,$3,$4,$5,0*
20,1,$1+$1,$4,$5,$6,$7,0*
20,1,$1+$1,$6,$7,$8,$9,0*
20,1,$1+$1,$8,$9,$2,$3,0*%
G04 Aperture macros list end*
%ADD10RoundRect,0.200000X0.200000X0.275000X-0.200000X0.275000X-0.200000X-0.275000X0.200000X-0.275000X0*%
%ADD11RoundRect,0.200000X-0.200000X-0.275000X0.200000X-0.275000X0.200000X0.275000X-0.200000X0.275000X0*%
%ADD12RoundRect,0.225000X-0.225000X-0.250000X0.225000X-0.250000X0.225000X0.250000X-0.225000X0.250000X0*%
%ADD13RoundRect,0.225000X0.225000X0.250000X-0.225000X0.250000X-0.225000X-0.250000X0.225000X-0.250000X0*%
%ADD14RoundRect,0.150000X0.150000X-0.587500X0.150000X0.587500X-0.150000X0.587500X-0.150000X-0.587500X0*%
%ADD15RoundRect,0.250000X-0.475000X0.250000X-0.475000X-0.250000X0.475000X-0.250000X0.475000X0.250000X0*%
%ADD16RoundRect,0.250000X1.075000X-0.375000X1.075000X0.375000X-1.075000X0.375000X-1.075000X-0.375000X0*%
%ADD17RoundRect,0.225000X0.250000X-0.225000X0.250000X0.225000X-0.250000X0.225000X-0.250000X-0.225000X0*%
%ADD18RoundRect,0.075000X-0.725000X-0.075000X0.725000X-0.075000X0.725000X0.075000X-0.725000X0.075000X0*%
%ADD19RoundRect,0.075000X-0.075000X-0.725000X0.075000X-0.725000X0.075000X0.725000X-0.075000X0.725000X0*%
%ADD20RoundRect,0.200000X-0.275000X0.200000X-0.275000X-0.200000X0.275000X-0.200000X0.275000X0.200000X0*%
%ADD21RoundRect,0.200000X0.275000X-0.200000X0.275000X0.200000X-0.275000X0.200000X-0.275000X-0.200000X0*%
%ADD22R,2.300000X2.500000*%
%ADD23R,2.900000X5.400000*%
%ADD24RoundRect,0.250000X0.250000X0.475000X-0.250000X0.475000X-0.250000X-0.475000X0.250000X-0.475000X0*%
%ADD25RoundRect,0.230000X-0.230000X-0.375000X0.230000X-0.375000X0.230000X0.375000X-0.230000X0.375000X0*%
%ADD26RoundRect,0.150000X-0.825000X-0.150000X0.825000X-0.150000X0.825000X0.150000X-0.825000X0.150000X0*%
%ADD27RoundRect,0.250000X0.475000X-0.250000X0.475000X0.250000X-0.475000X0.250000X-0.475000X-0.250000X0*%
%ADD28RoundRect,0.150000X0.150000X-0.512500X0.150000X0.512500X-0.150000X0.512500X-0.150000X-0.512500X0*%
%ADD29RoundRect,0.249999X-0.450001X-1.450001X0.450001X-1.450001X0.450001X1.450001X-0.450001X1.450001X0*%
%ADD30RoundRect,0.225000X-0.250000X0.225000X-0.250000X-0.225000X0.250000X-0.225000X0.250000X0.225000X0*%
%ADD31R,1.450000X0.600000*%
%ADD32R,1.450000X0.300000*%
%ADD33RoundRect,0.167500X-0.167500X-0.407500X0.167500X-0.407500X0.167500X0.407500X-0.167500X0.407500X0*%
%ADD34RoundRect,0.100000X-0.625000X-0.100000X0.625000X-0.100000X0.625000X0.100000X-0.625000X0.100000X0*%
%ADD35R,0.740000X2.400000*%
%ADD36R,2.000000X1.500000*%
%ADD37R,2.000000X3.800000*%
%ADD38RoundRect,0.167500X0.167500X0.407500X-0.167500X0.407500X-0.167500X-0.407500X0.167500X-0.407500X0*%
%ADD39RoundRect,0.100000X0.625000X0.100000X-0.625000X0.100000X-0.625000X-0.100000X0.625000X-0.100000X0*%
%ADD40RoundRect,0.250000X0.850000X-0.375000X0.850000X0.375000X-0.850000X0.375000X-0.850000X-0.375000X0*%
%ADD41R,0.900000X0.800000*%
%ADD42RoundRect,0.250000X0.325000X0.650000X-0.325000X0.650000X-0.325000X-0.650000X0.325000X-0.650000X0*%
%ADD43R,3.700000X0.980000*%
%ADD44RoundRect,0.250000X-0.250000X-0.475000X0.250000X-0.475000X0.250000X0.475000X-0.250000X0.475000X0*%
%ADD45RoundRect,0.150000X-0.150000X0.825000X-0.150000X-0.825000X0.150000X-0.825000X0.150000X0.825000X0*%
%ADD46R,1.000000X1.050000*%
%ADD47R,1.050000X2.200000*%
%ADD48RoundRect,0.099900X1.250100X-1.250100X1.250100X1.250100X-1.250100X1.250100X-1.250100X-1.250100X0*%
%ADD49RoundRect,0.250000X-0.375000X-1.075000X0.375000X-1.075000X0.375000X1.075000X-0.375000X1.075000X0*%
%ADD50R,0.600000X0.450000*%
%ADD51RoundRect,0.250000X0.787500X1.025000X-0.787500X1.025000X-0.787500X-1.025000X0.787500X-1.025000X0*%
%ADD52RoundRect,0.250000X-0.325000X-0.650000X0.325000X-0.650000X0.325000X0.650000X-0.325000X0.650000X0*%
%ADD53RoundRect,0.100000X-0.637500X-0.100000X0.637500X-0.100000X0.637500X0.100000X-0.637500X0.100000X0*%
%ADD54RoundRect,0.015000X0.275000X-0.135000X0.275000X0.135000X-0.275000X0.135000X-0.275000X-0.135000X0*%
%ADD55RoundRect,0.250000X-0.325000X-1.100000X0.325000X-1.100000X0.325000X1.100000X-0.325000X1.100000X0*%
%ADD56RoundRect,0.250000X-1.075000X0.375000X-1.075000X-0.375000X1.075000X-0.375000X1.075000X0.375000X0*%
%ADD57RoundRect,0.150000X-0.150000X0.587500X-0.150000X-0.587500X0.150000X-0.587500X0.150000X0.587500X0*%
%ADD58R,1.000000X3.150000*%
%ADD59R,2.000000X1.780000*%
%ADD60RoundRect,0.250000X1.075000X-0.362500X1.075000X0.362500X-1.075000X0.362500X-1.075000X-0.362500X0*%
%ADD61RoundRect,0.150000X0.825000X0.150000X-0.825000X0.150000X-0.825000X-0.150000X0.825000X-0.150000X0*%
%ADD62R,2.550000X1.550000*%
%ADD63RoundRect,0.249999X1.450001X-0.450001X1.450001X0.450001X-1.450001X0.450001X-1.450001X-0.450001X0*%
%ADD64RoundRect,0.250000X-0.787500X-1.025000X0.787500X-1.025000X0.787500X1.025000X-0.787500X1.025000X0*%
%ADD65RoundRect,0.250000X0.275000X-0.275000X0.275000X0.275000X-0.275000X0.275000X-0.275000X-0.275000X0*%
%ADD66RoundRect,0.062500X0.062500X-0.350000X0.062500X0.350000X-0.062500X0.350000X-0.062500X-0.350000X0*%
%ADD67RoundRect,0.062500X0.350000X-0.062500X0.350000X0.062500X-0.350000X0.062500X-0.350000X-0.062500X0*%
%ADD68RoundRect,0.250000X1.025000X-0.787500X1.025000X0.787500X-1.025000X0.787500X-1.025000X-0.787500X0*%
%ADD69RoundRect,0.250000X0.450000X-0.262500X0.450000X0.262500X-0.450000X0.262500X-0.450000X-0.262500X0*%
%ADD70R,0.980000X3.700000*%
%ADD71RoundRect,0.250000X-1.025000X0.787500X-1.025000X-0.787500X1.025000X-0.787500X1.025000X0.787500X0*%
%ADD72RoundRect,0.167500X-0.407500X0.167500X-0.407500X-0.167500X0.407500X-0.167500X0.407500X0.167500X0*%
%ADD73RoundRect,0.100000X-0.100000X0.625000X-0.100000X-0.625000X0.100000X-0.625000X0.100000X0.625000X0*%
%ADD74RoundRect,0.250000X0.325000X1.100000X-0.325000X1.100000X-0.325000X-1.100000X0.325000X-1.100000X0*%
%ADD75RoundRect,0.250000X1.100000X-0.325000X1.100000X0.325000X-1.100000X0.325000X-1.100000X-0.325000X0*%
%ADD76R,1.150000X0.630000*%
%ADD77R,0.700000X0.250000*%
%ADD78RoundRect,0.250001X1.924999X-0.899999X1.924999X0.899999X-1.924999X0.899999X-1.924999X-0.899999X0*%
%ADD79RoundRect,0.100000X0.100000X-0.637500X0.100000X0.637500X-0.100000X0.637500X-0.100000X-0.637500X0*%
%ADD80RoundRect,0.125000X-0.125000X0.537500X-0.125000X-0.537500X0.125000X-0.537500X0.125000X0.537500X0*%
%ADD81RoundRect,0.170000X-0.170000X-0.210000X0.170000X-0.210000X0.170000X0.210000X-0.170000X0.210000X0*%
%ADD82RoundRect,0.075000X-0.650000X-0.075000X0.650000X-0.075000X0.650000X0.075000X-0.650000X0.075000X0*%
%ADD83RoundRect,0.150000X0.587500X0.150000X-0.587500X0.150000X-0.587500X-0.150000X0.587500X-0.150000X0*%
%ADD84R,0.820000X0.820000*%
%ADD85R,0.850000X0.280000*%
%ADD86R,0.280000X0.850000*%
%ADD87RoundRect,0.249999X-1.450001X0.450001X-1.450001X-0.450001X1.450001X-0.450001X1.450001X0.450001X0*%
%ADD88RoundRect,0.170000X0.210000X-0.170000X0.210000X0.170000X-0.210000X0.170000X-0.210000X-0.170000X0*%
%ADD89RoundRect,0.075000X0.075000X-0.650000X0.075000X0.650000X-0.075000X0.650000X-0.075000X-0.650000X0*%
%ADD90R,2.400000X2.000000*%
%ADD91R,1.500000X1.500000*%
%ADD92R,0.750000X0.500000*%
%ADD93R,0.750000X0.400000*%
%ADD94R,1.500000X1.100000*%
%ADD95R,0.450000X0.600000*%
%ADD96RoundRect,0.250000X-1.100000X0.325000X-1.100000X-0.325000X1.100000X-0.325000X1.100000X0.325000X0*%
%ADD97RoundRect,0.249999X0.450001X1.450001X-0.450001X1.450001X-0.450001X-1.450001X0.450001X-1.450001X0*%
%ADD98RoundRect,0.250000X0.625000X-0.312500X0.625000X0.312500X-0.625000X0.312500X-0.625000X-0.312500X0*%
%ADD99RoundRect,0.250000X0.375000X1.075000X-0.375000X1.075000X-0.375000X-1.075000X0.375000X-1.075000X0*%
%ADD100R,1.295400X0.635000*%
%ADD101R,0.635000X1.295400*%
%ADD102R,0.635000X2.311400*%
%ADD103RoundRect,0.250000X-0.650000X0.325000X-0.650000X-0.325000X0.650000X-0.325000X0.650000X0.325000X0*%
%ADD104RoundRect,0.150000X-0.512500X-0.150000X0.512500X-0.150000X0.512500X0.150000X-0.512500X0.150000X0*%
%ADD105RoundRect,0.150000X-0.587500X-0.150000X0.587500X-0.150000X0.587500X0.150000X-0.587500X0.150000X0*%
G04 APERTURE END LIST*
D10*
X38925800Y-53117000D03*
X37275800Y-53117000D03*
X64469800Y-87521000D03*
X62819800Y-87521000D03*
D11*
X80991000Y-89515000D03*
X82641000Y-89515000D03*
D12*
X37325800Y-56165000D03*
X38875800Y-56165000D03*
D13*
X149189800Y-82022000D03*
X147639800Y-82022000D03*
D14*
X80104000Y-75949100D03*
X82004000Y-75949100D03*
X81054000Y-74074100D03*
D15*
X107978000Y-88793600D03*
X107978000Y-90693600D03*
D16*
X34077000Y-41128000D03*
X34077000Y-38328000D03*
D17*
X111838800Y-64661400D03*
X111838800Y-63111400D03*
D12*
X65953400Y-42534800D03*
X67503400Y-42534800D03*
D18*
X37156000Y-24226000D03*
X37156000Y-24726000D03*
X37156000Y-25226000D03*
X37156000Y-25726000D03*
X37156000Y-26226000D03*
X37156000Y-26726000D03*
X37156000Y-27226000D03*
X37156000Y-27726000D03*
X37156000Y-28226000D03*
X37156000Y-28726000D03*
X37156000Y-29226000D03*
X37156000Y-29726000D03*
X37156000Y-30226000D03*
X37156000Y-30726000D03*
X37156000Y-31226000D03*
X37156000Y-31726000D03*
X37156000Y-32226000D03*
X37156000Y-32726000D03*
X37156000Y-33226000D03*
X37156000Y-33726000D03*
X37156000Y-34226000D03*
X37156000Y-34726000D03*
X37156000Y-35226000D03*
X37156000Y-35726000D03*
X37156000Y-36226000D03*
D19*
X38831000Y-37901000D03*
X39331000Y-37901000D03*
X39831000Y-37901000D03*
X40331000Y-37901000D03*
X40831000Y-37901000D03*
X41331000Y-37901000D03*
X41831000Y-37901000D03*
X42331000Y-37901000D03*
X42831000Y-37901000D03*
X43331000Y-37901000D03*
X43831000Y-37901000D03*
X44331000Y-37901000D03*
X44831000Y-37901000D03*
X45331000Y-37901000D03*
X45831000Y-37901000D03*
X46331000Y-37901000D03*
X46831000Y-37901000D03*
X47331000Y-37901000D03*
X47831000Y-37901000D03*
X48331000Y-37901000D03*
X48831000Y-37901000D03*
X49331000Y-37901000D03*
X49831000Y-37901000D03*
X50331000Y-37901000D03*
X50831000Y-37901000D03*
D18*
X52506000Y-36226000D03*
X52506000Y-35726000D03*
X52506000Y-35226000D03*
X52506000Y-34726000D03*
X52506000Y-34226000D03*
X52506000Y-33726000D03*
X52506000Y-33226000D03*
X52506000Y-32726000D03*
X52506000Y-32226000D03*
X52506000Y-31726000D03*
X52506000Y-31226000D03*
X52506000Y-30726000D03*
X52506000Y-30226000D03*
X52506000Y-29726000D03*
X52506000Y-29226000D03*
X52506000Y-28726000D03*
X52506000Y-28226000D03*
X52506000Y-27726000D03*
X52506000Y-27226000D03*
X52506000Y-26726000D03*
X52506000Y-26226000D03*
X52506000Y-25726000D03*
X52506000Y-25226000D03*
X52506000Y-24726000D03*
X52506000Y-24226000D03*
D19*
X50831000Y-22551000D03*
X50331000Y-22551000D03*
X49831000Y-22551000D03*
X49331000Y-22551000D03*
X48831000Y-22551000D03*
X48331000Y-22551000D03*
X47831000Y-22551000D03*
X47331000Y-22551000D03*
X46831000Y-22551000D03*
X46331000Y-22551000D03*
X45831000Y-22551000D03*
X45331000Y-22551000D03*
X44831000Y-22551000D03*
X44331000Y-22551000D03*
X43831000Y-22551000D03*
X43331000Y-22551000D03*
X42831000Y-22551000D03*
X42331000Y-22551000D03*
X41831000Y-22551000D03*
X41331000Y-22551000D03*
X40831000Y-22551000D03*
X40331000Y-22551000D03*
X39831000Y-22551000D03*
X39331000Y-22551000D03*
X38831000Y-22551000D03*
D17*
X115648800Y-64661400D03*
X115648800Y-63111400D03*
D10*
X38925800Y-54641000D03*
X37275800Y-54641000D03*
D17*
X108028800Y-67760200D03*
X108028800Y-66210200D03*
D15*
X86106000Y-55537400D03*
X86106000Y-57437400D03*
D20*
X118773000Y-87547000D03*
X118773000Y-89197000D03*
D10*
X41973800Y-53117000D03*
X40323800Y-53117000D03*
D21*
X144833400Y-89210000D03*
X144833400Y-87560000D03*
D20*
X113413600Y-63061400D03*
X113413600Y-64711400D03*
D10*
X156834400Y-8362000D03*
X155184400Y-8362000D03*
D17*
X91770200Y-60986000D03*
X91770200Y-59436000D03*
D22*
X14351000Y-78749000D03*
X14351000Y-83049000D03*
D12*
X65953400Y-34635400D03*
X67503400Y-34635400D03*
D23*
X20466800Y-85307000D03*
X30366800Y-85307000D03*
D24*
X71226800Y-46504300D03*
X69326800Y-46504300D03*
D25*
X116422000Y-13176000D03*
X116422000Y-11676000D03*
X115282000Y-13176000D03*
X115282000Y-11676000D03*
D26*
X113377000Y-10521000D03*
X113377000Y-11791000D03*
X113377000Y-13061000D03*
X113377000Y-14331000D03*
X118327000Y-14331000D03*
X118327000Y-13061000D03*
X118327000Y-11791000D03*
X118327000Y-10521000D03*
D27*
X89029600Y-77536400D03*
X89029600Y-75636400D03*
D28*
X26482800Y-53492500D03*
X27432800Y-53492500D03*
X28382800Y-53492500D03*
X28382800Y-51217500D03*
X27432800Y-51217500D03*
X26482800Y-51217500D03*
D21*
X47793000Y-41947000D03*
X47793000Y-40297000D03*
D29*
X152890000Y-25781000D03*
X156990000Y-25781000D03*
D20*
X109603600Y-63061400D03*
X109603600Y-64711400D03*
D11*
X99581200Y-47358600D03*
X101231200Y-47358600D03*
D13*
X131536800Y-89426400D03*
X129986800Y-89426400D03*
D30*
X91770200Y-44869400D03*
X91770200Y-46419400D03*
X117186000Y-87571600D03*
X117186000Y-89121600D03*
D13*
X101232000Y-41389600D03*
X99682000Y-41389600D03*
D27*
X151684000Y-12474000D03*
X151684000Y-10574000D03*
D20*
X17325400Y-45230600D03*
X17325400Y-46880600D03*
X117223600Y-66160200D03*
X117223600Y-67810200D03*
D11*
X78019200Y-38875000D03*
X79669200Y-38875000D03*
D12*
X93332000Y-55880000D03*
X94882000Y-55880000D03*
D16*
X70335200Y-51324000D03*
X70335200Y-48524000D03*
D21*
X89436000Y-85895000D03*
X89436000Y-84245000D03*
D15*
X101473000Y-59515000D03*
X101473000Y-61415000D03*
D31*
X6638400Y-42742600D03*
X6638400Y-43542600D03*
D32*
X6638400Y-44742600D03*
X6638400Y-45742600D03*
X6638400Y-46242600D03*
X6638400Y-47242600D03*
D31*
X6638400Y-48442600D03*
X6638400Y-49242600D03*
X6638400Y-49242600D03*
X6638400Y-48442600D03*
D32*
X6638400Y-47742600D03*
X6638400Y-46742600D03*
X6638400Y-45242600D03*
X6638400Y-44242600D03*
D31*
X6638400Y-43542600D03*
X6638400Y-42742600D03*
D16*
X85191600Y-41799000D03*
X85191600Y-38999000D03*
D15*
X101473000Y-49583600D03*
X101473000Y-51483600D03*
D12*
X99936000Y-57975800D03*
X101486000Y-57975800D03*
D15*
X89992200Y-65712600D03*
X89992200Y-67612600D03*
D12*
X90743800Y-77551600D03*
X92293800Y-77551600D03*
D10*
X79669200Y-40399000D03*
X78019200Y-40399000D03*
D30*
X133632000Y-34765000D03*
X133632000Y-36315000D03*
D33*
X96142600Y-45277000D03*
X95322600Y-45277000D03*
X96142600Y-46697000D03*
X95322600Y-46697000D03*
D34*
X93582600Y-44362000D03*
X93582600Y-45012000D03*
X93582600Y-45662000D03*
X93582600Y-46312000D03*
X93582600Y-46962000D03*
X93582600Y-47612000D03*
X97882600Y-47612000D03*
X97882600Y-46962000D03*
X97882600Y-46312000D03*
X97882600Y-45662000D03*
X97882600Y-45012000D03*
X97882600Y-44362000D03*
D30*
X99695000Y-59486800D03*
X99695000Y-61036800D03*
D21*
X32004800Y-51402000D03*
X32004800Y-49752000D03*
D27*
X101523800Y-39799600D03*
X101523800Y-37899600D03*
D35*
X52060200Y-15105200D03*
X52060200Y-19005200D03*
X50790200Y-15105200D03*
X50790200Y-19005200D03*
X49520200Y-15105200D03*
X49520200Y-19005200D03*
X48250200Y-15105200D03*
X48250200Y-19005200D03*
X46980200Y-15105200D03*
X46980200Y-19005200D03*
D36*
X105540000Y-90545000D03*
D37*
X99240000Y-88245000D03*
D36*
X105540000Y-88245000D03*
X105540000Y-85945000D03*
D15*
X89992200Y-44935400D03*
X89992200Y-46835400D03*
D20*
X117223600Y-63061400D03*
X117223600Y-64711400D03*
D11*
X118047000Y-23114000D03*
X119697000Y-23114000D03*
D10*
X88836000Y-64122600D03*
X87186000Y-64122600D03*
D12*
X55003400Y-25400000D03*
X56553400Y-25400000D03*
D10*
X22923800Y-61245000D03*
X21273800Y-61245000D03*
D30*
X113284000Y-79362000D03*
X113284000Y-80912000D03*
D15*
X128171000Y-83294800D03*
X128171000Y-85194800D03*
D38*
X96142600Y-64835000D03*
X96142600Y-66255000D03*
X95322600Y-64835000D03*
X95322600Y-66255000D03*
D39*
X97882600Y-67170000D03*
X97882600Y-66520000D03*
X97882600Y-65870000D03*
X97882600Y-65220000D03*
X97882600Y-64570000D03*
X97882600Y-63920000D03*
X93582600Y-63920000D03*
X93582600Y-64570000D03*
X93582600Y-65220000D03*
X93582600Y-65870000D03*
X93582600Y-66520000D03*
X93582600Y-67170000D03*
D40*
X79375000Y-56124400D03*
X79375000Y-53974400D03*
D11*
X2731000Y-9652000D03*
X4381000Y-9652000D03*
D38*
X96142600Y-60159000D03*
X95322600Y-60159000D03*
X95322600Y-58739000D03*
X96142600Y-58739000D03*
D39*
X97882600Y-61074000D03*
X97882600Y-60424000D03*
X97882600Y-59774000D03*
X97882600Y-59124000D03*
X97882600Y-58474000D03*
X97882600Y-57824000D03*
X93582600Y-57824000D03*
X93582600Y-58474000D03*
X93582600Y-59124000D03*
X93582600Y-59774000D03*
X93582600Y-60424000D03*
X93582600Y-61074000D03*
D41*
X33150000Y-63627000D03*
X31750000Y-63627000D03*
X31750000Y-64727000D03*
X33150000Y-64727000D03*
D20*
X124841000Y-18479000D03*
X124841000Y-20129000D03*
D13*
X34852000Y-36296000D03*
X33302000Y-36296000D03*
D30*
X91770200Y-65684400D03*
X91770200Y-67234400D03*
D42*
X41251400Y-79984600D03*
X38301400Y-79984600D03*
D43*
X92433200Y-86247200D03*
X92433200Y-88617200D03*
D21*
X136284000Y-16553000D03*
X136284000Y-14903000D03*
D15*
X103505000Y-43919400D03*
X103505000Y-45819400D03*
D44*
X90772000Y-75824400D03*
X92672000Y-75824400D03*
D45*
X98298000Y-25973000D03*
X97028000Y-25973000D03*
X95758000Y-25973000D03*
X94488000Y-25973000D03*
X93218000Y-25973000D03*
X91948000Y-25973000D03*
X90678000Y-25973000D03*
X90678000Y-30923000D03*
X91948000Y-30923000D03*
X93218000Y-30923000D03*
X94488000Y-30923000D03*
X95758000Y-30923000D03*
X97028000Y-30923000D03*
X98298000Y-30923000D03*
D13*
X117744600Y-69638800D03*
X116194600Y-69638800D03*
D11*
X109461800Y-12522200D03*
X111111800Y-12522200D03*
D30*
X99695000Y-44297600D03*
X99695000Y-45847600D03*
D46*
X137696000Y-12968000D03*
D47*
X139171000Y-11443000D03*
X136221000Y-11443000D03*
D13*
X115320400Y-33127000D03*
X113770400Y-33127000D03*
D48*
X128286800Y-72890000D03*
X128286800Y-80510000D03*
X134506800Y-80510000D03*
X134506800Y-72890000D03*
D10*
X156908000Y-91567000D03*
X155258000Y-91567000D03*
X22923800Y-59721000D03*
X21273800Y-59721000D03*
D30*
X69522400Y-39321400D03*
X69522400Y-40871400D03*
D49*
X98907200Y-82885600D03*
X101707200Y-82885600D03*
D50*
X109236800Y-10744200D03*
X111336800Y-10744200D03*
D20*
X41697000Y-18707000D03*
X41697000Y-20357000D03*
X146001800Y-73577000D03*
X146001800Y-75227000D03*
D10*
X87365400Y-79482000D03*
X85715400Y-79482000D03*
D21*
X148940800Y-15701800D03*
X148940800Y-14051800D03*
D30*
X120678000Y-10482600D03*
X120678000Y-12032600D03*
D51*
X79586900Y-47215500D03*
X73361900Y-47215500D03*
D30*
X125529400Y-76013600D03*
X125529400Y-77563600D03*
D13*
X152110800Y-76942000D03*
X150560800Y-76942000D03*
D52*
X33401800Y-79973000D03*
X36351800Y-79973000D03*
D12*
X90284000Y-64122600D03*
X91834000Y-64122600D03*
D53*
X133741300Y-85114800D03*
X133741300Y-85764800D03*
X133741300Y-86414800D03*
X133741300Y-87064800D03*
X133741300Y-87714800D03*
X133741300Y-88364800D03*
X133741300Y-89014800D03*
X133741300Y-89664800D03*
X133741300Y-90314800D03*
X133741300Y-90964800D03*
X133741300Y-91614800D03*
X133741300Y-92264800D03*
X139466300Y-92264800D03*
X139466300Y-91614800D03*
X139466300Y-90964800D03*
X139466300Y-90314800D03*
X139466300Y-89664800D03*
X139466300Y-89014800D03*
X139466300Y-88364800D03*
X139466300Y-87714800D03*
X139466300Y-87064800D03*
X139466300Y-86414800D03*
X139466300Y-85764800D03*
X139466300Y-85114800D03*
D13*
X149062800Y-76942000D03*
X147512800Y-76942000D03*
D10*
X38925800Y-57689000D03*
X37275800Y-57689000D03*
D54*
X9558400Y-45568600D03*
X10868400Y-45568600D03*
X10868400Y-45018600D03*
X9558400Y-45018600D03*
D16*
X66728400Y-51336400D03*
X66728400Y-48536400D03*
D20*
X134317800Y-61283400D03*
X134317800Y-62933400D03*
X33528800Y-49752000D03*
X33528800Y-51402000D03*
D12*
X123662200Y-62565600D03*
X125212200Y-62565600D03*
D10*
X22923800Y-53625000D03*
X21273800Y-53625000D03*
D55*
X152830000Y-29464000D03*
X155780000Y-29464000D03*
D56*
X104114600Y-61478000D03*
X104114600Y-64278000D03*
D57*
X30963000Y-39168500D03*
X29063000Y-39168500D03*
X30013000Y-41043500D03*
D15*
X88011000Y-51006000D03*
X88011000Y-52906000D03*
D58*
X149860000Y-27970000D03*
X149860000Y-33020000D03*
X147320000Y-27970000D03*
X147320000Y-33020000D03*
X144780000Y-27970000D03*
X144780000Y-33020000D03*
X142240000Y-27970000D03*
X142240000Y-33020000D03*
X139700000Y-27970000D03*
X139700000Y-33020000D03*
D17*
X115648800Y-67760200D03*
X115648800Y-66210200D03*
D30*
X91821000Y-51181000D03*
X91821000Y-52731000D03*
D59*
X50744800Y-87775000D03*
X50744800Y-90315000D03*
X58364800Y-90315000D03*
X58364800Y-87775000D03*
D21*
X46269000Y-41947000D03*
X46269000Y-40297000D03*
D12*
X102679200Y-47358600D03*
X104229200Y-47358600D03*
X96532400Y-55880000D03*
X98082400Y-55880000D03*
D17*
X153462000Y-12502200D03*
X153462000Y-10952200D03*
D50*
X28963000Y-37058000D03*
X31063000Y-37058000D03*
D25*
X130188000Y-20300000D03*
X130188000Y-18800000D03*
X129048000Y-20300000D03*
X129048000Y-18800000D03*
D26*
X127143000Y-17645000D03*
X127143000Y-18915000D03*
X127143000Y-20185000D03*
X127143000Y-21455000D03*
X132093000Y-21455000D03*
X132093000Y-20185000D03*
X132093000Y-18915000D03*
X132093000Y-17645000D03*
D15*
X87960200Y-39474400D03*
X87960200Y-41374400D03*
D24*
X28382800Y-58197000D03*
X26482800Y-58197000D03*
D21*
X132054600Y-28491000D03*
X132054600Y-26841000D03*
D44*
X65778400Y-46497200D03*
X67678400Y-46497200D03*
D13*
X34852000Y-34772000D03*
X33302000Y-34772000D03*
D12*
X126619000Y-23348000D03*
X128169000Y-23348000D03*
D13*
X34852000Y-28676000D03*
X33302000Y-28676000D03*
D60*
X124361000Y-70936500D03*
X124361000Y-66311500D03*
D21*
X14277400Y-49928600D03*
X14277400Y-48278600D03*
D20*
X87861200Y-84245000D03*
X87861200Y-85895000D03*
D21*
X76454000Y-79057000D03*
X76454000Y-77407000D03*
D61*
X132220800Y-66834000D03*
X132220800Y-65564000D03*
X132220800Y-64294000D03*
X132220800Y-63024000D03*
X127270800Y-63024000D03*
X127270800Y-64294000D03*
X127270800Y-65564000D03*
X127270800Y-66834000D03*
D20*
X109603600Y-66160200D03*
X109603600Y-67810200D03*
D51*
X73978500Y-83820000D03*
X67753500Y-83820000D03*
D62*
X140293000Y-17261000D03*
X140293000Y-15211000D03*
X144243000Y-17261000D03*
X144243000Y-15211000D03*
D63*
X95554800Y-17086800D03*
X95554800Y-12986800D03*
D20*
X134506000Y-14903000D03*
X134506000Y-16553000D03*
D10*
X22923800Y-55149000D03*
X21273800Y-55149000D03*
D30*
X87884000Y-55613000D03*
X87884000Y-57163000D03*
D21*
X94008000Y-79849800D03*
X94008000Y-78199800D03*
D13*
X76444200Y-38875000D03*
X74894200Y-38875000D03*
D21*
X149176800Y-80307000D03*
X149176800Y-78657000D03*
D13*
X131536800Y-90950400D03*
X129986800Y-90950400D03*
D64*
X87668500Y-72089400D03*
X93893500Y-72089400D03*
D10*
X81650400Y-72166800D03*
X80000400Y-72166800D03*
X131586800Y-83254200D03*
X129936800Y-83254200D03*
D11*
X134241600Y-67721800D03*
X135891600Y-67721800D03*
D12*
X141696200Y-89147600D03*
X143246200Y-89147600D03*
D48*
X34244800Y-83021000D03*
X34244800Y-90641000D03*
X40464800Y-90641000D03*
X40464800Y-83021000D03*
D17*
X77241400Y-56268600D03*
X77241400Y-54718600D03*
D10*
X41973800Y-59213000D03*
X40323800Y-59213000D03*
D65*
X32116800Y-55007000D03*
X32116800Y-56307000D03*
X33416800Y-55007000D03*
X33416800Y-56307000D03*
D66*
X31516800Y-57594500D03*
X32016800Y-57594500D03*
X32516800Y-57594500D03*
X33016800Y-57594500D03*
X33516800Y-57594500D03*
X34016800Y-57594500D03*
D67*
X34704300Y-56907000D03*
X34704300Y-56407000D03*
X34704300Y-55907000D03*
X34704300Y-55407000D03*
X34704300Y-54907000D03*
X34704300Y-54407000D03*
D66*
X34016800Y-53719500D03*
X33516800Y-53719500D03*
X33016800Y-53719500D03*
X32516800Y-53719500D03*
X32016800Y-53719500D03*
X31516800Y-53719500D03*
D67*
X30829300Y-54407000D03*
X30829300Y-54907000D03*
X30829300Y-55407000D03*
X30829300Y-55907000D03*
X30829300Y-56407000D03*
X30829300Y-56907000D03*
D44*
X65778400Y-44414400D03*
X67678400Y-44414400D03*
D10*
X64469800Y-89045000D03*
X62819800Y-89045000D03*
D12*
X78069200Y-41932300D03*
X79619200Y-41932300D03*
D27*
X103606600Y-39799600D03*
X103606600Y-37899600D03*
D68*
X104726800Y-76562700D03*
X104726800Y-70337700D03*
D10*
X22923800Y-58197000D03*
X21273800Y-58197000D03*
D69*
X107492800Y-12418700D03*
X107492800Y-10593700D03*
D70*
X119416800Y-68072000D03*
X121786800Y-68072000D03*
D44*
X133494800Y-83432000D03*
X135394800Y-83432000D03*
D15*
X117413400Y-84120000D03*
X117413400Y-86020000D03*
D13*
X87315400Y-81006000D03*
X85765400Y-81006000D03*
D70*
X119391400Y-80713200D03*
X121761400Y-80713200D03*
D30*
X143284000Y-90645000D03*
X143284000Y-92195000D03*
D13*
X34852000Y-33248000D03*
X33302000Y-33248000D03*
D71*
X68199000Y-54222900D03*
X68199000Y-60447900D03*
D21*
X149176800Y-75227000D03*
X149176800Y-73577000D03*
D72*
X151278800Y-16912400D03*
X152698800Y-16912400D03*
X151278800Y-16092400D03*
X152698800Y-16092400D03*
D73*
X153613800Y-14352400D03*
X152963800Y-14352400D03*
X152313800Y-14352400D03*
X151663800Y-14352400D03*
X151013800Y-14352400D03*
X150363800Y-14352400D03*
X150363800Y-18652400D03*
X151013800Y-18652400D03*
X151663800Y-18652400D03*
X152313800Y-18652400D03*
X152963800Y-18652400D03*
X153613800Y-18652400D03*
D74*
X94388200Y-22936200D03*
X91438200Y-22936200D03*
D30*
X123446600Y-79341000D03*
X123446600Y-80891000D03*
D10*
X41973800Y-57689000D03*
X40323800Y-57689000D03*
D12*
X55003400Y-23876000D03*
X56553400Y-23876000D03*
D75*
X100863400Y-31320000D03*
X100863400Y-28370000D03*
D21*
X13462000Y-53530000D03*
X13462000Y-51880000D03*
D76*
X73934400Y-42878900D03*
X73934400Y-42033900D03*
X73934400Y-43723900D03*
X75264400Y-42878900D03*
X75264400Y-43723900D03*
X75264400Y-42033900D03*
X75264400Y-41188900D03*
X73934400Y-41188900D03*
D77*
X76499400Y-43706400D03*
X76499400Y-43206400D03*
X76499400Y-42706400D03*
X76499400Y-42206400D03*
X76499400Y-41706400D03*
X76499400Y-41206400D03*
X72699400Y-41206400D03*
X72699400Y-41706400D03*
X72699400Y-42206400D03*
X72699400Y-42706400D03*
X72699400Y-43206400D03*
X72699400Y-43706400D03*
D17*
X74549000Y-51956000D03*
X74549000Y-50406000D03*
D13*
X131536800Y-86378400D03*
X129986800Y-86378400D03*
D46*
X143030000Y-12968000D03*
D47*
X141555000Y-11443000D03*
X144505000Y-11443000D03*
D10*
X87365400Y-78008800D03*
X85715400Y-78008800D03*
D21*
X47793000Y-45249000D03*
X47793000Y-43599000D03*
D24*
X131788000Y-23602000D03*
X129888000Y-23602000D03*
D52*
X15416000Y-53086000D03*
X18366000Y-53086000D03*
D30*
X123472000Y-72699200D03*
X123472000Y-74249200D03*
D78*
X117452200Y-74515600D03*
D79*
X113227200Y-77378100D03*
X113877200Y-77378100D03*
X114527200Y-77378100D03*
X115177200Y-77378100D03*
X115827200Y-77378100D03*
X116477200Y-77378100D03*
X117127200Y-77378100D03*
X117777200Y-77378100D03*
X118427200Y-77378100D03*
X119077200Y-77378100D03*
X119727200Y-77378100D03*
X120377200Y-77378100D03*
X121027200Y-77378100D03*
X121677200Y-77378100D03*
X121677200Y-71653100D03*
X121027200Y-71653100D03*
X120377200Y-71653100D03*
X119727200Y-71653100D03*
X119077200Y-71653100D03*
X118427200Y-71653100D03*
X117777200Y-71653100D03*
X117127200Y-71653100D03*
X116477200Y-71653100D03*
X115827200Y-71653100D03*
X115177200Y-71653100D03*
X114527200Y-71653100D03*
X113877200Y-71653100D03*
X113227200Y-71653100D03*
D17*
X107774800Y-87089600D03*
X107774800Y-85539600D03*
D13*
X71059400Y-42509400D03*
X69509400Y-42509400D03*
D21*
X60596800Y-88614000D03*
X60596800Y-86964000D03*
D45*
X131727000Y-31033000D03*
X130457000Y-31033000D03*
X129187000Y-31033000D03*
X127917000Y-31033000D03*
X127917000Y-35983000D03*
X129187000Y-35983000D03*
X130457000Y-35983000D03*
X131727000Y-35983000D03*
D27*
X73431400Y-56240400D03*
X73431400Y-54340400D03*
X103736200Y-83759400D03*
X103736200Y-81859400D03*
X75463400Y-56240400D03*
X75463400Y-54340400D03*
D13*
X87315400Y-82530000D03*
X85765400Y-82530000D03*
D24*
X71226800Y-44414400D03*
X69326800Y-44414400D03*
D15*
X87960200Y-44935400D03*
X87960200Y-46835400D03*
D12*
X102679200Y-53022800D03*
X104229200Y-53022800D03*
D10*
X129644200Y-61371800D03*
X127994200Y-61371800D03*
D11*
X108369600Y-26339800D03*
X110019600Y-26339800D03*
D27*
X101473000Y-66482000D03*
X101473000Y-64582000D03*
D13*
X146014800Y-76942000D03*
X144464800Y-76942000D03*
D21*
X44745000Y-45249000D03*
X44745000Y-43599000D03*
D16*
X155900400Y-15370000D03*
X155900400Y-12570000D03*
D27*
X119535000Y-86020000D03*
X119535000Y-84120000D03*
D17*
X99695000Y-39827800D03*
X99695000Y-38277800D03*
D10*
X28028400Y-56438800D03*
X26378400Y-56438800D03*
D17*
X99695000Y-66434000D03*
X99695000Y-64884000D03*
D68*
X109654400Y-76549300D03*
X109654400Y-70324300D03*
D15*
X101473000Y-43919400D03*
X101473000Y-45819400D03*
D30*
X39411000Y-40334000D03*
X39411000Y-41884000D03*
D21*
X44745000Y-41947000D03*
X44745000Y-40297000D03*
D30*
X99695000Y-49961800D03*
X99695000Y-51511800D03*
D20*
X124869000Y-83216600D03*
X124869000Y-84866600D03*
D57*
X17587000Y-88978500D03*
X15687000Y-88978500D03*
X16637000Y-90853500D03*
D17*
X34736000Y-65206000D03*
X34736000Y-63656000D03*
D11*
X123612200Y-64140400D03*
X125262200Y-64140400D03*
D13*
X34852000Y-27152000D03*
X33302000Y-27152000D03*
D15*
X103505000Y-49583600D03*
X103505000Y-51483600D03*
D20*
X40894000Y-40297600D03*
X40894000Y-41947600D03*
D10*
X104330000Y-41389600D03*
X102680000Y-41389600D03*
D49*
X9829400Y-49103600D03*
X12629400Y-49103600D03*
D80*
X115543600Y-86726500D03*
X114893600Y-86726500D03*
X114243600Y-86726500D03*
X113593600Y-86726500D03*
X113593600Y-89001500D03*
X114243600Y-89001500D03*
X114893600Y-89001500D03*
X115543600Y-89001500D03*
D81*
X96152600Y-40843600D03*
X96152600Y-39903600D03*
X95312600Y-40843600D03*
X95312600Y-39903600D03*
D82*
X93582600Y-39373600D03*
X93582600Y-39873600D03*
X93582600Y-40373600D03*
X93582600Y-40873600D03*
X93582600Y-41373600D03*
X97882600Y-41373600D03*
X97882600Y-40873600D03*
X97882600Y-40373600D03*
X97882600Y-39873600D03*
X97882600Y-39373600D03*
D16*
X85267800Y-53356000D03*
X85267800Y-50556000D03*
D11*
X134254800Y-64470600D03*
X135904800Y-64470600D03*
D21*
X147652800Y-80307000D03*
X147652800Y-78657000D03*
D56*
X27178800Y-60099000D03*
X27178800Y-62899000D03*
D11*
X80991000Y-91039000D03*
X82641000Y-91039000D03*
D83*
X78936300Y-88463000D03*
X78936300Y-86563000D03*
X77061300Y-87513000D03*
D27*
X64188400Y-36543000D03*
X64188400Y-34643000D03*
D11*
X33252000Y-31724000D03*
X34902000Y-31724000D03*
D15*
X89992200Y-39474400D03*
X89992200Y-41374400D03*
D13*
X128285600Y-68534600D03*
X126735600Y-68534600D03*
D29*
X152890000Y-21717000D03*
X156990000Y-21717000D03*
D30*
X125046800Y-79315600D03*
X125046800Y-80865600D03*
D84*
X91266000Y-80344400D03*
X91266000Y-81464400D03*
X90146000Y-81464400D03*
X90146000Y-80344400D03*
D85*
X92431000Y-80154400D03*
D86*
X91706000Y-79179400D03*
X91206000Y-79179400D03*
X90706000Y-79179400D03*
X90206000Y-79179400D03*
X89706000Y-79179400D03*
D85*
X88981000Y-80154400D03*
X88981000Y-81654400D03*
D86*
X89706000Y-82629400D03*
X90206000Y-82629400D03*
X90706000Y-82629400D03*
X91206000Y-82629400D03*
X91706000Y-82629400D03*
D85*
X92431000Y-81654400D03*
D17*
X111838800Y-67760200D03*
X111838800Y-66210200D03*
D87*
X84531200Y-12961400D03*
X84531200Y-17061400D03*
D17*
X30480000Y-51346400D03*
X30480000Y-49796400D03*
D11*
X118021600Y-20574000D03*
X119671600Y-20574000D03*
D40*
X84812000Y-73545400D03*
X84812000Y-71395400D03*
D15*
X90043000Y-51006000D03*
X90043000Y-52906000D03*
D17*
X134506000Y-19805000D03*
X134506000Y-18255000D03*
D30*
X33782800Y-59962000D03*
X33782800Y-61512000D03*
D27*
X76327000Y-52334200D03*
X76327000Y-50434200D03*
D88*
X66512400Y-38152400D03*
X67452400Y-38152400D03*
X67452400Y-38992400D03*
X66512400Y-38992400D03*
D89*
X65982400Y-40722400D03*
X66482400Y-40722400D03*
X66982400Y-40722400D03*
X67482400Y-40722400D03*
X67982400Y-40722400D03*
X67982400Y-36422400D03*
X67482400Y-36422400D03*
X66982400Y-36422400D03*
X66482400Y-36422400D03*
X65982400Y-36422400D03*
D30*
X30164000Y-63656000D03*
X30164000Y-65206000D03*
D58*
X139700000Y-68550000D03*
X139700000Y-63500000D03*
X142240000Y-68550000D03*
X142240000Y-63500000D03*
X144780000Y-68550000D03*
X144780000Y-63500000D03*
X147320000Y-68550000D03*
X147320000Y-63500000D03*
X149860000Y-68550000D03*
X149860000Y-63500000D03*
D12*
X130937000Y-15982000D03*
X132487000Y-15982000D03*
X141696200Y-87623600D03*
X143246200Y-87623600D03*
D90*
X30013000Y-32050000D03*
X30013000Y-28350000D03*
D13*
X34852000Y-25628000D03*
X33302000Y-25628000D03*
D30*
X125021400Y-72699200D03*
X125021400Y-74249200D03*
D10*
X22923800Y-62769000D03*
X21273800Y-62769000D03*
X132768400Y-61346400D03*
X131118400Y-61346400D03*
D50*
X91372400Y-57671000D03*
X89272400Y-57671000D03*
D30*
X115471000Y-79277800D03*
X115471000Y-80827800D03*
D44*
X144874000Y-90912000D03*
X146774000Y-90912000D03*
D30*
X91770200Y-39649400D03*
X91770200Y-41199400D03*
D21*
X124841000Y-23431000D03*
X124841000Y-21781000D03*
D30*
X30988800Y-59962000D03*
X30988800Y-61512000D03*
D50*
X89272400Y-55689800D03*
X91372400Y-55689800D03*
D44*
X78148200Y-43710300D03*
X80048200Y-43710300D03*
D91*
X143768000Y-22420000D03*
D92*
X145173000Y-20935000D03*
D91*
X142068000Y-20720000D03*
D92*
X145173000Y-23475000D03*
X145173000Y-19665000D03*
D91*
X142068000Y-22420000D03*
D92*
X145173000Y-22205000D03*
D91*
X143768000Y-20720000D03*
D93*
X139368000Y-19665000D03*
X139368000Y-20935000D03*
X139368000Y-22205000D03*
X139368000Y-23475000D03*
D21*
X15801400Y-49928600D03*
X15801400Y-48278600D03*
D94*
X106830000Y-18014000D03*
X106830000Y-20554000D03*
X106830000Y-23094000D03*
X115730000Y-23094000D03*
X115730000Y-20554000D03*
X115730000Y-18014000D03*
D10*
X38925800Y-59213000D03*
X37275800Y-59213000D03*
D15*
X87960200Y-65712600D03*
X87960200Y-67612600D03*
D20*
X113413600Y-66160200D03*
X113413600Y-67810200D03*
D11*
X9639800Y-46761400D03*
X11289800Y-46761400D03*
D21*
X76756800Y-91695000D03*
X76756800Y-90045000D03*
D15*
X64188400Y-38199000D03*
X64188400Y-40099000D03*
D13*
X30788000Y-34446000D03*
X29238000Y-34446000D03*
D81*
X95312600Y-52426000D03*
X96152600Y-52426000D03*
X95312600Y-51486000D03*
X96152600Y-51486000D03*
D82*
X93582600Y-50956000D03*
X93582600Y-51456000D03*
X93582600Y-51956000D03*
X93582600Y-52456000D03*
X93582600Y-52956000D03*
X97882600Y-52956000D03*
X97882600Y-52456000D03*
X97882600Y-51956000D03*
X97882600Y-51456000D03*
X97882600Y-50956000D03*
D24*
X129360000Y-15728000D03*
X127460000Y-15728000D03*
D12*
X109562600Y-14782800D03*
X111112600Y-14782800D03*
D21*
X35052800Y-51402000D03*
X35052800Y-49752000D03*
D10*
X22923800Y-56673000D03*
X21273800Y-56673000D03*
D30*
X51349000Y-40347000D03*
X51349000Y-41897000D03*
D27*
X78333600Y-52334200D03*
X78333600Y-50434200D03*
D11*
X9642400Y-43769600D03*
X11292400Y-43769600D03*
D12*
X29238000Y-26064000D03*
X30788000Y-26064000D03*
D21*
X147652800Y-75227000D03*
X147652800Y-73577000D03*
D13*
X146141800Y-82022000D03*
X144591800Y-82022000D03*
D44*
X129862600Y-68788600D03*
X131762600Y-68788600D03*
D45*
X82059800Y-78340400D03*
X80789800Y-78340400D03*
X79519800Y-78340400D03*
X78249800Y-78340400D03*
X78249800Y-83290400D03*
X79519800Y-83290400D03*
X80789800Y-83290400D03*
X82059800Y-83290400D03*
D17*
X38649000Y-20307000D03*
X38649000Y-18757000D03*
D10*
X87365400Y-76434000D03*
X85715400Y-76434000D03*
D27*
X89992200Y-61364200D03*
X89992200Y-59464200D03*
D13*
X115484000Y-84943000D03*
X113934000Y-84943000D03*
D51*
X73978500Y-78994000D03*
X67753500Y-78994000D03*
D15*
X123700600Y-75838600D03*
X123700600Y-77738600D03*
D21*
X46269000Y-45249000D03*
X46269000Y-43599000D03*
D20*
X148940800Y-17252200D03*
X148940800Y-18902200D03*
D27*
X89154000Y-89215000D03*
X89154000Y-87315000D03*
D17*
X108028800Y-64661400D03*
X108028800Y-63111400D03*
D30*
X128806000Y-26891000D03*
X128806000Y-28441000D03*
X49825000Y-40334000D03*
X49825000Y-41884000D03*
D20*
X17325400Y-48278600D03*
X17325400Y-49928600D03*
D13*
X152237800Y-82022000D03*
X150687800Y-82022000D03*
D30*
X126393000Y-83266600D03*
X126393000Y-84816600D03*
D17*
X130530600Y-28441000D03*
X130530600Y-26891000D03*
D64*
X73163700Y-59469000D03*
X79388700Y-59469000D03*
D57*
X82791400Y-85783500D03*
X80891400Y-85783500D03*
X81841400Y-87658500D03*
D13*
X114595000Y-69613400D03*
X113045000Y-69613400D03*
X131536800Y-87902400D03*
X129986800Y-87902400D03*
D21*
X150827800Y-75227000D03*
X150827800Y-73577000D03*
D44*
X91026000Y-90683400D03*
X92926000Y-90683400D03*
D13*
X92497000Y-84358800D03*
X90947000Y-84358800D03*
D11*
X99581200Y-53022800D03*
X101231200Y-53022800D03*
D15*
X35560800Y-60041000D03*
X35560800Y-61941000D03*
D95*
X103505000Y-59889400D03*
X103505000Y-57789400D03*
D96*
X149855200Y-20513800D03*
X149855200Y-23463800D03*
D27*
X87122000Y-89215000D03*
X87122000Y-87315000D03*
D21*
X127254000Y-28511000D03*
X127254000Y-26861000D03*
D17*
X24765000Y-60007800D03*
X24765000Y-58457800D03*
D97*
X111261400Y-33127000D03*
X107161400Y-33127000D03*
D30*
X84254400Y-79469000D03*
X84254400Y-81019000D03*
D14*
X133444000Y-32667500D03*
X135344000Y-32667500D03*
X134394000Y-30792500D03*
D98*
X13716000Y-90997500D03*
X13716000Y-88072500D03*
D99*
X88039400Y-60312600D03*
X85239400Y-60312600D03*
D11*
X2731000Y-90297000D03*
X4381000Y-90297000D03*
D17*
X105615800Y-83787600D03*
X105615800Y-82237600D03*
D30*
X141721000Y-90645000D03*
X141721000Y-92195000D03*
X117680800Y-79277800D03*
X117680800Y-80827800D03*
D12*
X116220000Y-82403000D03*
X117770000Y-82403000D03*
D59*
X74566800Y-90315000D03*
X74566800Y-87775000D03*
X66946800Y-87775000D03*
X66946800Y-90315000D03*
D100*
X87630000Y-13741400D03*
X87630000Y-15011400D03*
X87630000Y-16281400D03*
D101*
X89865200Y-17246600D03*
D100*
X92100400Y-16281400D03*
X92100400Y-15011400D03*
X92100400Y-13741400D03*
D102*
X89865200Y-13284200D03*
D103*
X43434000Y-88466400D03*
X43434000Y-91416400D03*
D21*
X76454000Y-82359000D03*
X76454000Y-80709000D03*
D16*
X85191600Y-47387000D03*
X85191600Y-44587000D03*
D11*
X118075000Y-18014000D03*
X119725000Y-18014000D03*
D25*
X117401400Y-30321000D03*
X116261400Y-28821000D03*
X116261400Y-30321000D03*
X117401400Y-28821000D03*
D26*
X114356400Y-27666000D03*
X114356400Y-28936000D03*
X114356400Y-30206000D03*
X114356400Y-31476000D03*
X119306400Y-31476000D03*
X119306400Y-30206000D03*
X119306400Y-28936000D03*
X119306400Y-27666000D03*
D104*
X13139900Y-43835600D03*
X13139900Y-44785600D03*
X13139900Y-45735600D03*
X15414900Y-45735600D03*
X15414900Y-44785600D03*
X15414900Y-43835600D03*
D11*
X134254800Y-66096200D03*
X135904800Y-66096200D03*
X62819800Y-90569000D03*
X64469800Y-90569000D03*
D83*
X152908300Y-80432000D03*
X152908300Y-78532000D03*
X151033300Y-79482000D03*
D20*
X69522400Y-36223400D03*
X69522400Y-37873400D03*
D30*
X121437400Y-27546000D03*
X121437400Y-29096000D03*
D105*
X143921300Y-78532000D03*
X143921300Y-80432000D03*
X145796300Y-79482000D03*
D13*
X131536800Y-84829000D03*
X129986800Y-84829000D03*
D27*
X149652000Y-12474000D03*
X149652000Y-10574000D03*
D29*
X107161400Y-29088400D03*
X111261400Y-29088400D03*
D11*
X113122000Y-82403000D03*
X114772000Y-82403000D03*
M02*
