%FSLAX45Y45*%
G04 Gerber Fmt 4.5, Leading zero omitted, Abs format (unit mm)*
G04 Created by KiCad (PCBNEW (6.0.0)) date 2022-07-08 19:14:19*
%MOMM*%
%LPD*%
G01*
G04 APERTURE LIST*
%TA.AperFunction,Profile*%
%ADD10C,0.100000*%
%TD*%
%ADD11C,0.200000*%
%ADD12C,0.065000*%
%ADD13C,0.160000*%
%ADD14C,0.320000*%
G04 APERTURE END LIST*
D10*
X11000000Y-5900000D02*
X16000000Y-5900000D01*
X0Y-10000000D02*
X16000000Y-10000000D01*
X16000000Y-5900000D02*
X16000000Y-10000000D01*
X0Y0D02*
X0Y-10000000D01*
X16000000Y-3800000D02*
X16000000Y0D01*
X11000000Y-3800000D02*
X11000000Y-5900000D01*
X16000000Y0D02*
X0Y0D01*
X16000000Y-3800000D02*
X11000000Y-3800000D01*
D11*
D12*
X486840Y-4277760D02*
X551840Y-4342760D01*
X551840Y-4277760D02*
X486840Y-4342760D01*
X486840Y-4855760D02*
X551840Y-4920760D01*
X551840Y-4855760D02*
X486840Y-4920760D01*
D13*
X222760Y-8097520D02*
G75*
G03*
X222760Y-8097520I-80000J0D01*
G01*
D14*
X690640Y-5609260D02*
X690640Y-5929260D01*
X530640Y-5769260D02*
X850640Y-5769260D01*
X690640Y-6752260D02*
X690640Y-7072260D01*
X530640Y-6912260D02*
X850640Y-6912260D01*
D11*
X252619Y-10315476D02*
X252619Y-10115476D01*
X300238Y-10115476D01*
X328810Y-10125000D01*
X347857Y-10144048D01*
X357381Y-10163095D01*
X366905Y-10201190D01*
X366905Y-10229762D01*
X357381Y-10267857D01*
X347857Y-10286905D01*
X328810Y-10305952D01*
X300238Y-10315476D01*
X252619Y-10315476D01*
X452619Y-10315476D02*
X452619Y-10182143D01*
X452619Y-10220238D02*
X462143Y-10201190D01*
X471667Y-10191667D01*
X490714Y-10182143D01*
X509762Y-10182143D01*
X576429Y-10315476D02*
X576429Y-10182143D01*
X576429Y-10115476D02*
X566905Y-10125000D01*
X576429Y-10134524D01*
X585952Y-10125000D01*
X576429Y-10115476D01*
X576429Y-10134524D01*
X700238Y-10315476D02*
X681190Y-10305952D01*
X671667Y-10286905D01*
X671667Y-10115476D01*
X805000Y-10315476D02*
X785952Y-10305952D01*
X776428Y-10286905D01*
X776428Y-10115476D01*
X1033571Y-10315476D02*
X1033571Y-10115476D01*
X1100238Y-10258333D01*
X1166905Y-10115476D01*
X1166905Y-10315476D01*
X1347857Y-10315476D02*
X1347857Y-10210714D01*
X1338333Y-10191667D01*
X1319286Y-10182143D01*
X1281190Y-10182143D01*
X1262143Y-10191667D01*
X1347857Y-10305952D02*
X1328810Y-10315476D01*
X1281190Y-10315476D01*
X1262143Y-10305952D01*
X1252619Y-10286905D01*
X1252619Y-10267857D01*
X1262143Y-10248810D01*
X1281190Y-10239286D01*
X1328810Y-10239286D01*
X1347857Y-10229762D01*
X1443095Y-10182143D02*
X1443095Y-10382143D01*
X1443095Y-10191667D02*
X1462143Y-10182143D01*
X1500238Y-10182143D01*
X1519286Y-10191667D01*
X1528809Y-10201190D01*
X1538333Y-10220238D01*
X1538333Y-10277381D01*
X1528809Y-10296429D01*
X1519286Y-10305952D01*
X1500238Y-10315476D01*
X1462143Y-10315476D01*
X1443095Y-10305952D01*
X1624048Y-10296429D02*
X1633571Y-10305952D01*
X1624048Y-10315476D01*
X1614524Y-10305952D01*
X1624048Y-10296429D01*
X1624048Y-10315476D01*
X1624048Y-10191667D02*
X1633571Y-10201190D01*
X1624048Y-10210714D01*
X1614524Y-10201190D01*
X1624048Y-10191667D01*
X1624048Y-10210714D01*
D12*
X-70000Y-10612500D02*
X-5000Y-10677500D01*
X-5000Y-10612500D02*
X-70000Y-10677500D01*
D11*
X290714Y-10535476D02*
X309762Y-10535476D01*
X328810Y-10545000D01*
X338333Y-10554524D01*
X347857Y-10573571D01*
X357381Y-10611667D01*
X357381Y-10659286D01*
X347857Y-10697381D01*
X338333Y-10716429D01*
X328810Y-10725952D01*
X309762Y-10735476D01*
X290714Y-10735476D01*
X271667Y-10725952D01*
X262143Y-10716429D01*
X252619Y-10697381D01*
X243095Y-10659286D01*
X243095Y-10611667D01*
X252619Y-10573571D01*
X262143Y-10554524D01*
X271667Y-10545000D01*
X290714Y-10535476D01*
X443095Y-10716429D02*
X452619Y-10725952D01*
X443095Y-10735476D01*
X433571Y-10725952D01*
X443095Y-10716429D01*
X443095Y-10735476D01*
X624048Y-10535476D02*
X585952Y-10535476D01*
X566905Y-10545000D01*
X557381Y-10554524D01*
X538333Y-10583095D01*
X528810Y-10621190D01*
X528810Y-10697381D01*
X538333Y-10716429D01*
X547857Y-10725952D01*
X566905Y-10735476D01*
X605000Y-10735476D01*
X624048Y-10725952D01*
X633571Y-10716429D01*
X643095Y-10697381D01*
X643095Y-10649762D01*
X633571Y-10630714D01*
X624048Y-10621190D01*
X605000Y-10611667D01*
X566905Y-10611667D01*
X547857Y-10621190D01*
X538333Y-10630714D01*
X528810Y-10649762D01*
X824048Y-10535476D02*
X728809Y-10535476D01*
X719286Y-10630714D01*
X728809Y-10621190D01*
X747857Y-10611667D01*
X795476Y-10611667D01*
X814524Y-10621190D01*
X824048Y-10630714D01*
X833571Y-10649762D01*
X833571Y-10697381D01*
X824048Y-10716429D01*
X814524Y-10725952D01*
X795476Y-10735476D01*
X747857Y-10735476D01*
X728809Y-10725952D01*
X719286Y-10716429D01*
X957381Y-10535476D02*
X976428Y-10535476D01*
X995476Y-10545000D01*
X1005000Y-10554524D01*
X1014524Y-10573571D01*
X1024048Y-10611667D01*
X1024048Y-10659286D01*
X1014524Y-10697381D01*
X1005000Y-10716429D01*
X995476Y-10725952D01*
X976428Y-10735476D01*
X957381Y-10735476D01*
X938333Y-10725952D01*
X928809Y-10716429D01*
X919286Y-10697381D01*
X909762Y-10659286D01*
X909762Y-10611667D01*
X919286Y-10573571D01*
X928809Y-10554524D01*
X938333Y-10545000D01*
X957381Y-10535476D01*
X1109762Y-10735476D02*
X1109762Y-10602143D01*
X1109762Y-10621190D02*
X1119286Y-10611667D01*
X1138333Y-10602143D01*
X1166905Y-10602143D01*
X1185952Y-10611667D01*
X1195476Y-10630714D01*
X1195476Y-10735476D01*
X1195476Y-10630714D02*
X1205000Y-10611667D01*
X1224048Y-10602143D01*
X1252619Y-10602143D01*
X1271667Y-10611667D01*
X1281190Y-10630714D01*
X1281190Y-10735476D01*
X1376429Y-10735476D02*
X1376429Y-10602143D01*
X1376429Y-10621190D02*
X1385952Y-10611667D01*
X1405000Y-10602143D01*
X1433571Y-10602143D01*
X1452619Y-10611667D01*
X1462143Y-10630714D01*
X1462143Y-10735476D01*
X1462143Y-10630714D02*
X1471667Y-10611667D01*
X1490714Y-10602143D01*
X1519286Y-10602143D01*
X1538333Y-10611667D01*
X1547857Y-10630714D01*
X1547857Y-10735476D01*
X1938333Y-10525952D02*
X1766905Y-10783095D01*
X2195476Y-10535476D02*
X2214524Y-10535476D01*
X2233571Y-10545000D01*
X2243095Y-10554524D01*
X2252619Y-10573571D01*
X2262143Y-10611667D01*
X2262143Y-10659286D01*
X2252619Y-10697381D01*
X2243095Y-10716429D01*
X2233571Y-10725952D01*
X2214524Y-10735476D01*
X2195476Y-10735476D01*
X2176429Y-10725952D01*
X2166905Y-10716429D01*
X2157381Y-10697381D01*
X2147857Y-10659286D01*
X2147857Y-10611667D01*
X2157381Y-10573571D01*
X2166905Y-10554524D01*
X2176429Y-10545000D01*
X2195476Y-10535476D01*
X2347857Y-10716429D02*
X2357381Y-10725952D01*
X2347857Y-10735476D01*
X2338333Y-10725952D01*
X2347857Y-10716429D01*
X2347857Y-10735476D01*
X2481190Y-10535476D02*
X2500238Y-10535476D01*
X2519286Y-10545000D01*
X2528810Y-10554524D01*
X2538333Y-10573571D01*
X2547857Y-10611667D01*
X2547857Y-10659286D01*
X2538333Y-10697381D01*
X2528810Y-10716429D01*
X2519286Y-10725952D01*
X2500238Y-10735476D01*
X2481190Y-10735476D01*
X2462143Y-10725952D01*
X2452619Y-10716429D01*
X2443095Y-10697381D01*
X2433571Y-10659286D01*
X2433571Y-10611667D01*
X2443095Y-10573571D01*
X2452619Y-10554524D01*
X2462143Y-10545000D01*
X2481190Y-10535476D01*
X2624048Y-10554524D02*
X2633571Y-10545000D01*
X2652619Y-10535476D01*
X2700238Y-10535476D01*
X2719286Y-10545000D01*
X2728810Y-10554524D01*
X2738333Y-10573571D01*
X2738333Y-10592619D01*
X2728810Y-10621190D01*
X2614524Y-10735476D01*
X2738333Y-10735476D01*
X2919286Y-10535476D02*
X2824048Y-10535476D01*
X2814524Y-10630714D01*
X2824048Y-10621190D01*
X2843095Y-10611667D01*
X2890714Y-10611667D01*
X2909762Y-10621190D01*
X2919286Y-10630714D01*
X2928809Y-10649762D01*
X2928809Y-10697381D01*
X2919286Y-10716429D01*
X2909762Y-10725952D01*
X2890714Y-10735476D01*
X2843095Y-10735476D01*
X2824048Y-10725952D01*
X2814524Y-10716429D01*
X3100238Y-10535476D02*
X3062143Y-10535476D01*
X3043095Y-10545000D01*
X3033571Y-10554524D01*
X3014524Y-10583095D01*
X3005000Y-10621190D01*
X3005000Y-10697381D01*
X3014524Y-10716429D01*
X3024048Y-10725952D01*
X3043095Y-10735476D01*
X3081190Y-10735476D01*
X3100238Y-10725952D01*
X3109762Y-10716429D01*
X3119286Y-10697381D01*
X3119286Y-10649762D01*
X3109762Y-10630714D01*
X3100238Y-10621190D01*
X3081190Y-10611667D01*
X3043095Y-10611667D01*
X3024048Y-10621190D01*
X3014524Y-10630714D01*
X3005000Y-10649762D01*
X3195476Y-10535476D02*
X3195476Y-10573571D01*
X3271667Y-10535476D02*
X3271667Y-10573571D01*
X3566905Y-10811667D02*
X3557381Y-10802143D01*
X3538333Y-10773571D01*
X3528809Y-10754524D01*
X3519286Y-10725952D01*
X3509762Y-10678333D01*
X3509762Y-10640238D01*
X3519286Y-10592619D01*
X3528809Y-10564048D01*
X3538333Y-10545000D01*
X3557381Y-10516429D01*
X3566905Y-10506905D01*
X3633571Y-10554524D02*
X3643095Y-10545000D01*
X3662143Y-10535476D01*
X3709762Y-10535476D01*
X3728809Y-10545000D01*
X3738333Y-10554524D01*
X3747857Y-10573571D01*
X3747857Y-10592619D01*
X3738333Y-10621190D01*
X3624048Y-10735476D01*
X3747857Y-10735476D01*
X3985952Y-10735476D02*
X3985952Y-10535476D01*
X4071667Y-10735476D02*
X4071667Y-10630714D01*
X4062143Y-10611667D01*
X4043095Y-10602143D01*
X4014524Y-10602143D01*
X3995476Y-10611667D01*
X3985952Y-10621190D01*
X4195476Y-10735476D02*
X4176428Y-10725952D01*
X4166905Y-10716429D01*
X4157381Y-10697381D01*
X4157381Y-10640238D01*
X4166905Y-10621190D01*
X4176428Y-10611667D01*
X4195476Y-10602143D01*
X4224048Y-10602143D01*
X4243095Y-10611667D01*
X4252619Y-10621190D01*
X4262143Y-10640238D01*
X4262143Y-10697381D01*
X4252619Y-10716429D01*
X4243095Y-10725952D01*
X4224048Y-10735476D01*
X4195476Y-10735476D01*
X4376429Y-10735476D02*
X4357381Y-10725952D01*
X4347857Y-10706905D01*
X4347857Y-10535476D01*
X4528810Y-10725952D02*
X4509762Y-10735476D01*
X4471667Y-10735476D01*
X4452619Y-10725952D01*
X4443095Y-10706905D01*
X4443095Y-10630714D01*
X4452619Y-10611667D01*
X4471667Y-10602143D01*
X4509762Y-10602143D01*
X4528810Y-10611667D01*
X4538333Y-10630714D01*
X4538333Y-10649762D01*
X4443095Y-10668810D01*
X4614524Y-10725952D02*
X4633571Y-10735476D01*
X4671667Y-10735476D01*
X4690714Y-10725952D01*
X4700238Y-10706905D01*
X4700238Y-10697381D01*
X4690714Y-10678333D01*
X4671667Y-10668810D01*
X4643095Y-10668810D01*
X4624048Y-10659286D01*
X4614524Y-10640238D01*
X4614524Y-10630714D01*
X4624048Y-10611667D01*
X4643095Y-10602143D01*
X4671667Y-10602143D01*
X4690714Y-10611667D01*
X4766905Y-10811667D02*
X4776429Y-10802143D01*
X4795476Y-10773571D01*
X4805000Y-10754524D01*
X4814524Y-10725952D01*
X4824048Y-10678333D01*
X4824048Y-10640238D01*
X4814524Y-10592619D01*
X4805000Y-10564048D01*
X4795476Y-10545000D01*
X4776429Y-10516429D01*
X4766905Y-10506905D01*
X5128810Y-10811667D02*
X5119286Y-10802143D01*
X5100238Y-10773571D01*
X5090714Y-10754524D01*
X5081190Y-10725952D01*
X5071667Y-10678333D01*
X5071667Y-10640238D01*
X5081190Y-10592619D01*
X5090714Y-10564048D01*
X5100238Y-10545000D01*
X5119286Y-10516429D01*
X5128810Y-10506905D01*
X5205000Y-10602143D02*
X5205000Y-10735476D01*
X5205000Y-10621190D02*
X5214524Y-10611667D01*
X5233571Y-10602143D01*
X5262143Y-10602143D01*
X5281190Y-10611667D01*
X5290714Y-10630714D01*
X5290714Y-10735476D01*
X5414524Y-10735476D02*
X5395476Y-10725952D01*
X5385952Y-10716429D01*
X5376429Y-10697381D01*
X5376429Y-10640238D01*
X5385952Y-10621190D01*
X5395476Y-10611667D01*
X5414524Y-10602143D01*
X5443095Y-10602143D01*
X5462143Y-10611667D01*
X5471667Y-10621190D01*
X5481190Y-10640238D01*
X5481190Y-10697381D01*
X5471667Y-10716429D01*
X5462143Y-10725952D01*
X5443095Y-10735476D01*
X5414524Y-10735476D01*
X5538333Y-10602143D02*
X5614524Y-10602143D01*
X5566905Y-10535476D02*
X5566905Y-10706905D01*
X5576429Y-10725952D01*
X5595476Y-10735476D01*
X5614524Y-10735476D01*
X5833571Y-10602143D02*
X5833571Y-10802143D01*
X5833571Y-10611667D02*
X5852619Y-10602143D01*
X5890714Y-10602143D01*
X5909762Y-10611667D01*
X5919286Y-10621190D01*
X5928809Y-10640238D01*
X5928809Y-10697381D01*
X5919286Y-10716429D01*
X5909762Y-10725952D01*
X5890714Y-10735476D01*
X5852619Y-10735476D01*
X5833571Y-10725952D01*
X6043095Y-10735476D02*
X6024048Y-10725952D01*
X6014524Y-10706905D01*
X6014524Y-10535476D01*
X6205000Y-10735476D02*
X6205000Y-10630714D01*
X6195476Y-10611667D01*
X6176428Y-10602143D01*
X6138333Y-10602143D01*
X6119286Y-10611667D01*
X6205000Y-10725952D02*
X6185952Y-10735476D01*
X6138333Y-10735476D01*
X6119286Y-10725952D01*
X6109762Y-10706905D01*
X6109762Y-10687857D01*
X6119286Y-10668810D01*
X6138333Y-10659286D01*
X6185952Y-10659286D01*
X6205000Y-10649762D01*
X6271667Y-10602143D02*
X6347857Y-10602143D01*
X6300238Y-10535476D02*
X6300238Y-10706905D01*
X6309762Y-10725952D01*
X6328809Y-10735476D01*
X6347857Y-10735476D01*
X6490714Y-10725952D02*
X6471667Y-10735476D01*
X6433571Y-10735476D01*
X6414524Y-10725952D01*
X6405000Y-10706905D01*
X6405000Y-10630714D01*
X6414524Y-10611667D01*
X6433571Y-10602143D01*
X6471667Y-10602143D01*
X6490714Y-10611667D01*
X6500238Y-10630714D01*
X6500238Y-10649762D01*
X6405000Y-10668810D01*
X6671667Y-10735476D02*
X6671667Y-10535476D01*
X6671667Y-10725952D02*
X6652619Y-10735476D01*
X6614524Y-10735476D01*
X6595476Y-10725952D01*
X6585952Y-10716429D01*
X6576428Y-10697381D01*
X6576428Y-10640238D01*
X6585952Y-10621190D01*
X6595476Y-10611667D01*
X6614524Y-10602143D01*
X6652619Y-10602143D01*
X6671667Y-10611667D01*
X6747857Y-10811667D02*
X6757381Y-10802143D01*
X6776428Y-10773571D01*
X6785952Y-10754524D01*
X6795476Y-10725952D01*
X6805000Y-10678333D01*
X6805000Y-10640238D01*
X6795476Y-10592619D01*
X6785952Y-10564048D01*
X6776428Y-10545000D01*
X6757381Y-10516429D01*
X6747857Y-10506905D01*
D13*
X-5000Y-10909000D02*
G75*
G03*
X-5000Y-10909000I-80000J0D01*
G01*
D11*
X357381Y-10999476D02*
X243095Y-10999476D01*
X300238Y-10999476D02*
X300238Y-10799476D01*
X281190Y-10828048D01*
X262143Y-10847095D01*
X243095Y-10856619D01*
X443095Y-10980429D02*
X452619Y-10989952D01*
X443095Y-10999476D01*
X433571Y-10989952D01*
X443095Y-10980429D01*
X443095Y-10999476D01*
X624048Y-10799476D02*
X585952Y-10799476D01*
X566905Y-10809000D01*
X557381Y-10818524D01*
X538333Y-10847095D01*
X528810Y-10885190D01*
X528810Y-10961381D01*
X538333Y-10980429D01*
X547857Y-10989952D01*
X566905Y-10999476D01*
X605000Y-10999476D01*
X624048Y-10989952D01*
X633571Y-10980429D01*
X643095Y-10961381D01*
X643095Y-10913762D01*
X633571Y-10894714D01*
X624048Y-10885190D01*
X605000Y-10875667D01*
X566905Y-10875667D01*
X547857Y-10885190D01*
X538333Y-10894714D01*
X528810Y-10913762D01*
X766905Y-10799476D02*
X785952Y-10799476D01*
X805000Y-10809000D01*
X814524Y-10818524D01*
X824048Y-10837571D01*
X833571Y-10875667D01*
X833571Y-10923286D01*
X824048Y-10961381D01*
X814524Y-10980429D01*
X805000Y-10989952D01*
X785952Y-10999476D01*
X766905Y-10999476D01*
X747857Y-10989952D01*
X738333Y-10980429D01*
X728809Y-10961381D01*
X719286Y-10923286D01*
X719286Y-10875667D01*
X728809Y-10837571D01*
X738333Y-10818524D01*
X747857Y-10809000D01*
X766905Y-10799476D01*
X957381Y-10799476D02*
X976428Y-10799476D01*
X995476Y-10809000D01*
X1005000Y-10818524D01*
X1014524Y-10837571D01*
X1024048Y-10875667D01*
X1024048Y-10923286D01*
X1014524Y-10961381D01*
X1005000Y-10980429D01*
X995476Y-10989952D01*
X976428Y-10999476D01*
X957381Y-10999476D01*
X938333Y-10989952D01*
X928809Y-10980429D01*
X919286Y-10961381D01*
X909762Y-10923286D01*
X909762Y-10875667D01*
X919286Y-10837571D01*
X928809Y-10818524D01*
X938333Y-10809000D01*
X957381Y-10799476D01*
X1109762Y-10999476D02*
X1109762Y-10866143D01*
X1109762Y-10885190D02*
X1119286Y-10875667D01*
X1138333Y-10866143D01*
X1166905Y-10866143D01*
X1185952Y-10875667D01*
X1195476Y-10894714D01*
X1195476Y-10999476D01*
X1195476Y-10894714D02*
X1205000Y-10875667D01*
X1224048Y-10866143D01*
X1252619Y-10866143D01*
X1271667Y-10875667D01*
X1281190Y-10894714D01*
X1281190Y-10999476D01*
X1376429Y-10999476D02*
X1376429Y-10866143D01*
X1376429Y-10885190D02*
X1385952Y-10875667D01*
X1405000Y-10866143D01*
X1433571Y-10866143D01*
X1452619Y-10875667D01*
X1462143Y-10894714D01*
X1462143Y-10999476D01*
X1462143Y-10894714D02*
X1471667Y-10875667D01*
X1490714Y-10866143D01*
X1519286Y-10866143D01*
X1538333Y-10875667D01*
X1547857Y-10894714D01*
X1547857Y-10999476D01*
X1938333Y-10789952D02*
X1766905Y-11047095D01*
X2195476Y-10799476D02*
X2214524Y-10799476D01*
X2233571Y-10809000D01*
X2243095Y-10818524D01*
X2252619Y-10837571D01*
X2262143Y-10875667D01*
X2262143Y-10923286D01*
X2252619Y-10961381D01*
X2243095Y-10980429D01*
X2233571Y-10989952D01*
X2214524Y-10999476D01*
X2195476Y-10999476D01*
X2176429Y-10989952D01*
X2166905Y-10980429D01*
X2157381Y-10961381D01*
X2147857Y-10923286D01*
X2147857Y-10875667D01*
X2157381Y-10837571D01*
X2166905Y-10818524D01*
X2176429Y-10809000D01*
X2195476Y-10799476D01*
X2347857Y-10980429D02*
X2357381Y-10989952D01*
X2347857Y-10999476D01*
X2338333Y-10989952D01*
X2347857Y-10980429D01*
X2347857Y-10999476D01*
X2481190Y-10799476D02*
X2500238Y-10799476D01*
X2519286Y-10809000D01*
X2528810Y-10818524D01*
X2538333Y-10837571D01*
X2547857Y-10875667D01*
X2547857Y-10923286D01*
X2538333Y-10961381D01*
X2528810Y-10980429D01*
X2519286Y-10989952D01*
X2500238Y-10999476D01*
X2481190Y-10999476D01*
X2462143Y-10989952D01*
X2452619Y-10980429D01*
X2443095Y-10961381D01*
X2433571Y-10923286D01*
X2433571Y-10875667D01*
X2443095Y-10837571D01*
X2452619Y-10818524D01*
X2462143Y-10809000D01*
X2481190Y-10799476D01*
X2719286Y-10799476D02*
X2681190Y-10799476D01*
X2662143Y-10809000D01*
X2652619Y-10818524D01*
X2633571Y-10847095D01*
X2624048Y-10885190D01*
X2624048Y-10961381D01*
X2633571Y-10980429D01*
X2643095Y-10989952D01*
X2662143Y-10999476D01*
X2700238Y-10999476D01*
X2719286Y-10989952D01*
X2728810Y-10980429D01*
X2738333Y-10961381D01*
X2738333Y-10913762D01*
X2728810Y-10894714D01*
X2719286Y-10885190D01*
X2700238Y-10875667D01*
X2662143Y-10875667D01*
X2643095Y-10885190D01*
X2633571Y-10894714D01*
X2624048Y-10913762D01*
X2805000Y-10799476D02*
X2928809Y-10799476D01*
X2862143Y-10875667D01*
X2890714Y-10875667D01*
X2909762Y-10885190D01*
X2919286Y-10894714D01*
X2928809Y-10913762D01*
X2928809Y-10961381D01*
X2919286Y-10980429D01*
X2909762Y-10989952D01*
X2890714Y-10999476D01*
X2833571Y-10999476D01*
X2814524Y-10989952D01*
X2805000Y-10980429D01*
X3052619Y-10799476D02*
X3071667Y-10799476D01*
X3090714Y-10809000D01*
X3100238Y-10818524D01*
X3109762Y-10837571D01*
X3119286Y-10875667D01*
X3119286Y-10923286D01*
X3109762Y-10961381D01*
X3100238Y-10980429D01*
X3090714Y-10989952D01*
X3071667Y-10999476D01*
X3052619Y-10999476D01*
X3033571Y-10989952D01*
X3024048Y-10980429D01*
X3014524Y-10961381D01*
X3005000Y-10923286D01*
X3005000Y-10875667D01*
X3014524Y-10837571D01*
X3024048Y-10818524D01*
X3033571Y-10809000D01*
X3052619Y-10799476D01*
X3195476Y-10799476D02*
X3195476Y-10837571D01*
X3271667Y-10799476D02*
X3271667Y-10837571D01*
X3566905Y-11075667D02*
X3557381Y-11066143D01*
X3538333Y-11037571D01*
X3528809Y-11018524D01*
X3519286Y-10989952D01*
X3509762Y-10942333D01*
X3509762Y-10904238D01*
X3519286Y-10856619D01*
X3528809Y-10828048D01*
X3538333Y-10809000D01*
X3557381Y-10780429D01*
X3566905Y-10770905D01*
X3747857Y-10999476D02*
X3633571Y-10999476D01*
X3690714Y-10999476D02*
X3690714Y-10799476D01*
X3671667Y-10828048D01*
X3652619Y-10847095D01*
X3633571Y-10856619D01*
X3985952Y-10999476D02*
X3985952Y-10799476D01*
X4071667Y-10999476D02*
X4071667Y-10894714D01*
X4062143Y-10875667D01*
X4043095Y-10866143D01*
X4014524Y-10866143D01*
X3995476Y-10875667D01*
X3985952Y-10885190D01*
X4195476Y-10999476D02*
X4176428Y-10989952D01*
X4166905Y-10980429D01*
X4157381Y-10961381D01*
X4157381Y-10904238D01*
X4166905Y-10885190D01*
X4176428Y-10875667D01*
X4195476Y-10866143D01*
X4224048Y-10866143D01*
X4243095Y-10875667D01*
X4252619Y-10885190D01*
X4262143Y-10904238D01*
X4262143Y-10961381D01*
X4252619Y-10980429D01*
X4243095Y-10989952D01*
X4224048Y-10999476D01*
X4195476Y-10999476D01*
X4376429Y-10999476D02*
X4357381Y-10989952D01*
X4347857Y-10970905D01*
X4347857Y-10799476D01*
X4528810Y-10989952D02*
X4509762Y-10999476D01*
X4471667Y-10999476D01*
X4452619Y-10989952D01*
X4443095Y-10970905D01*
X4443095Y-10894714D01*
X4452619Y-10875667D01*
X4471667Y-10866143D01*
X4509762Y-10866143D01*
X4528810Y-10875667D01*
X4538333Y-10894714D01*
X4538333Y-10913762D01*
X4443095Y-10932810D01*
X4605000Y-11075667D02*
X4614524Y-11066143D01*
X4633571Y-11037571D01*
X4643095Y-11018524D01*
X4652619Y-10989952D01*
X4662143Y-10942333D01*
X4662143Y-10904238D01*
X4652619Y-10856619D01*
X4643095Y-10828048D01*
X4633571Y-10809000D01*
X4614524Y-10780429D01*
X4605000Y-10770905D01*
X4966905Y-11075667D02*
X4957381Y-11066143D01*
X4938333Y-11037571D01*
X4928810Y-11018524D01*
X4919286Y-10989952D01*
X4909762Y-10942333D01*
X4909762Y-10904238D01*
X4919286Y-10856619D01*
X4928810Y-10828048D01*
X4938333Y-10809000D01*
X4957381Y-10780429D01*
X4966905Y-10770905D01*
X5043095Y-10866143D02*
X5043095Y-10999476D01*
X5043095Y-10885190D02*
X5052619Y-10875667D01*
X5071667Y-10866143D01*
X5100238Y-10866143D01*
X5119286Y-10875667D01*
X5128810Y-10894714D01*
X5128810Y-10999476D01*
X5252619Y-10999476D02*
X5233571Y-10989952D01*
X5224048Y-10980429D01*
X5214524Y-10961381D01*
X5214524Y-10904238D01*
X5224048Y-10885190D01*
X5233571Y-10875667D01*
X5252619Y-10866143D01*
X5281190Y-10866143D01*
X5300238Y-10875667D01*
X5309762Y-10885190D01*
X5319286Y-10904238D01*
X5319286Y-10961381D01*
X5309762Y-10980429D01*
X5300238Y-10989952D01*
X5281190Y-10999476D01*
X5252619Y-10999476D01*
X5376429Y-10866143D02*
X5452619Y-10866143D01*
X5405000Y-10799476D02*
X5405000Y-10970905D01*
X5414524Y-10989952D01*
X5433571Y-10999476D01*
X5452619Y-10999476D01*
X5671667Y-10866143D02*
X5671667Y-11066143D01*
X5671667Y-10875667D02*
X5690714Y-10866143D01*
X5728809Y-10866143D01*
X5747857Y-10875667D01*
X5757381Y-10885190D01*
X5766905Y-10904238D01*
X5766905Y-10961381D01*
X5757381Y-10980429D01*
X5747857Y-10989952D01*
X5728809Y-10999476D01*
X5690714Y-10999476D01*
X5671667Y-10989952D01*
X5881190Y-10999476D02*
X5862143Y-10989952D01*
X5852619Y-10970905D01*
X5852619Y-10799476D01*
X6043095Y-10999476D02*
X6043095Y-10894714D01*
X6033571Y-10875667D01*
X6014524Y-10866143D01*
X5976428Y-10866143D01*
X5957381Y-10875667D01*
X6043095Y-10989952D02*
X6024048Y-10999476D01*
X5976428Y-10999476D01*
X5957381Y-10989952D01*
X5947857Y-10970905D01*
X5947857Y-10951857D01*
X5957381Y-10932810D01*
X5976428Y-10923286D01*
X6024048Y-10923286D01*
X6043095Y-10913762D01*
X6109762Y-10866143D02*
X6185952Y-10866143D01*
X6138333Y-10799476D02*
X6138333Y-10970905D01*
X6147857Y-10989952D01*
X6166905Y-10999476D01*
X6185952Y-10999476D01*
X6328809Y-10989952D02*
X6309762Y-10999476D01*
X6271667Y-10999476D01*
X6252619Y-10989952D01*
X6243095Y-10970905D01*
X6243095Y-10894714D01*
X6252619Y-10875667D01*
X6271667Y-10866143D01*
X6309762Y-10866143D01*
X6328809Y-10875667D01*
X6338333Y-10894714D01*
X6338333Y-10913762D01*
X6243095Y-10932810D01*
X6509762Y-10999476D02*
X6509762Y-10799476D01*
X6509762Y-10989952D02*
X6490714Y-10999476D01*
X6452619Y-10999476D01*
X6433571Y-10989952D01*
X6424048Y-10980429D01*
X6414524Y-10961381D01*
X6414524Y-10904238D01*
X6424048Y-10885190D01*
X6433571Y-10875667D01*
X6452619Y-10866143D01*
X6490714Y-10866143D01*
X6509762Y-10875667D01*
X6585952Y-11075667D02*
X6595476Y-11066143D01*
X6614524Y-11037571D01*
X6624048Y-11018524D01*
X6633571Y-10989952D01*
X6643095Y-10942333D01*
X6643095Y-10904238D01*
X6633571Y-10856619D01*
X6624048Y-10828048D01*
X6614524Y-10809000D01*
X6595476Y-10780429D01*
X6585952Y-10770905D01*
X-105000Y-11089000D02*
X-105000Y-11289000D01*
X-205000Y-11189000D02*
X-5000Y-11189000D01*
X233571Y-11079476D02*
X357381Y-11079476D01*
X290714Y-11155667D01*
X319286Y-11155667D01*
X338333Y-11165190D01*
X347857Y-11174714D01*
X357381Y-11193762D01*
X357381Y-11241381D01*
X347857Y-11260428D01*
X338333Y-11269952D01*
X319286Y-11279476D01*
X262143Y-11279476D01*
X243095Y-11269952D01*
X233571Y-11260428D01*
X443095Y-11260428D02*
X452619Y-11269952D01*
X443095Y-11279476D01*
X433571Y-11269952D01*
X443095Y-11260428D01*
X443095Y-11279476D01*
X528810Y-11098524D02*
X538333Y-11089000D01*
X557381Y-11079476D01*
X605000Y-11079476D01*
X624048Y-11089000D01*
X633571Y-11098524D01*
X643095Y-11117571D01*
X643095Y-11136619D01*
X633571Y-11165190D01*
X519286Y-11279476D01*
X643095Y-11279476D01*
X766905Y-11079476D02*
X785952Y-11079476D01*
X805000Y-11089000D01*
X814524Y-11098524D01*
X824048Y-11117571D01*
X833571Y-11155667D01*
X833571Y-11203286D01*
X824048Y-11241381D01*
X814524Y-11260428D01*
X805000Y-11269952D01*
X785952Y-11279476D01*
X766905Y-11279476D01*
X747857Y-11269952D01*
X738333Y-11260428D01*
X728809Y-11241381D01*
X719286Y-11203286D01*
X719286Y-11155667D01*
X728809Y-11117571D01*
X738333Y-11098524D01*
X747857Y-11089000D01*
X766905Y-11079476D01*
X957381Y-11079476D02*
X976428Y-11079476D01*
X995476Y-11089000D01*
X1005000Y-11098524D01*
X1014524Y-11117571D01*
X1024048Y-11155667D01*
X1024048Y-11203286D01*
X1014524Y-11241381D01*
X1005000Y-11260428D01*
X995476Y-11269952D01*
X976428Y-11279476D01*
X957381Y-11279476D01*
X938333Y-11269952D01*
X928809Y-11260428D01*
X919286Y-11241381D01*
X909762Y-11203286D01*
X909762Y-11155667D01*
X919286Y-11117571D01*
X928809Y-11098524D01*
X938333Y-11089000D01*
X957381Y-11079476D01*
X1109762Y-11279476D02*
X1109762Y-11146143D01*
X1109762Y-11165190D02*
X1119286Y-11155667D01*
X1138333Y-11146143D01*
X1166905Y-11146143D01*
X1185952Y-11155667D01*
X1195476Y-11174714D01*
X1195476Y-11279476D01*
X1195476Y-11174714D02*
X1205000Y-11155667D01*
X1224048Y-11146143D01*
X1252619Y-11146143D01*
X1271667Y-11155667D01*
X1281190Y-11174714D01*
X1281190Y-11279476D01*
X1376429Y-11279476D02*
X1376429Y-11146143D01*
X1376429Y-11165190D02*
X1385952Y-11155667D01*
X1405000Y-11146143D01*
X1433571Y-11146143D01*
X1452619Y-11155667D01*
X1462143Y-11174714D01*
X1462143Y-11279476D01*
X1462143Y-11174714D02*
X1471667Y-11155667D01*
X1490714Y-11146143D01*
X1519286Y-11146143D01*
X1538333Y-11155667D01*
X1547857Y-11174714D01*
X1547857Y-11279476D01*
X1938333Y-11069952D02*
X1766905Y-11327095D01*
X2195476Y-11079476D02*
X2214524Y-11079476D01*
X2233571Y-11089000D01*
X2243095Y-11098524D01*
X2252619Y-11117571D01*
X2262143Y-11155667D01*
X2262143Y-11203286D01*
X2252619Y-11241381D01*
X2243095Y-11260428D01*
X2233571Y-11269952D01*
X2214524Y-11279476D01*
X2195476Y-11279476D01*
X2176429Y-11269952D01*
X2166905Y-11260428D01*
X2157381Y-11241381D01*
X2147857Y-11203286D01*
X2147857Y-11155667D01*
X2157381Y-11117571D01*
X2166905Y-11098524D01*
X2176429Y-11089000D01*
X2195476Y-11079476D01*
X2347857Y-11260428D02*
X2357381Y-11269952D01*
X2347857Y-11279476D01*
X2338333Y-11269952D01*
X2347857Y-11260428D01*
X2347857Y-11279476D01*
X2547857Y-11279476D02*
X2433571Y-11279476D01*
X2490714Y-11279476D02*
X2490714Y-11079476D01*
X2471667Y-11108048D01*
X2452619Y-11127095D01*
X2433571Y-11136619D01*
X2624048Y-11098524D02*
X2633571Y-11089000D01*
X2652619Y-11079476D01*
X2700238Y-11079476D01*
X2719286Y-11089000D01*
X2728810Y-11098524D01*
X2738333Y-11117571D01*
X2738333Y-11136619D01*
X2728810Y-11165190D01*
X2614524Y-11279476D01*
X2738333Y-11279476D01*
X2909762Y-11079476D02*
X2871667Y-11079476D01*
X2852619Y-11089000D01*
X2843095Y-11098524D01*
X2824048Y-11127095D01*
X2814524Y-11165190D01*
X2814524Y-11241381D01*
X2824048Y-11260428D01*
X2833571Y-11269952D01*
X2852619Y-11279476D01*
X2890714Y-11279476D01*
X2909762Y-11269952D01*
X2919286Y-11260428D01*
X2928809Y-11241381D01*
X2928809Y-11193762D01*
X2919286Y-11174714D01*
X2909762Y-11165190D01*
X2890714Y-11155667D01*
X2852619Y-11155667D01*
X2833571Y-11165190D01*
X2824048Y-11174714D01*
X2814524Y-11193762D01*
X3052619Y-11079476D02*
X3071667Y-11079476D01*
X3090714Y-11089000D01*
X3100238Y-11098524D01*
X3109762Y-11117571D01*
X3119286Y-11155667D01*
X3119286Y-11203286D01*
X3109762Y-11241381D01*
X3100238Y-11260428D01*
X3090714Y-11269952D01*
X3071667Y-11279476D01*
X3052619Y-11279476D01*
X3033571Y-11269952D01*
X3024048Y-11260428D01*
X3014524Y-11241381D01*
X3005000Y-11203286D01*
X3005000Y-11155667D01*
X3014524Y-11117571D01*
X3024048Y-11098524D01*
X3033571Y-11089000D01*
X3052619Y-11079476D01*
X3195476Y-11079476D02*
X3195476Y-11117571D01*
X3271667Y-11079476D02*
X3271667Y-11117571D01*
X3566905Y-11355667D02*
X3557381Y-11346143D01*
X3538333Y-11317571D01*
X3528809Y-11298524D01*
X3519286Y-11269952D01*
X3509762Y-11222333D01*
X3509762Y-11184238D01*
X3519286Y-11136619D01*
X3528809Y-11108048D01*
X3538333Y-11089000D01*
X3557381Y-11060429D01*
X3566905Y-11050905D01*
X3633571Y-11098524D02*
X3643095Y-11089000D01*
X3662143Y-11079476D01*
X3709762Y-11079476D01*
X3728809Y-11089000D01*
X3738333Y-11098524D01*
X3747857Y-11117571D01*
X3747857Y-11136619D01*
X3738333Y-11165190D01*
X3624048Y-11279476D01*
X3747857Y-11279476D01*
X3985952Y-11279476D02*
X3985952Y-11079476D01*
X4071667Y-11279476D02*
X4071667Y-11174714D01*
X4062143Y-11155667D01*
X4043095Y-11146143D01*
X4014524Y-11146143D01*
X3995476Y-11155667D01*
X3985952Y-11165190D01*
X4195476Y-11279476D02*
X4176428Y-11269952D01*
X4166905Y-11260428D01*
X4157381Y-11241381D01*
X4157381Y-11184238D01*
X4166905Y-11165190D01*
X4176428Y-11155667D01*
X4195476Y-11146143D01*
X4224048Y-11146143D01*
X4243095Y-11155667D01*
X4252619Y-11165190D01*
X4262143Y-11184238D01*
X4262143Y-11241381D01*
X4252619Y-11260428D01*
X4243095Y-11269952D01*
X4224048Y-11279476D01*
X4195476Y-11279476D01*
X4376429Y-11279476D02*
X4357381Y-11269952D01*
X4347857Y-11250905D01*
X4347857Y-11079476D01*
X4528810Y-11269952D02*
X4509762Y-11279476D01*
X4471667Y-11279476D01*
X4452619Y-11269952D01*
X4443095Y-11250905D01*
X4443095Y-11174714D01*
X4452619Y-11155667D01*
X4471667Y-11146143D01*
X4509762Y-11146143D01*
X4528810Y-11155667D01*
X4538333Y-11174714D01*
X4538333Y-11193762D01*
X4443095Y-11212809D01*
X4614524Y-11269952D02*
X4633571Y-11279476D01*
X4671667Y-11279476D01*
X4690714Y-11269952D01*
X4700238Y-11250905D01*
X4700238Y-11241381D01*
X4690714Y-11222333D01*
X4671667Y-11212809D01*
X4643095Y-11212809D01*
X4624048Y-11203286D01*
X4614524Y-11184238D01*
X4614524Y-11174714D01*
X4624048Y-11155667D01*
X4643095Y-11146143D01*
X4671667Y-11146143D01*
X4690714Y-11155667D01*
X4766905Y-11355667D02*
X4776429Y-11346143D01*
X4795476Y-11317571D01*
X4805000Y-11298524D01*
X4814524Y-11269952D01*
X4824048Y-11222333D01*
X4824048Y-11184238D01*
X4814524Y-11136619D01*
X4805000Y-11108048D01*
X4795476Y-11089000D01*
X4776429Y-11060429D01*
X4766905Y-11050905D01*
X5128810Y-11355667D02*
X5119286Y-11346143D01*
X5100238Y-11317571D01*
X5090714Y-11298524D01*
X5081190Y-11269952D01*
X5071667Y-11222333D01*
X5071667Y-11184238D01*
X5081190Y-11136619D01*
X5090714Y-11108048D01*
X5100238Y-11089000D01*
X5119286Y-11060429D01*
X5128810Y-11050905D01*
X5205000Y-11146143D02*
X5205000Y-11279476D01*
X5205000Y-11165190D02*
X5214524Y-11155667D01*
X5233571Y-11146143D01*
X5262143Y-11146143D01*
X5281190Y-11155667D01*
X5290714Y-11174714D01*
X5290714Y-11279476D01*
X5414524Y-11279476D02*
X5395476Y-11269952D01*
X5385952Y-11260428D01*
X5376429Y-11241381D01*
X5376429Y-11184238D01*
X5385952Y-11165190D01*
X5395476Y-11155667D01*
X5414524Y-11146143D01*
X5443095Y-11146143D01*
X5462143Y-11155667D01*
X5471667Y-11165190D01*
X5481190Y-11184238D01*
X5481190Y-11241381D01*
X5471667Y-11260428D01*
X5462143Y-11269952D01*
X5443095Y-11279476D01*
X5414524Y-11279476D01*
X5538333Y-11146143D02*
X5614524Y-11146143D01*
X5566905Y-11079476D02*
X5566905Y-11250905D01*
X5576429Y-11269952D01*
X5595476Y-11279476D01*
X5614524Y-11279476D01*
X5833571Y-11146143D02*
X5833571Y-11346143D01*
X5833571Y-11155667D02*
X5852619Y-11146143D01*
X5890714Y-11146143D01*
X5909762Y-11155667D01*
X5919286Y-11165190D01*
X5928809Y-11184238D01*
X5928809Y-11241381D01*
X5919286Y-11260428D01*
X5909762Y-11269952D01*
X5890714Y-11279476D01*
X5852619Y-11279476D01*
X5833571Y-11269952D01*
X6043095Y-11279476D02*
X6024048Y-11269952D01*
X6014524Y-11250905D01*
X6014524Y-11079476D01*
X6205000Y-11279476D02*
X6205000Y-11174714D01*
X6195476Y-11155667D01*
X6176428Y-11146143D01*
X6138333Y-11146143D01*
X6119286Y-11155667D01*
X6205000Y-11269952D02*
X6185952Y-11279476D01*
X6138333Y-11279476D01*
X6119286Y-11269952D01*
X6109762Y-11250905D01*
X6109762Y-11231857D01*
X6119286Y-11212809D01*
X6138333Y-11203286D01*
X6185952Y-11203286D01*
X6205000Y-11193762D01*
X6271667Y-11146143D02*
X6347857Y-11146143D01*
X6300238Y-11079476D02*
X6300238Y-11250905D01*
X6309762Y-11269952D01*
X6328809Y-11279476D01*
X6347857Y-11279476D01*
X6490714Y-11269952D02*
X6471667Y-11279476D01*
X6433571Y-11279476D01*
X6414524Y-11269952D01*
X6405000Y-11250905D01*
X6405000Y-11174714D01*
X6414524Y-11155667D01*
X6433571Y-11146143D01*
X6471667Y-11146143D01*
X6490714Y-11155667D01*
X6500238Y-11174714D01*
X6500238Y-11193762D01*
X6405000Y-11212809D01*
X6671667Y-11279476D02*
X6671667Y-11079476D01*
X6671667Y-11269952D02*
X6652619Y-11279476D01*
X6614524Y-11279476D01*
X6595476Y-11269952D01*
X6585952Y-11260428D01*
X6576428Y-11241381D01*
X6576428Y-11184238D01*
X6585952Y-11165190D01*
X6595476Y-11155667D01*
X6614524Y-11146143D01*
X6652619Y-11146143D01*
X6671667Y-11155667D01*
X6747857Y-11355667D02*
X6757381Y-11346143D01*
X6776428Y-11317571D01*
X6785952Y-11298524D01*
X6795476Y-11269952D01*
X6805000Y-11222333D01*
X6805000Y-11184238D01*
X6795476Y-11136619D01*
X6785952Y-11108048D01*
X6776428Y-11089000D01*
X6757381Y-11060429D01*
X6747857Y-11050905D01*
M02*
