M48
; DRILL file {KiCad (6.0.0)} date Fri Jul  8 19:14:15 2022
; FORMAT={-:-/ absolute / metric / decimal}
; #@! TF.CreationDate,2022-07-08T19:14:15+08:00
; #@! TF.GenerationSoftware,Kicad,Pcbnew,(6.0.0)
; #@! TF.FileFunction,Plated,1,4,PTH
FMAT,2
METRIC
; #@! TA.AperFunction,Plated,PTH,ViaDrill
T1C0.200
; #@! TA.AperFunction,Plated,PTH,ViaDrill
T2C0.400
; #@! TA.AperFunction,Plated,PTH,ComponentDrill
T3C0.500
; #@! TA.AperFunction,Plated,PTH,ComponentDrill
T4C0.600
; #@! TA.AperFunction,Plated,PTH,ComponentDrill
T5C0.900
; #@! TA.AperFunction,Plated,PTH,ComponentDrill
T6C1.000
; #@! TA.AperFunction,Plated,PTH,ComponentDrill
T7C1.100
; #@! TA.AperFunction,Plated,PTH,ComponentDrill
T8C1.500
; #@! TA.AperFunction,Plated,PTH,ComponentDrill
T9C1.700
; #@! TA.AperFunction,Plated,PTH,ComponentDrill
T10C2.700
%
G90
G05
T1
X11.176Y-64.948
X12.7Y-89.408
X18.415Y-89.281
X18.466Y-48.26
X18.974Y-63.805
X20.371Y-55.27
X22.479Y-87.503
X28.55Y-54.635
X29.743Y-55.677
X31.394Y-52.476
X31.877Y-54.864
X31.877Y-55.626
X31.877Y-56.515
X32.016Y-52.945
X32.514Y-52.428
X32.766Y-54.864
X32.766Y-55.626
X32.766Y-56.515
X32.842Y-44.526
X33.045Y-52.857
X33.655Y-54.864
X33.655Y-55.626
X33.655Y-56.515
X33.731Y-43.561
X34.355Y-44.185
X35.89Y-31.953
X36.576Y-37.313
X38.532Y-35.662
X38.735Y-84.328
X39.294Y-35.179
X42.545Y-30.48
X42.621Y-25.222
X42.789Y-24.55
X42.824Y-23.901
X42.83Y-43.861
X42.917Y-44.611
X42.951Y-53.035
X43.108Y-45.466
X43.155Y-57.48
X43.155Y-59.284
X43.612Y-30.138
X43.8Y-29.377
X44.704Y-41.148
X44.704Y-44.45
X45.288Y-28.88
X45.829Y-28.411
X46.228Y-44.45
X46.253Y-34.036
X46.436Y-28.18
X46.482Y-41.148
X46.798Y-33.567
X46.905Y-27.178
X47.117Y-28.563
X47.752Y-41.148
X47.752Y-44.45
X48.006Y-29.79
X48.514Y-85.598
X48.806Y-26.704
X49.034Y-41.139
X49.277Y-25.709
X49.808Y-26.083
X50.165Y-28.194
X50.622Y-35.382
X50.8Y-23.876
X51.079Y-35.89
X52.705Y-88.9
X60.198Y-91.186
X60.706Y-85.813
X61.722Y-90.932
X64.516Y-86.487
X66.421Y-38.1
X66.421Y-38.989
X67.056Y-38.1
X67.056Y-38.989
X67.31Y-59.817
X67.31Y-60.452
X67.31Y-61.087
X67.691Y-38.1
X67.691Y-38.989
X68.199Y-59.817
X68.199Y-60.452
X68.199Y-61.087
X69.088Y-59.817
X69.088Y-60.452
X69.088Y-61.087
X72.644Y-46.355
X72.644Y-47.244
X72.644Y-48.133
X73.406Y-46.355
X73.406Y-47.244
X73.406Y-48.133
X73.66Y-41.148
X73.66Y-42.164
X73.66Y-43.18
X73.66Y-44.196
X74.168Y-46.355
X74.168Y-47.244
X74.168Y-48.133
X74.676Y-41.148
X74.676Y-42.164
X74.676Y-43.18
X75.184Y-43.688
X75.463Y-81.534
X75.692Y-41.148
X75.692Y-42.164
X75.692Y-43.18
X78.74Y-58.674
X78.74Y-59.563
X78.74Y-60.452
X79.375Y-58.674
X79.375Y-59.563
X79.375Y-60.452
X80.01Y-58.674
X80.01Y-59.563
X80.01Y-60.452
X80.899Y-75.819
X82.804Y-92.075
X84.963Y-78.105
X86.487Y-90.805
X88.9Y-85.09
X89.281Y-76.708
X90.043Y-80.264
X90.043Y-80.899
X90.043Y-81.534
X90.678Y-80.264
X90.678Y-80.899
X90.678Y-81.534
X91.313Y-80.264
X91.313Y-80.899
X91.313Y-81.534
X93.345Y-71.247
X93.345Y-71.882
X93.345Y-72.517
X93.98Y-71.247
X93.98Y-71.882
X93.98Y-72.517
X93.98Y-73.152
X94.364Y-65.269
X94.615Y-71.247
X94.615Y-71.882
X94.615Y-72.517
X94.615Y-73.152
X95.25Y-39.751
X95.25Y-40.386
X95.25Y-41.021
X95.25Y-44.958
X95.25Y-45.593
X95.25Y-46.228
X95.25Y-46.863
X95.25Y-51.308
X95.25Y-51.943
X95.25Y-52.578
X95.377Y-58.42
X95.377Y-59.055
X95.377Y-59.747
X95.377Y-60.452
X96.139Y-44.958
X96.139Y-45.593
X96.139Y-46.228
X96.139Y-46.863
X96.139Y-51.308
X96.139Y-51.956
X96.139Y-52.578
X96.139Y-58.42
X96.139Y-59.055
X96.139Y-59.773
X96.139Y-60.452
X96.266Y-39.751
X96.266Y-41.021
X96.278Y-40.374
X103.886Y-69.723
X103.886Y-70.358
X103.886Y-70.993
X104.775Y-69.723
X104.775Y-70.358
X104.775Y-70.993
X105.664Y-69.723
X105.664Y-70.358
X105.664Y-70.993
X108.712Y-69.723
X108.712Y-70.358
X108.712Y-70.993
X109.601Y-69.723
X109.601Y-70.358
X109.601Y-70.993
X110.49Y-62.992
X110.49Y-69.723
X110.49Y-70.358
X110.49Y-70.993
X111.76Y-87.63
X111.76Y-91.44
X113.919Y-75.819
X114.3Y-62.992
X115.087Y-76.365
X115.189Y-73.533
X115.189Y-74.168
X115.189Y-74.803
X115.189Y-75.438
X115.265Y-13.462
X115.316Y-11.43
X115.316Y-12.446
X115.57Y-91.44
X115.824Y-73.533
X115.824Y-74.168
X115.824Y-74.803
X115.824Y-75.438
X116.332Y-11.43
X116.332Y-12.446
X116.332Y-13.462
X116.332Y-28.575
X116.332Y-29.591
X116.332Y-30.607
X116.459Y-74.168
X116.459Y-74.803
X116.459Y-75.438
X116.464Y-73.528
X117.094Y-73.533
X117.094Y-74.803
X117.094Y-75.438
X117.094Y-78.486
X117.099Y-74.163
X117.348Y-24.638
X117.348Y-28.575
X117.348Y-29.591
X117.348Y-30.607
X117.729Y-73.533
X117.729Y-74.168
X117.729Y-74.803
X117.729Y-75.438
X118.11Y-63.119
X118.364Y-73.533
X118.364Y-74.168
X118.364Y-74.803
X118.364Y-75.438
X118.999Y-73.533
X118.999Y-74.168
X118.999Y-74.803
X118.999Y-75.438
X119.634Y-73.533
X119.634Y-74.168
X119.634Y-74.803
X119.634Y-75.438
X120.269Y-72.644
X120.65Y-80.772
X121.158Y-85.344
X122.707Y-63.5
X129.032Y-18.669
X129.032Y-19.685
X129.032Y-20.701
X130.048Y-18.669
X130.048Y-19.685
X130.048Y-20.701
X131.521Y-91.948
X132.105Y-92.734
X132.713Y-91.414
X133.706Y-68.453
X134.239Y-63.758
X135.358Y-91.645
X135.966Y-91.973
X136.728Y-66.015
X143.256Y-14.732
X143.256Y-15.24
X143.256Y-15.748
X143.764Y-14.732
X143.764Y-15.24
X143.764Y-15.748
X144.272Y-14.732
X144.272Y-15.24
X144.272Y-15.748
X144.78Y-14.732
X144.78Y-15.24
X144.78Y-15.748
X145.288Y-14.732
X145.288Y-15.24
X145.288Y-15.748
X151.003Y-16.129
X151.003Y-16.891
X151.638Y-16.129
X151.638Y-16.891
X152.273Y-16.129
X152.273Y-16.891
X152.908Y-16.129
X152.908Y-16.891
T2
X5.207Y-9.652
X5.461Y-90.297
X11.303Y-42.799
X12.065Y-46.863
X12.446Y-83.947
X12.446Y-84.963
X12.573Y-51.816
X13.462Y-84.963
X13.864Y-44.82
X14.224Y-85.598
X14.986Y-84.963
X16.002Y-83.947
X16.002Y-84.963
X17.272Y-44.323
X17.272Y-52.705
X17.272Y-53.467
X20.447Y-61.214
X23.927Y-60.35
X24.511Y-57.658
X25.654Y-56.515
X25.654Y-57.531
X26.162Y-64.008
X27.163Y-54.595
X27.178Y-64.008
X27.337Y-50.345
X28.194Y-64.008
X28.321Y-26.035
X29.21Y-35.56
X29.21Y-64.008
X29.489Y-49.454
X29.515Y-57.887
X29.54Y-51.105
X30.099Y-61.341
X30.42Y-48.364
X30.48Y-41.91
X31.242Y-40.513
X32.267Y-33.274
X32.267Y-34.798
X32.294Y-32.04
X32.512Y-27.067
X32.512Y-28.448
X32.639Y-36.957
X33.02Y-40.132
X33.274Y-24.638
X33.782Y-62.357
X34.036Y-40.132
X34.183Y-26.378
X34.316Y-32.758
X34.337Y-29.082
X34.798Y-24.638
X35.052Y-40.132
X35.56Y-65.278
X35.687Y-62.738
X35.78Y-49.276
X36.322Y-57.54
X36.576Y-56.252
X37.338Y-60.198
X37.846Y-20.32
X38.085Y-52.364
X38.354Y-81.407
X38.407Y-28.728
X38.421Y-33.705
X38.608Y-39.624
X39.038Y-36.515
X39.37Y-42.663
X39.615Y-21.166
X39.624Y-18.796
X39.751Y-54.737
X39.751Y-56.134
X40.894Y-42.663
X42.672Y-18.796
X43.434Y-92.456
X49.436Y-42.672
X49.53Y-16.891
X50.8Y-16.891
X51.151Y-42.799
X52.07Y-16.764
X52.324Y-40.386
X54.043Y-24.499
X55.595Y-23.25
X57.658Y-23.876
X57.658Y-25.4
X58.42Y-91.83
X61.468Y-89.408
X61.722Y-36.068
X61.722Y-37.084
X61.722Y-38.1
X62.738Y-36.068
X62.738Y-37.084
X62.738Y-38.1
X64.135Y-33.655
X64.135Y-40.894
X66.04Y-33.274
X67.945Y-43.434
X68.199Y-42.434
X68.199Y-45.593
X68.326Y-34.544
X68.58Y-44.45
X68.58Y-46.736
X68.834Y-43.18
X69.066Y-40.345
X69.992Y-36.898
X72.263Y-54.356
X73.533Y-60.96
X74.041Y-38.862
X74.549Y-49.53
X74.549Y-54.864
X75.057Y-58.42
X75.057Y-59.69
X75.057Y-60.96
X75.184Y-44.704
X75.184Y-45.72
X75.184Y-46.736
X75.184Y-47.752
X76.2Y-44.704
X76.2Y-45.72
X76.2Y-46.736
X76.2Y-47.752
X76.327Y-49.403
X76.327Y-58.42
X76.327Y-59.69
X76.327Y-60.96
X77.089Y-76.835
X77.216Y-44.704
X77.216Y-45.72
X77.216Y-46.736
X77.216Y-47.752
X77.216Y-53.848
X77.724Y-91.694
X77.978Y-37.973
X78.232Y-45.72
X78.232Y-46.736
X78.232Y-47.752
X78.359Y-49.403
X79.629Y-87.376
X79.756Y-79.756
X79.756Y-80.899
X79.883Y-73.279
X80.518Y-41.91
X81.026Y-43.688
X81.28Y-66.04
X81.28Y-67.056
X81.28Y-79.756
X81.28Y-80.899
X82.804Y-66.04
X82.804Y-67.056
X83.058Y-76.581
X83.566Y-89.535
X83.82Y-77.47
X84.201Y-81.915
X84.328Y-66.04
X84.328Y-67.056
X84.328Y-74.93
X84.506Y-15.875
X84.963Y-57.404
X85.09Y-14.732
X85.344Y-43.18
X85.471Y-74.93
X85.852Y-66.04
X85.852Y-67.056
X85.979Y-87.503
X86.291Y-81.456
X86.32Y-83.073
X86.366Y-76.454
X86.487Y-64.008
X86.868Y-43.18
X86.868Y-85.471
X87.091Y-56.467
X87.884Y-40.64
X88.011Y-47.752
X88.011Y-53.721
X88.011Y-68.444
X88.392Y-43.18
X88.773Y-74.803
X89.84Y-14.859
X89.84Y-16.129
X89.916Y-40.574
X89.916Y-43.18
X90.038Y-86.986
X90.043Y-47.752
X90.043Y-53.721
X90.043Y-60.564
X90.043Y-68.453
X91.05Y-60.338
X91.217Y-63.451
X91.44Y-43.18
X91.694Y-68.072
X91.821Y-41.91
X91.821Y-47.244
X91.821Y-53.467
X91.948Y-76.581
X92.583Y-47.879
X92.583Y-78.359
X93.091Y-53.721
X93.472Y-41.91
X93.598Y-78.862
X93.98Y-90.678
X94.361Y-21.082
X94.488Y-27.305
X95.555Y-15.875
X95.758Y-27.305
X95.758Y-29.464
X96.901Y-63.5
X98.806Y-90.678
X98.806Y-92.202
X99.05Y-41.881
X99.072Y-61.587
X99.18Y-45.303
X99.207Y-50.976
X99.314Y-48.26
X99.314Y-64.092
X99.568Y-53.975
X99.822Y-37.338
X100.076Y-90.678
X100.076Y-92.202
X100.838Y-27.305
X101.346Y-89.408
X101.346Y-90.678
X101.346Y-92.202
X101.473Y-45.019
X101.473Y-50.683
X101.473Y-60.614
X101.473Y-63.627
X101.6Y-30.089
X101.6Y-36.83
X102.616Y-89.408
X102.616Y-90.678
X102.616Y-92.202
X103.505Y-45.019
X103.505Y-50.683
X103.632Y-36.83
X103.759Y-80.466
X103.886Y-92.202
X104.013Y-89.535
X104.013Y-90.424
X105.156Y-38.608
X105.156Y-39.624
X105.156Y-47.371
X105.156Y-49.784
X105.156Y-50.8
X105.156Y-51.816
X105.156Y-52.959
X105.156Y-92.202
X105.41Y-41.402
X105.537Y-89.595
X106.172Y-33.02
X106.172Y-38.608
X106.172Y-39.624
X106.172Y-49.784
X106.172Y-50.8
X106.172Y-51.816
X106.426Y-92.202
X106.612Y-83.212
X107.061Y-66.294
X107.188Y-38.608
X107.188Y-39.624
X107.188Y-49.784
X107.188Y-50.8
X107.188Y-51.816
X107.188Y-63.578
X107.442Y-9.652
X107.696Y-92.202
X107.95Y-75.311
X108.077Y-77.978
X108.077Y-79.248
X108.585Y-15.113
X108.712Y-85.471
X108.966Y-92.202
X109.093Y-90.678
X109.22Y-10.033
X109.474Y-75.311
X109.474Y-77.978
X109.474Y-79.248
X109.728Y-89.408
X110.236Y-92.202
X110.998Y-66.167
X110.998Y-77.978
X110.998Y-79.248
X110.998Y-89.408
X111.13Y-75.28
X111.252Y-15.748
X111.887Y-61.879
X112.014Y-13.589
X112.268Y-79.121
X112.268Y-80.466
X113.157Y-68.81
X113.919Y-83.947
X114.808Y-66.167
X114.883Y-63.575
X115.316Y-34.036
X115.316Y-83.82
X115.824Y-90.297
X116.205Y-80.264
X116.332Y-83.477
X116.459Y-68.834
X116.459Y-70.316
X117.138Y-80.273
X117.221Y-90.17
X117.475Y-85.219
X117.729Y-70.316
X118.302Y-79.867
X118.491Y-83.212
X119.507Y-84.92
X120.462Y-78.715
X120.481Y-70.316
X120.65Y-12.954
X121.031Y-76.2
X121.666Y-10.414
X122.428Y-27.178
X122.428Y-28.956
X122.555Y-72.771
X123.444Y-81.788
X124.968Y-85.852
X125.095Y-81.788
X125.984Y-72.771
X126.111Y-61.976
X126.365Y-85.725
X126.492Y-15.875
X126.492Y-24.257
X126.746Y-69.469
X127.508Y-32.512
X128.016Y-34.544
X128.016Y-69.596
X128.143Y-86.106
X128.778Y-26.035
X128.905Y-64.77
X129.159Y-86.487
X129.159Y-87.884
X129.159Y-89.281
X129.16Y-90.55
X129.169Y-84.214
X129.54Y-34.544
X130.048Y-24.892
X130.048Y-70.104
X130.302Y-14.986
X130.81Y-62.992
X131.318Y-69.977
X131.572Y-34.544
X132.08Y-61.976
X132.461Y-14.986
X132.588Y-33.528
X132.715Y-23.622
X134.112Y-84.201
X134.366Y-61.934
X134.62Y-35.052
X134.811Y-88.365
X135.128Y-34.036
X135.128Y-85.344
X135.128Y-86.36
X136.144Y-83.312
X136.271Y-10.033
X136.271Y-12.827
X138.176Y-85.09
X138.176Y-85.979
X138.397Y-89.665
X139.192Y-10.033
X139.522Y-12.827
X139.7Y-25.908
X139.7Y-29.753
X139.7Y-31.206
X139.7Y-35.052
X139.7Y-61.341
X139.7Y-65.659
X141.478Y-10.033
X141.478Y-12.827
X141.732Y-93.091
X142.24Y-30.861
X142.24Y-35.052
X142.24Y-61.341
X142.24Y-65.659
X142.571Y-88.381
X143.256Y-86.741
X143.256Y-93.091
X143.637Y-82.042
X144.018Y-79.248
X144.145Y-76.073
X144.526Y-10.033
X144.526Y-12.827
X144.78Y-26.035
X144.78Y-30.099
X144.78Y-31.115
X144.78Y-35.052
X144.78Y-61.341
X144.78Y-65.659
X144.78Y-66.548
X144.78Y-70.612
X144.78Y-80.772
X144.78Y-85.852
X145.034Y-75.311
X146.812Y-92.075
X147.32Y-31.115
X147.32Y-35.052
X147.32Y-61.341
X147.32Y-65.659
X147.955Y-15.748
X147.955Y-17.272
X148.971Y-22.352
X149.606Y-9.779
X149.86Y-22.352
X149.86Y-31.115
X149.86Y-35.052
X149.86Y-61.341
X149.86Y-65.659
X150.749Y-22.352
X151.765Y-9.779
X152.273Y-75.311
X153.035Y-76.962
X153.162Y-82.042
X153.416Y-10.033
X153.924Y-78.74
X154.178Y-8.382
X154.178Y-80.518
X154.178Y-91.567
X154.94Y-14.224
X154.94Y-16.51
X155.702Y-20.066
X155.702Y-21.082
X155.702Y-22.225
X155.702Y-23.241
X155.702Y-24.511
X155.702Y-25.527
X155.702Y-26.543
X155.702Y-27.559
X155.956Y-14.224
X155.956Y-16.51
X156.845Y-28.575
X156.845Y-29.464
X156.845Y-30.353
X156.972Y-14.224
X156.972Y-16.51
X157.988Y-14.224
X157.988Y-15.24
X157.988Y-16.51
T3
X1.531Y-94.412
X1.541Y-5.512
X2.124Y-92.98
X2.124Y-95.844
X2.134Y-4.08
X2.134Y-6.944
X3.556Y-92.387
X3.556Y-96.437
X3.566Y-3.487
X3.566Y-7.537
X4.988Y-92.98
X4.988Y-95.844
X4.998Y-4.08
X4.998Y-6.944
X5.581Y-94.412
X5.591Y-5.512
X153.975Y-4.0
X153.975Y-96.0
X154.568Y-2.568
X154.568Y-5.432
X154.568Y-94.568
X154.568Y-97.432
X156.0Y-1.975
X156.0Y-6.025
X156.0Y-93.975
X156.0Y-98.025
X157.432Y-2.568
X157.432Y-5.432
X157.432Y-94.568
X157.432Y-97.432
X158.025Y-4.0
X158.025Y-96.0
T5
X13.256Y-58.963
X13.256Y-61.503
X13.256Y-64.043
X13.256Y-69.123
X15.796Y-57.693
X15.796Y-60.233
X15.796Y-62.773
X15.796Y-65.313
X15.796Y-67.853
T6
X2.846Y-56.773
X2.846Y-59.313
X2.846Y-67.493
X2.846Y-70.033
X38.903Y-15.214
X41.443Y-15.214
T7
X26.725Y-74.201
X29.265Y-74.201
X31.805Y-74.201
X34.345Y-74.201
X36.885Y-74.201
X39.425Y-74.201
X69.905Y-74.201
X72.445Y-74.201
X74.985Y-74.201
X77.525Y-74.201
T8
X5.461Y-31.115
T9
X2.921Y-28.575
X2.921Y-33.655
X8.001Y-28.575
X8.001Y-33.655
X9.956Y-55.653
X9.956Y-71.153
T10
X3.556Y-94.412
X3.566Y-5.512
X156.0Y-4.0
X156.0Y-96.0
T4
X1.843Y-41.673G85X1.243Y-41.673
G05
X1.843Y-50.313G85X1.243Y-50.313
G05
X6.273Y-41.673G85X5.173Y-41.673
G05
X6.273Y-50.313G85X5.173Y-50.313
G05
T6
X4.178Y-76.475G85X2.678Y-76.475
G05
X4.178Y-85.475G85X2.678Y-85.475
G05
X4.428Y-80.325G85X4.428Y-81.625
G05
X10.428Y-79.975G85X10.428Y-81.975
G05
T0
M30
